<svg width="32" height="32" viewBox="0 0 32 32" fill="none" xmlns="http://www.w3.org/2000/svg">
<path d="M26.56 20.5667C26.4321 20.5667 26.3082 20.5211 26.2069 20.4198L17.5136 11.7265C16.6783 10.8912 15.3217 10.8912 14.4865 11.7265L5.79314 20.4198C5.60174 20.6112 5.27832 20.6112 5.08691 20.4198C4.89551 20.2284 4.89551 19.905 5.08691 19.7136L13.7802 11.0202C14.9971 9.80336 16.9878 9.80071 18.2206 11.0211C18.2209 11.0213 18.2212 11.0216 18.2215 11.0219L26.9131 19.7136C27.1026 19.903 27.1045 20.2218 26.9189 20.4139C26.8027 20.5196 26.6711 20.5667 26.56 20.5667Z" fill="#6B7280" stroke="#6B7280"/>
</svg>
