<svg width="142" height="91" viewBox="0 0 142 91" fill="none" xmlns="http://www.w3.org/2000/svg">
<path id="Vector 634" d="M13.512 89.5864C14.25 90.4082 15.5146 90.4761 16.3364 89.738L29.7284 77.7108C30.5502 76.9727 30.6181 75.7082 29.88 74.8864C29.142 74.0646 27.8775 73.9967 27.0557 74.7348L15.1516 85.4256L4.46078 73.5216C3.72273 72.6998 2.45822 72.6319 1.63642 73.37C0.814621 74.108 0.746728 75.3725 1.48478 76.1943L13.512 89.5864ZM137.5 0.75C137.5 3.69748 136.025 6.41849 132.963 9.10278C129.875 11.8099 125.351 14.3124 119.703 16.7558C108.365 21.661 93.3179 26.0075 77.7919 31.4176C62.4069 36.7786 46.6997 43.1437 34.6201 52.0054C22.4925 60.9023 13.8452 72.4547 13.0029 88.1428L16.9971 88.3572C17.7548 74.2453 25.47 63.6789 36.9861 55.2306C48.5503 46.7469 63.7681 40.5401 79.1081 35.1949C94.3071 29.8987 109.785 25.4046 121.291 20.427C127.065 17.929 132.042 15.2296 135.6 12.1107C139.184 8.96901 141.5 5.24002 141.5 0.75H137.5Z" fill="#F8B917"/>
</svg>
