<svg width="144" height="44" viewBox="0 0 144 44" fill="none" xmlns="http://www.w3.org/2000/svg">
<g id="Camada_1" clip-path="url(#clip0_522_2544)">
<path id="Vector" d="M21.8022 41.0593C32.0915 41.0593 40.4326 32.7181 40.4326 22.4288C40.4326 12.1395 32.0915 3.79834 21.8022 3.79834C11.5128 3.79834 3.17169 12.1395 3.17169 22.4288C3.17169 32.7181 11.5128 41.0593 21.8022 41.0593Z" fill="url(#paint0_linear_522_2544)"/>
<g id="Group">
<path id="Vector_2" fill-rule="evenodd" clip-rule="evenodd" d="M20.2059 26.8787V0.155273C8.97154 0.922154 0.0946655 10.3633 0.0946655 21.8949C0.0946655 28.9578 3.4235 35.2348 8.58526 39.2169L17.144 30.5805H9.34836V26.8787H20.2059Z" fill="url(#paint1_linear_522_2544)" fill-opacity="0.6"/>
<g id="Group_2">
<path id="Vector_3" d="M20.2059 0.155229H20.3006V0.0529785L20.2002 0.0605526L20.2059 0.155229ZM20.2059 26.8786V26.9733H20.3006V26.8786H20.2059ZM8.58527 39.2169L8.52657 39.2926L8.59285 39.3438L8.65155 39.2851L8.58338 39.2188L8.58527 39.2169ZM17.144 30.5805L17.2103 30.6468L17.3694 30.4858H17.1421V30.5805H17.144ZM9.34837 30.5805H9.25369V30.6752H9.34837V30.5805ZM9.34837 26.8786V26.784H9.25369V26.8786H9.34837ZM20.1112 0.155229V26.8786H20.3006V0.155229H20.1112ZM0.189353 21.8949C0.189353 10.4125 9.02836 1.013 20.2116 0.249906L20.1983 0.0605526C8.91475 0.83122 0 10.314 0 21.8949H0.189353ZM8.64397 39.143C3.50493 35.178 0.189353 28.9274 0.189353 21.8949H0C0 28.988 3.34398 35.2935 8.52847 39.2926L8.64397 39.143ZM17.0778 30.5142L8.519 39.1506L8.65344 39.2832L17.2122 30.6468L17.0778 30.5142ZM17.144 30.4858H9.34837V30.6752H17.144V30.4858ZM9.44304 30.5805V26.8786H9.25369V30.5805H9.44304ZM9.34837 26.9733H20.2059V26.784H9.34837V26.9733Z" fill="url(#paint2_linear_522_2544)"/>
</g>
</g>
<path id="Vector_4" fill-rule="evenodd" clip-rule="evenodd" d="M21.1924 28.8025V2.0791C9.95805 2.84598 1.08118 12.2871 1.08118 23.8187C1.08118 30.8816 4.4119 37.1606 9.57367 41.1408L18.1324 32.5044H10.3368V28.8025H21.1943H21.1924Z" fill="url(#paint3_linear_522_2544)" fill-opacity="0.6"/>
<g id="Group_3">
<path id="Vector_5" fill-rule="evenodd" clip-rule="evenodd" d="M26.1099 26.8615H42.506C42.9302 25.1725 43.1555 23.4039 43.1555 21.5842C43.1555 10.4086 34.6668 1.2174 23.7847 0.104004V24.1254L31.2584 16.6516L33.7882 19.1813L26.1099 26.8596V26.8615Z" fill="url(#paint4_linear_522_2544)" fill-opacity="0.36"/>
<g id="Group_4">
<path id="Vector_6" d="M42.506 26.8616V26.9563H42.5799L42.5988 26.8843L42.506 26.8616ZM26.1099 26.8616L26.0437 26.7953L25.8827 26.9563H26.1118V26.8616H26.1099ZM23.7847 0.104085L23.7941 0.00940807L23.69 -0.00195312V0.102191H23.7847V0.104085ZM23.7847 24.1254H23.69V24.3545L23.851 24.1936L23.7847 24.1273V24.1254ZM31.2585 16.6517L31.3247 16.5854L31.2585 16.5191L31.1922 16.5854L31.2585 16.6517ZM33.7882 19.1814L33.8545 19.2477L33.9208 19.1814L33.8545 19.1151L33.7882 19.1814ZM42.506 26.765H26.1099V26.9544H42.506V26.765ZM43.0608 21.5824C43.0608 23.3945 42.8374 25.1555 42.4151 26.837L42.5988 26.8824C43.0249 25.1858 43.2502 23.4097 43.2502 21.5824H43.0608ZM23.7752 0.198761C34.6081 1.30648 43.0608 10.4579 43.0608 21.5843H43.2502C43.2502 10.3595 34.7236 1.12659 23.7941 0.0113016L23.7752 0.198761ZM23.8794 24.1254V0.104085H23.69V24.1254H23.8794ZM23.851 24.1917L31.3247 16.7179L31.1903 16.5835L23.7165 24.0573L23.851 24.1917ZM31.1903 16.7179L33.72 19.2477L33.8545 19.1133L31.3247 16.5835L31.1903 16.7179ZM33.72 19.1133L26.0418 26.7915L26.1762 26.926L33.8545 19.2477L33.72 19.1133Z" fill="url(#paint5_linear_522_2544)"/>
</g>
</g>
<path id="Vector_7" fill-rule="evenodd" clip-rule="evenodd" d="M26.1099 28.8367H42.506C42.9302 27.1476 43.1555 25.3791 43.1555 23.5594C43.1555 12.3838 34.6668 3.19256 23.7847 2.08105V26.1024L31.2584 18.6286L33.7882 21.1584L26.1099 28.8367Z" fill="url(#paint6_linear_522_2544)" fill-opacity="0.36"/>
<path id="Vector_8" fill-rule="evenodd" clip-rule="evenodd" d="M26.286 26.1384H41.3244C41.7145 24.6671 41.9209 23.1258 41.9209 21.539C41.9209 11.7987 34.1347 3.78717 24.1539 2.81958V23.7545L31.0085 17.2407L33.328 19.4467L26.286 26.1384Z" fill="url(#paint7_linear_522_2544)" fill-opacity="0.36"/>
<g id="Group_5">
<path id="Vector_9" fill-rule="evenodd" clip-rule="evenodd" d="M20.2059 32.7506V39.217H23.7847V30.4575H41.8679C38.6659 38.346 30.9536 43.9054 21.946 43.9054C18.2347 43.9054 14.7412 42.9605 11.6945 41.298L20.2078 32.7487L20.2059 32.7506Z" fill="url(#paint8_linear_522_2544)" fill-opacity="0.6"/>
<g id="Group_6">
<path id="Vector_10" d="M20.2059 39.2169H20.1112V39.3116H20.2059V39.2169ZM20.2059 32.7505H20.3006V32.5214L20.1396 32.6843L20.2059 32.7505ZM23.7847 39.2169V39.3116H23.8793V39.2169H23.7847ZM23.7847 30.4575V30.3628H23.69V30.4575H23.7847ZM41.8679 30.4575L41.955 30.4934L42.008 30.3628H41.8679V30.4575ZM11.6926 41.2998L11.6263 41.2336L11.5373 41.3226L11.649 41.3831L11.6945 41.2998H11.6926ZM20.3006 39.2188V32.7524H20.1112V39.2188H20.3006ZM23.7847 39.1242H20.2059V39.3135H23.7847V39.1242ZM23.69 30.4594V39.2188H23.8793V30.4594H23.69ZM23.7847 30.554H41.8679V30.3647H23.7847V30.554ZM41.7808 30.4234C38.594 38.2778 30.9138 43.8125 21.946 43.8125V44.0019C30.9933 44.0019 38.7398 38.4179 41.9569 30.4934L41.7808 30.4215V30.4234ZM21.946 43.8125C18.2499 43.8125 14.7733 42.8715 11.7399 41.2165L11.649 41.3831C14.7109 43.0532 18.2177 44.0019 21.946 44.0019V43.8125ZM11.7607 41.3661L20.274 32.8168L20.1396 32.6824L11.6263 41.2298L11.7607 41.3642V41.3661Z" fill="url(#paint9_linear_522_2544)"/>
</g>
</g>
<path id="Vector_11" d="M57.5425 17.4338H57.8853C59.8697 17.4338 61.5852 18.3181 63.0357 20.0867C63.9256 21.3232 64.3706 22.5918 64.3706 23.8946V24.4323C64.3706 24.8944 64.3327 25.1254 64.257 25.1254H53.1931V25.1632C53.4733 26.252 53.9562 27.0738 54.6435 27.6248C55.5335 28.4201 56.5257 28.8178 57.6202 28.8178H57.8114C59.1729 28.8178 60.3677 28.2289 61.3978 27.0492H63.687C63.0698 28.511 61.9261 29.613 60.2541 30.3572C59.4266 30.6905 58.601 30.8571 57.7735 30.8571H57.6978C55.3385 30.8571 53.4317 29.755 51.9756 27.5491C51.3658 26.4205 51.0591 25.2806 51.0591 24.1275C51.0591 21.789 52.127 19.8784 54.2629 18.3976C55.382 17.7557 56.4765 17.4357 57.5444 17.4357L57.5425 17.4338ZM53.1931 23.1258C58.2488 23.1504 61.2747 23.1637 62.2726 23.1637V23.1258C61.8844 21.7871 61.2368 20.8252 60.3279 20.2419C59.4891 19.7288 58.6749 19.4732 57.8872 19.4732H57.5047C56.1129 19.4732 54.8916 20.1662 53.8426 21.5504C53.5491 22.0124 53.3332 22.5369 53.1931 23.1277V23.1258Z" fill="#fff"/>
<path id="Vector_12" d="M67.9191 29.1245V30.7775C67.9191 30.8286 67.8945 30.8552 67.8434 30.8552H65.8211C65.7699 30.8552 65.7453 30.8286 65.7453 30.7775V26.3542C65.7453 25.6498 65.7321 24.7125 65.7075 23.5461C65.8476 22.3797 66.1278 21.4443 66.5463 20.738C68.0214 18.4052 69.9679 17.2388 72.384 17.2388H72.5374C75.0047 17.2388 76.9759 18.4431 78.4509 20.8535C78.9603 21.912 79.214 22.9118 79.214 23.8529V30.7756C79.214 30.8268 79.1894 30.8533 79.1383 30.8533H77.0781C77.027 30.8533 77.0024 30.8268 77.0024 30.7756V29.1226C77.0024 26.5265 77.0156 24.6803 77.0402 23.5859C76.8679 22.5994 76.5763 21.8419 76.1635 21.3174C75.1657 20.0601 73.9311 19.4334 72.4636 19.4334C70.6382 19.4334 69.2408 20.3442 68.2675 22.1638C68.0384 22.7717 67.9248 23.2848 67.9248 23.7014V29.1245H67.9191Z" fill="#fff"/>
<path id="Vector_13" d="M93.2129 13.4346H95.2352C95.2863 13.4403 95.3109 13.4668 95.3109 13.5122V30.7793C95.3109 30.8304 95.2863 30.857 95.2352 30.857H93.2129C93.1618 30.857 93.1372 30.8304 93.1372 30.7793V29.0486C91.7568 30.2529 90.3082 30.8551 88.7877 30.8551H88.2159C86.5553 30.8551 84.9666 30.0863 83.448 28.5487C82.3535 27.157 81.8082 25.6971 81.8082 24.1652V23.974C81.8082 21.8078 82.7493 19.9881 84.6314 18.513C85.8395 17.6666 87.0987 17.2444 88.409 17.2444H88.6381C90.2476 17.2444 91.7473 17.8465 93.1391 19.0508V13.5141C93.1447 13.463 93.1713 13.4365 93.2148 13.4365L93.2129 13.4346ZM83.98 23.9323V24.1633C83.98 25.7785 84.7564 27.085 86.3072 28.0848C87.0135 28.4692 87.6876 28.6624 88.3295 28.6624H88.712C90.0924 28.6624 91.2739 28.0223 92.2605 26.7404C92.8209 25.9205 93.0993 25.0741 93.0993 24.2031V23.8963C93.0993 22.1922 92.2093 20.8326 90.4294 19.8196C89.761 19.5639 89.1513 19.4352 88.5984 19.4352H88.4829C87.3202 19.4352 86.2769 19.8707 85.3547 20.7417C84.4383 21.7036 83.9819 22.7678 83.9819 23.9342L83.98 23.9323Z" fill="#fff"/>
<path id="Vector_14" d="M109.351 18.9714V17.3184C109.351 17.2672 109.376 17.2407 109.427 17.2407H111.45C111.501 17.2407 111.525 17.2653 111.525 17.3184V21.7416C111.525 22.446 111.538 23.3833 111.563 24.5479C111.423 25.7143 111.143 26.6497 110.724 27.356C109.249 29.6888 107.303 30.8552 104.887 30.8552H104.733C102.266 30.8552 100.295 29.6509 98.8196 27.2405C98.3103 26.1839 98.0565 25.1841 98.0565 24.2411V17.3184C98.0565 17.2672 98.0812 17.2407 98.1323 17.2407H100.192C100.244 17.2407 100.268 17.2653 100.268 17.3184V18.9714C100.268 21.5674 100.255 23.4136 100.23 24.51C100.403 25.4965 100.694 26.2539 101.107 26.7784C102.105 28.0339 103.34 28.6625 104.807 28.6625C106.632 28.6625 108.032 27.7517 109.003 25.932C109.232 25.3242 109.346 24.8111 109.346 24.3945V18.9714H109.351Z" fill="#fff"/>
<path id="Vector_15" d="M114.235 17.2407H116.257C116.322 17.2786 118.05 21.0221 121.445 28.4694C121.489 28.4239 122.47 26.1309 124.382 21.5864C125.534 18.7215 126.157 17.2729 126.251 17.2407H128.349L128.425 17.2786L122.741 30.8533H120.451C120.4 30.8022 118.302 26.2767 114.157 17.2786L114.233 17.2407H114.235Z" fill="#fff"/>
<path id="Vector_16" d="M136.972 17.2407H137.202C139.383 17.2407 141.214 18.2405 142.695 20.2401C143.458 21.4254 143.838 22.6297 143.838 23.8548V24.2392C143.838 26.4509 142.784 28.3217 140.672 29.8535C139.515 30.5201 138.41 30.8533 137.353 30.8533H136.781C135.122 30.8533 133.532 30.0845 132.013 28.547C130.919 27.1553 130.373 25.6953 130.373 24.1635V23.9722C130.373 21.806 131.315 19.9863 133.197 18.5113C134.405 17.6649 135.664 17.2426 136.974 17.2426L136.972 17.2407ZM132.547 23.9325V24.1635C132.547 25.7787 133.324 27.0852 134.874 28.085C135.581 28.4694 136.255 28.6625 136.897 28.6625H137.277C138.658 28.6625 139.839 28.0225 140.826 26.7406C141.386 25.9207 141.665 25.0743 141.665 24.2032V23.8965C141.665 22.1923 140.775 20.8328 138.995 19.8197C138.326 19.5641 137.717 19.4353 137.164 19.4353H137.05C135.886 19.4353 134.844 19.8708 133.922 20.7419C133.007 21.7038 132.549 22.7679 132.549 23.9344L132.547 23.9325Z" fill="#fff"/>
</g>
<defs>
<linearGradient id="paint0_linear_522_2544" x1="35.8896" y1="44.2942" x2="15.8843" y2="13.2456" gradientUnits="userSpaceOnUse">
<stop stop-color="#D75205"/>
<stop offset="1" stop-color="#343841"/>
</linearGradient>
<linearGradient id="paint1_linear_522_2544" x1="13.357" y1="3.96885" x2="9.7176" y2="26.1156" gradientUnits="userSpaceOnUse">
<stop stop-color="#5E6673" stop-opacity="0.45"/>
<stop offset="0.78" stop-color="#5E6673"/>
</linearGradient>
<linearGradient id="paint2_linear_522_2544" x1="26.3144" y1="21.8134" x2="8.30124" y2="18.6039" gradientUnits="userSpaceOnUse">
<stop stop-color="#E8DEFF"/>
<stop offset="1" stop-color="#E8DEFF" stop-opacity="0"/>
</linearGradient>
<linearGradient id="paint3_linear_522_2544" x1="26.5927" y1="1.35199" x2="8.82573" y2="25.966" gradientUnits="userSpaceOnUse">
<stop stop-color="#5E6673"/>
<stop offset="0.32" stop-color="#4B4F5A"/>
<stop offset="1" stop-color="#343841" stop-opacity="0.43"/>
</linearGradient>
<linearGradient id="paint4_linear_522_2544" x1="27.1457" y1="-17.1328" x2="33.1917" y2="20.2531" gradientUnits="userSpaceOnUse">
<stop stop-color="#343841" stop-opacity="0.55"/>
<stop offset="0.8" stop-color="#4B4F5A"/>
<stop offset="1" stop-color="#5E6673"/>
</linearGradient>
<linearGradient id="paint5_linear_522_2544" x1="16.3961" y1="28.0715" x2="35.6439" y2="11.2911" gradientUnits="userSpaceOnUse">
<stop stop-color="#E6E1FD"/>
<stop offset="1" stop-color="#E6E1FD" stop-opacity="0"/>
</linearGradient>
<linearGradient id="paint6_linear_522_2544" x1="30.8665" y1="12.1868" x2="33.5818" y2="24.0934" gradientUnits="userSpaceOnUse">
<stop stop-color="#5E6673"/>
<stop offset="1" stop-color="#343841"/>
</linearGradient>
<linearGradient id="paint7_linear_522_2544" x1="35.3844" y1="8.98492" x2="31.2149" y2="17.6516" gradientUnits="userSpaceOnUse">
<stop stop-color="#5E6673" stop-opacity="0.88"/>
<stop offset="1" stop-color="#343841" stop-opacity="0.13"/>
</linearGradient>
<linearGradient id="paint8_linear_522_2544" x1="28.1606" y1="44.7045" x2="25.6043" y2="28.3614" gradientUnits="userSpaceOnUse">
<stop stop-color="#343841" stop-opacity="0.54"/>
<stop offset="1" stop-color="#5E6673"/>
</linearGradient>
<linearGradient id="paint9_linear_522_2544" x1="22.1733" y1="23.4666" x2="29.7606" y2="43.8864" gradientUnits="userSpaceOnUse">
<stop stop-color="#E8DEFF"/>
<stop offset="1" stop-color="#E8DEFF" stop-opacity="0"/>
</linearGradient>
<clipPath id="clip0_522_2544">
<rect width="143.84" height="44" fill="white"/>
</clipPath>
</defs>
</svg>
