<svg width="115" height="112" viewBox="0 0 115 112" fill="none" xmlns="http://www.w3.org/2000/svg">
<g id="Air_Mobility_Command 1" clip-path="url(#clip0_527_10938)">
<path id="Vector" d="M24.974 0H90.5008C91.2862 0.682927 91.9464 1.49106 92.709 2.19675C95.0764 4.60976 97.4895 6.97724 99.8569 9.40163C100.62 10.2098 101.439 10.961 102.202 11.7805C101.029 13.2033 100.119 14.8195 99.2765 16.4585C97.2732 20.4764 95.9984 24.8244 95.361 29.2634C95.2472 30.5154 94.9626 31.7447 94.9968 33.0081C94.9285 34.2943 94.8488 35.5805 94.8943 36.878C94.8943 37.8228 95.0195 38.7675 94.9968 39.7236C94.9968 41.0211 95.1675 42.3187 95.3269 43.6049C95.3838 44.5154 95.6228 45.4033 95.7138 46.3138C96.3626 50.0016 97.1252 53.678 98.1041 57.2862C98.5935 55.6244 99.3334 54.0081 100.415 52.6309C101.314 51.5496 102.452 50.5821 103.863 50.2748C105.263 49.8992 106.88 50.1154 108.007 51.0829C108.872 51.8569 109.361 52.9724 109.634 54.0878C109.816 56.2959 110.511 58.4244 111.376 60.4618C112.081 62.1691 112.889 63.8423 113.777 65.4699C114.119 66.1528 114.585 66.7902 114.711 67.5642V68.4407C114.483 69.5106 113.641 70.3073 112.753 70.8764C111.933 71.4114 111.023 71.7756 110.101 72.0715C110.829 74.6781 110.306 77.5008 109.145 79.8911C108.109 82.0764 106.629 84.0228 104.933 85.7301C102.236 88.5642 99.0147 90.8293 95.7025 92.8667C93.6878 94.0846 91.6163 95.2 89.5106 96.2358C88.3838 96.8504 87.1659 97.2602 85.9821 97.7268C80.9057 99.7073 75.8293 101.688 70.8553 103.896C66.1317 106.081 61.5675 108.665 57.5496 112H57.5155C54.9431 109.758 52.0862 107.88 49.1155 106.218C46.361 104.624 43.4586 103.293 40.522 102.052C36.2764 100.22 31.9968 98.4894 27.7171 96.7707C26.8748 96.4634 26.1008 96.0309 25.3041 95.6439C21.2976 93.5837 17.4277 91.2276 13.9106 88.3935C12.2943 87.0618 10.7236 85.6504 9.40327 84.0228C7.83254 82.213 6.53498 80.1528 5.73823 77.8878C5.0553 75.839 4.81628 73.5854 5.4423 71.4911C4.25856 71.0472 3.06343 70.5463 2.08457 69.7154C1.4927 69.2146 1.03742 68.5317 0.88945 67.7691V66.9837C0.980507 66.1984 1.46994 65.561 1.82278 64.8894C3.50734 61.7707 5.1236 58.561 5.8862 55.078C6.04555 53.5301 6.39839 51.8569 7.57075 50.7415C8.35612 49.8992 9.53986 49.5236 10.6781 49.5805C12.1008 49.5691 13.4781 50.2179 14.4911 51.1967C16.0618 52.665 16.961 54.6911 17.5984 56.7171C18.3382 53.6439 19.0553 50.5707 19.6016 47.4634C19.8976 45.7902 20.1935 44.1171 20.3301 42.4325C20.4781 41.2715 20.4781 40.0992 20.5919 38.9268C20.6147 37.1854 20.5919 35.4325 20.6033 33.6911C20.5805 32.3594 20.3301 31.039 20.239 29.7073C19.909 27.4992 19.4651 25.2911 18.8504 23.1398C17.6553 19.1106 15.9138 15.2179 13.4212 11.826C13.5464 11.4163 13.9789 11.1659 14.2521 10.8472C17.8374 7.25041 21.3886 3.59675 24.974 0Z" fill="#FFD734" stroke="#FFD734" stroke-width="0.125"/>
<path id="Vector_2" d="M26.1805 2.52685C43.2878 2.51547 60.3952 2.52685 77.4911 2.52685C81.4634 2.52685 85.4244 2.51547 89.3968 2.53823C92.5382 5.72522 95.7252 8.87807 98.8667 12.0651C96.7155 15.2976 95.213 18.9171 94.109 22.6277C92.5155 28.0114 91.935 33.6683 92.2765 39.2683C92.3675 40.213 92.3106 41.1691 92.3675 42.1138C92.5041 44.1626 92.8114 46.1886 93.1529 48.2147C93.6537 50.9691 94.2342 53.7122 94.9399 56.4212C96.2943 60.5643 95.9756 65.2537 93.8927 69.0894C92.413 71.8781 90.1025 74.1659 87.5073 75.9187C84.8667 77.6829 81.9756 79.0146 79.0391 80.2212C74.9187 81.9171 70.7415 83.5333 66.7578 85.548C63.4456 87.2667 60.1561 89.2699 57.7431 92.1838C56.4456 90.5447 54.7951 89.2244 53.0651 88.052C49.5708 85.7415 45.7122 84.0342 41.8423 82.4293C37.9382 80.7561 33.8862 79.3561 30.1756 77.2504C26.7951 75.3838 23.6764 72.8 21.7756 69.3854C19.8521 66.0163 19.3057 61.9415 20.1025 58.1626C20.2504 57.3317 20.5464 56.5464 20.7399 55.7269C21.4797 52.6878 22.1512 49.6374 22.6293 46.5529C22.9935 44.3334 23.2098 42.0911 23.2212 39.8374C23.7334 32.9399 22.8342 25.9171 20.3643 19.4521C19.4195 16.9821 18.2927 14.5805 16.8017 12.3951C19.9204 9.10571 23.0618 5.81628 26.1805 2.52685Z" fill="#B9B6BB" stroke="#B9B6BB" stroke-width="0.125"/>
<path id="Vector_3" d="M57.2423 9.12843C62.774 8.98046 68.3399 10.1642 73.3025 12.6341C76.5122 14.2162 79.4716 16.2992 82.0098 18.8146C88.1447 24.8016 91.8553 33.2016 92.1171 41.7723C92.1057 43.252 92.174 44.7317 91.9919 46.2C91.3659 53.2455 88.4293 60.052 83.7968 65.3902C82.9773 66.2666 82.2033 67.2 81.2699 67.9626C75.0325 73.7447 66.5415 77.091 58.0277 76.9203C49.013 76.9658 40.1008 73.1073 33.8521 66.6309C30.9382 63.5918 28.5708 60.0065 26.9545 56.1138C24.735 50.8553 23.9382 45.0276 24.5415 39.3593C25.3268 32.0634 28.5366 25.0406 33.5903 19.7138C34.1707 18.9967 34.8992 18.439 35.548 17.8016C41.4553 12.4748 49.2862 9.33331 57.2423 9.12843Z" fill="#0E5EA4" stroke="#0E5EA4" stroke-width="0.125"/>
<path id="Vector_4" d="M56.6846 10.4943C61.8293 10.2439 67.0309 11.2569 71.7203 13.3968C75.4878 15.1041 78.9252 17.5399 81.7708 20.5334C87.1317 26.122 90.4098 33.6911 90.7626 41.4309C90.7854 43.0586 90.8309 44.6976 90.6374 46.3138C90.1708 50.8098 88.7708 55.2033 86.5399 59.1301C84.4911 62.761 81.7138 65.9708 78.4472 68.5659C74.6683 71.548 70.2179 73.6992 65.5285 74.7805C60.1789 76.0212 54.522 75.8618 49.2634 74.3252C44.7561 73.0391 40.5334 70.7512 36.9821 67.7008C30.1643 61.839 25.9415 53.0407 25.7138 44.0488C25.4521 36.6618 27.8537 29.2293 32.3155 23.3447C36.9935 17.1529 43.948 12.7594 51.5399 11.1659C53.2358 10.8016 54.9545 10.574 56.6846 10.4943Z" fill="white" stroke="white" stroke-width="0.125"/>
<path id="Vector_5" d="M53.9073 11.0748C59.3138 10.3577 64.9025 11.0179 69.9903 13.0212C69.4895 14.3301 68.8065 15.5707 67.987 16.7203C63.7301 13.9431 58.7561 12.1447 53.6456 12.0537C53.7366 11.7236 53.8163 11.4049 53.9073 11.0748Z" fill="#0E5EA4" stroke="#0E5EA4" stroke-width="0.125"/>
<path id="Vector_6" d="M46.3041 13.0894C48.5577 12.2016 50.8911 11.5187 53.2813 11.2C52.6781 13.3968 51.1187 15.2065 49.3545 16.6065C47.0553 18.4049 44.2667 19.6114 41.3642 19.9529C39.7138 20.0894 37.9724 20.0439 36.4813 19.2585C39.3382 16.6065 42.7073 14.5464 46.3041 13.0894Z" fill="#0E5EA4" stroke="#0E5EA4" stroke-width="0.125"/>
<path id="Vector_7" d="M51.1756 15.7414C52.0179 14.7853 52.8374 13.7837 53.361 12.6C58.4602 12.6455 63.4569 14.387 67.6911 17.1984C66.0976 19.4975 64.1057 21.4894 61.9886 23.3105C61.5447 22.8894 61.1236 22.4569 60.6911 22.0244C60.2472 21.5805 59.735 21.1935 59.2911 20.7268C59.4504 21.1024 59.5415 21.5008 59.7464 21.8536C60.3269 22.4683 60.9756 23.0374 61.5561 23.6748C61.1919 23.9707 60.8277 24.2666 60.4521 24.5512C60.509 24.7219 60.5773 24.8927 60.6456 25.052C61.0895 24.7447 61.4992 24.4032 61.9317 24.0731C62.3187 24.4146 62.683 24.7788 63.013 25.1772C63.7756 26.0195 64.5155 26.8731 65.2212 27.7496C65.3578 27.5902 65.6651 27.4309 65.4488 27.2032C64.4927 25.974 63.4114 24.8471 62.3756 23.6862C64.5269 21.8536 66.496 19.8049 68.135 17.517C69.9106 18.6666 71.5269 20.0439 73.0179 21.5463C74.5886 23.0601 75.9886 24.7447 77.2521 26.5203C78.2992 28.0114 79.2895 29.5479 80.0862 31.1756C77.7415 32.3479 75.4195 33.5658 73.0862 34.7496C72.5399 35 72.0277 35.3187 71.4586 35.5236C69.9561 33.2813 68.4878 30.9935 66.7919 28.8878C66.7578 29.1496 66.735 29.4 66.7122 29.6618C68.2488 31.6195 69.6374 33.691 70.9805 35.7853C70.0017 36.3544 68.9659 36.8211 67.9643 37.3561C67.3382 37.652 66.7578 38.0162 66.109 38.278C66.5984 38.2211 67.1447 38.3918 67.5886 38.1414C68.8065 37.5268 69.9903 36.878 71.2309 36.3089C71.5951 36.9805 71.8797 37.6975 72.187 38.3918C72.3805 38.3918 72.574 38.3918 72.7675 38.3805C72.4374 37.5951 72.0732 36.8211 71.6976 36.0585C73.6895 35.0114 75.7041 34.0325 77.6846 32.9853C78.5838 32.5414 79.4488 32.0634 80.3594 31.665C81.5431 33.9187 82.4537 36.3203 83.0797 38.7902C83.2504 38.7675 83.4325 38.7561 83.6147 38.7333C83.0342 36.3431 82.1464 34.0325 81.0537 31.8358C80.974 31.6878 80.9171 31.5398 80.8488 31.3918C82.2033 30.6748 83.5691 29.9918 84.935 29.2975C85.6065 28.9675 86.2439 28.5918 86.9269 28.3073C89.8407 33.987 91.0472 40.5545 90.2504 46.9057C90.0911 48.1577 89.8862 49.4097 89.5675 50.6276C88.7594 50.5252 87.974 50.2862 87.1659 50.1951C86.2325 50.0357 85.2878 50.0244 84.3545 49.9105C84.5252 48.5333 84.5594 47.1447 84.5252 45.7561C84.5594 44.4016 84.3773 43.0585 84.2293 41.7154C84.1838 41.7268 84.0927 41.7268 84.0472 41.7382C83.9561 42.1593 83.7626 42.5691 83.8309 43.013C84.0813 45.3122 84.07 47.6341 83.7968 49.9219C81.2358 49.8764 78.6748 50.104 76.1708 50.6049C75.9659 49.3414 75.7952 48.078 75.4878 46.8374C75.2943 46.8032 75.1122 46.7691 74.9187 46.7349C75.2033 48.0439 75.4423 49.3642 75.613 50.7073C72.2212 51.4244 68.8976 52.5171 65.7789 54.0536C65.9951 54.1333 66.2114 54.2813 66.4618 54.2813C66.8374 54.1788 67.1903 53.9626 67.5545 53.8146C70.161 52.6992 72.8813 51.8227 75.6586 51.265C75.9317 53.2 75.8748 55.1691 75.8407 57.1268C75.7155 59.5967 75.3285 62.0439 74.8732 64.4796C73.5529 64.6845 72.2553 65.0601 71.0033 65.5382C70.2293 63.9675 69.387 62.4195 68.6244 60.8374C68.3626 60.7463 68.1122 60.6439 67.8504 60.5414C68.3171 61.4065 68.7382 62.2943 69.1821 63.1593C69.6147 64.0358 70.1269 64.8666 70.4911 65.7772C69.148 66.3918 67.9301 67.2569 66.8374 68.2357C62.7513 66.574 58.9041 64.2406 55.7285 61.1675C55.922 60.9967 56.1496 60.8488 56.309 60.6553C56.3545 60.4845 56.3431 60.3138 56.3659 60.1544C56.309 60.1431 56.1838 60.1317 56.1269 60.1203C55.8537 60.3252 55.626 60.6439 55.296 60.7236C54.4878 60.0634 53.8277 59.2553 53.1106 58.5154C52.8943 58.4813 52.8716 58.7772 52.7691 58.9138C53.4407 59.7105 54.226 60.3935 54.909 61.1788C52.6781 63.1252 50.6293 65.2992 49.0017 67.7691C48.1366 67.3366 47.374 66.7447 46.5886 66.1983C42.9805 63.5236 39.9984 60.1089 37.4147 56.4553C36.9252 55.7268 36.3561 55.0439 36.0602 54.2016C39.1675 52.6423 42.2634 51.0488 45.3594 49.4666C45.5073 49.3984 45.6667 49.3301 45.826 49.2959C46.8732 51.2536 48.2049 53.052 49.4797 54.8618C49.6504 54.8049 49.8212 54.7479 50.0033 54.691C48.8764 53.0748 47.7155 51.4699 46.6911 49.7967C46.5431 49.5349 46.3838 49.2731 46.3382 48.9772C47.0439 48.6357 47.7155 48.1918 48.4667 47.9756C48.1025 47.9756 47.7496 47.8731 47.3854 47.8731C46.896 47.9984 46.509 48.4081 46.0082 48.465C45.8602 48.1691 45.7578 47.8504 45.6439 47.5431C45.4504 47.5544 45.2683 47.5658 45.0748 47.5772C45.2456 47.9756 45.3821 48.374 45.5187 48.7723C44.2212 49.4894 42.8781 50.1268 41.5577 50.8097C39.6456 51.8 37.722 52.7788 35.787 53.7463C33.7951 49.6829 32.4521 45.2894 31.974 40.7821C31.7578 40.6227 31.5529 40.4634 31.348 40.304C31.8374 45.0504 33.2033 49.7057 35.309 53.9853C33.283 55.0325 31.2569 56.0797 29.2195 57.0927C27.4667 53.439 26.374 49.4553 26.0895 45.4146C25.7935 41.5675 26.2488 37.6748 27.296 33.9642C28.5821 34.3284 29.9138 34.5447 31.2456 34.6927C31.2569 34.7154 31.2797 34.7496 31.2911 34.761C31.2228 35.626 31.2228 36.5024 31.2342 37.3675C31.4049 37.3902 31.587 37.4244 31.7691 37.4585C31.735 36.5593 31.8033 35.6488 31.8374 34.7496C34.9789 34.8975 38.1317 34.6699 41.2277 34.0553C41.4895 35.5577 41.8082 37.0374 42.1838 38.5057C42.3659 38.5057 42.548 38.5057 42.7301 38.517C42.3773 36.9918 42.0017 35.478 41.774 33.9301C44.8813 33.304 47.9204 32.3138 50.8114 30.9935C50.8 30.8 50.8 30.6065 50.8 30.413C47.8862 31.7561 44.8244 32.7577 41.6943 33.4179C41.2277 30.652 40.9886 27.8292 41.2049 25.0292C41.3415 23.4699 41.5691 21.8992 42.1269 20.4423C42.4797 20.3284 42.8553 20.2829 43.2195 20.1918C44.4147 19.9187 45.5529 19.452 46.6683 18.9512C47.9659 21.4666 49.2521 23.9935 50.5269 26.5203C50.6862 26.4634 50.8342 26.4179 51.0049 26.361C50.7545 25.7236 50.413 25.1317 50.1171 24.5284C49.1269 22.5935 48.148 20.6471 47.1578 18.7122C48.1821 18.0975 49.2293 17.4829 50.1285 16.6748C50.322 16.5154 50.5041 16.3219 50.7317 16.1967C52.7008 16.7431 54.4764 17.813 56.1496 18.9626C56.7073 19.361 57.2764 19.7593 57.7886 20.2146C57.8683 20.0439 57.9366 19.8618 58.0163 19.6797C55.9334 18.052 53.6797 16.6179 51.1756 15.7414Z" fill="#0E5EA4" stroke="#0E5EA4" stroke-width="0.125"/>
<path id="Vector_8" d="M70.5366 13.2374C77.2862 15.9919 83.0228 21.1252 86.4943 27.5334C86.5399 27.6358 86.6423 27.8293 86.4943 27.8748C84.5252 28.8878 82.5675 29.9008 80.587 30.8911C77.696 25.4277 73.6098 20.5447 68.4764 17.0618C69.2618 15.8439 70.0016 14.5805 70.5366 13.2374Z" fill="#0E5EA4" stroke="#0E5EA4" stroke-width="0.125"/>
<path id="Vector_9" d="M34.8423 20.8634C35.2293 20.465 35.5708 19.9984 36.0488 19.7138C36.2309 19.7707 36.4017 19.8504 36.5838 19.9187C36.5951 19.9642 36.6179 20.0667 36.6293 20.1236C33.4878 24.1073 31.7919 29.0927 31.3252 34.1122C30.0277 34.0211 28.7301 33.8049 27.4781 33.4179C28.9577 28.7626 31.4618 24.4032 34.8423 20.8634Z" fill="#0E5EA4" stroke="#0E5EA4" stroke-width="0.125"/>
<path id="Vector_10" d="M55.8309 26.8732C56.696 24.574 57.5951 22.2976 58.4943 20.0098C59.3025 22.2976 60.1447 24.574 60.9301 26.8732C60.3041 26.5203 59.7008 26.122 59.0748 25.7691C59.0634 30.1512 59.0748 34.5333 59.0748 38.9268C59.0748 39.4163 58.7334 39.8146 58.5512 40.2585C58.2439 39.7464 57.9708 39.2114 57.709 38.6764C57.6407 38.5512 57.6293 38.3919 57.6293 38.2553C57.6293 34.0894 57.6407 29.935 57.6293 25.7691C57.026 26.1333 56.4342 26.5203 55.8309 26.8732Z" fill="#FFD734" stroke="#FFD734" stroke-width="0.125"/>
<path id="Vector_11" d="M31.9057 34.1691C32.3724 29.1496 34.0683 24.1528 37.2894 20.226C38.6553 20.613 40.0894 20.6358 41.5008 20.5333C40.3854 23.9252 40.4423 27.5675 40.7838 31.0732C40.8748 31.8813 40.9886 32.7008 41.1252 33.5089C38.0862 34.1008 34.9903 34.3626 31.9057 34.1691Z" fill="#0E5EA4" stroke="#0E5EA4" stroke-width="0.125"/>
<path id="Vector_12" d="M53.509 29.0585C54.8065 28.3528 56.0927 27.6016 57.322 26.7821C57.3106 26.9984 57.3106 27.2146 57.3106 27.4309C56.1951 28.1252 55.0683 28.8081 53.9187 29.4341C53.7821 29.3089 53.6455 29.1837 53.509 29.0585Z" fill="white" stroke="white" stroke-width="0.125"/>
<path id="Vector_13" d="M50.8797 27.1349C52.5529 28.6032 54.1805 30.1284 55.8309 31.6309C55.1252 31.6423 54.4309 31.5284 53.7252 31.4943C57.5724 39.0634 61.4309 46.6325 65.2781 54.2016C65.8358 54.4634 66.4163 54.6683 66.9626 54.9301C67.0878 54.9756 67.1675 55.0894 67.2244 55.2032C68.2147 57.161 69.2163 59.1187 70.2179 61.0764C69.3073 60.735 68.3968 60.3821 67.4521 60.0862C67.1903 61.0081 66.9285 61.9187 66.6667 62.8406C65.5854 60.8488 64.6293 58.8 63.5594 56.8081C63.6846 56.148 63.9008 55.5106 63.9691 54.839C63.7643 54.3154 63.4683 53.826 63.2179 53.3252C59.6212 46.2683 56.0358 39.2114 52.439 32.1545C52.0634 32.7463 51.6878 33.3496 51.335 33.9642C51.1529 31.6878 51.0618 29.4114 50.8797 27.1349Z" fill="#FFD734" stroke="#FFD734" stroke-width="0.125"/>
<path id="Vector_14" d="M61.2033 31.7333C62.9447 30.2992 64.6862 28.8536 66.4277 27.4195C66.2455 29.6504 65.9496 31.8699 65.7106 34.1008C65.3464 33.4862 64.9708 32.8715 64.5951 32.2683C62.8537 35.5577 61.226 38.8927 59.496 42.1707C59.2228 41.6585 58.9724 41.1349 58.6992 40.6227C60.213 37.6065 61.7724 34.6244 63.2862 31.6081C62.5919 31.6423 61.8976 31.7219 61.2033 31.7333Z" fill="#FFD734" stroke="#FFD734" stroke-width="0.125"/>
<path id="Vector_15" d="M29.9366 37.3788C34.4553 38.4488 39.1106 38.8244 43.7431 38.7902C44.2325 39.6097 45.0293 40.1561 45.8716 40.5431C44.039 40.9756 42.161 41.2374 40.2829 41.4423C37.9724 41.6358 35.5821 41.7268 33.3285 41.078C32.4862 40.8618 31.7805 40.304 31.1659 39.7122C30.5171 39.0975 30.0163 38.2894 29.9366 37.3788Z" fill="#FFD734" stroke="#FFD734" stroke-width="0.125"/>
<path id="Vector_16" d="M80.0976 39.3935C82.3399 39.3138 84.5707 38.9382 86.7106 38.2667C87.0293 38.1415 87.3594 38.1984 87.6098 38.426C86.9155 39.9512 85.4472 41.1008 83.8081 41.4651C81.8959 42.1594 79.8244 42.1708 77.8325 42C75.5106 41.8179 73.2342 41.3512 70.9805 40.7708C71.5838 40.4748 72.187 40.1561 72.6537 39.6667C72.8472 39.4732 72.9951 39.2455 73.1886 39.0521C75.4764 39.3366 77.787 39.5642 80.0976 39.3935Z" fill="#FFD734" stroke="#FFD734" stroke-width="0.125"/>
<path id="Vector_17" d="M44.2781 38.4716C46.2813 38.4716 48.2846 38.4374 50.2878 38.3691C51.2098 38.4033 52.1773 38.2325 53.0195 38.6878C53.748 39.0407 54.1805 39.9626 53.9073 40.748C53.748 41.2943 53.1903 41.5789 52.9854 42.0911C52.8488 42.3642 52.883 42.7171 53.0764 42.9675C53.3496 43.3431 53.8163 43.5025 54.2374 43.639C54.9773 43.8781 55.7399 44.0829 56.5025 44.2423C56.0358 45.2212 55.5122 46.1659 55.0342 47.1333C54.9204 47.0195 54.8179 46.9171 54.7041 46.8033C54.6927 47.1789 54.7382 47.6 54.4309 47.8846C53.6683 47.4407 53.213 46.6553 52.735 45.9382C52.6439 46.109 52.5529 46.2911 52.439 46.439C52.2683 46.439 52.109 46.348 52.0065 46.2114C51.6195 45.7561 51.3805 45.2098 51.1187 44.6862C50.9252 44.6634 50.6748 44.7772 50.5496 44.5724C50.1057 44.0374 49.9464 43.3317 49.7301 42.6829C49.6504 42.8764 49.5708 43.0585 49.4911 43.252C49.0017 42.4781 48.8878 41.5561 48.6716 40.6797C47.0895 40.2585 45.4163 39.7122 44.2781 38.4716Z" fill="#FFD734" stroke="#FFD734" stroke-width="0.125"/>
<path id="Vector_18" d="M63.5935 39.0179C64.0374 38.6536 64.6293 38.5057 65.1984 38.5284C66.3366 38.5512 67.4748 38.5057 68.613 38.6081C69.9447 38.6537 71.2764 38.5967 72.5968 38.7333C71.4586 39.9398 69.8082 40.4406 68.2488 40.8504C67.9984 41.7154 67.9073 42.6488 67.3951 43.4114C67.3041 43.2293 67.2244 43.0471 67.1447 42.865C66.9399 43.5138 66.7578 44.1967 66.3252 44.7317C66.1886 44.9138 65.9496 44.8683 65.7561 44.8114C65.5057 45.3122 65.2667 45.8358 64.9138 46.2797C64.7886 46.4276 64.6293 46.6097 64.4017 46.5642C64.2878 46.4049 64.2082 46.2341 64.1285 46.0634C63.639 46.7577 63.1951 47.5317 62.4553 47.9756C62.2618 47.691 62.1366 47.3724 62.1252 47.0309C61.8521 46.9398 61.7838 46.6667 61.6586 46.4504C61.3285 45.7447 60.9415 45.0618 60.6228 44.3447C61.6927 44.174 62.7968 43.878 63.6504 43.1837C63.9236 42.9675 64.1512 42.5577 63.9464 42.2163C63.7301 41.7154 63.161 41.4309 63.013 40.8845C62.7968 40.2244 63.0358 39.4504 63.5935 39.0179Z" fill="#FFD734" stroke="#FFD734" stroke-width="0.125"/>
<path id="Vector_19" d="M60.6228 41.0895C61.2943 40.748 61.9772 40.4179 62.6488 40.0651C62.6488 40.2586 62.6488 40.4634 62.6602 40.6683C61.761 41.1008 60.8732 41.5675 59.9854 42.0228C60.1561 41.6927 60.2586 41.2602 60.6228 41.0895Z" fill="white" stroke="white" stroke-width="0.125"/>
<path id="Vector_20" d="M45.7236 40.8618C46.4976 40.5886 47.2374 41.0553 48 41.1463C48.0911 41.4992 48.1708 41.852 48.239 42.2163C45.8943 43.3659 43.3334 44.0715 40.7269 44.265C38.7691 44.3675 36.7203 44.3333 34.9106 43.4797C33.9659 43.0358 33.0781 42.2618 32.8391 41.2033C34.8537 41.8976 37.0049 41.8862 39.0992 41.8179C41.3301 41.6472 43.5496 41.3512 45.7236 40.8618Z" fill="#FFD734" stroke="#FFD734" stroke-width="0.125"/>
<path id="Vector_21" d="M68.8862 41.3171C69.4439 41.226 70.0017 41.1008 70.5366 40.9187C73.0635 41.6358 75.6699 42.1138 78.2992 42.3187C80.1204 42.3984 81.9756 42.3642 83.7285 41.8065C83.5691 42.8764 82.6244 43.5594 81.6797 43.9236C79.6651 44.7089 77.4342 44.652 75.3171 44.4244C72.9952 44.1171 70.7301 43.4455 68.6472 42.3756C68.7382 42.0228 68.8179 41.6699 68.8862 41.3171Z" fill="#FFD734" stroke="#FFD734" stroke-width="0.125"/>
<path id="Vector_22" d="M39.2472 44.5951C42.3772 44.5837 45.5187 43.8667 48.3187 42.4667C48.4667 42.8537 48.6602 43.2293 48.8651 43.5821C46.8732 44.9024 44.5968 45.7333 42.252 46.1659C41.0342 46.3594 39.7025 46.4276 38.5529 45.8585C38.0293 45.6195 37.7447 45.0846 37.6651 44.5268C38.1886 44.5155 38.7236 44.5724 39.2472 44.5951Z" fill="#FFD734" stroke="#FFD734" stroke-width="0.125"/>
<path id="Vector_23" d="M68.5561 42.6488C71.1512 43.935 74.0195 44.7203 76.922 44.8342C77.6846 44.9366 78.4472 44.8 79.2098 44.7773C79.1642 45.4374 78.6976 46.0065 78.0943 46.2342C76.8423 46.7122 75.4651 46.5756 74.1903 46.3138C72.0049 45.8472 69.8878 45.0049 68.0211 43.7642C68.2374 43.4114 68.3968 43.0244 68.5561 42.6488Z" fill="#FFD734" stroke="#FFD734" stroke-width="0.125"/>
<path id="Vector_24" d="M55.5464 43.6959C56.1041 43.3886 56.6846 43.1268 57.2309 42.7968C57.1968 42.8423 57.1285 42.922 57.0943 42.9561C56.9577 43.3659 56.7415 43.7301 56.3317 43.9008C56.0699 43.8325 55.8081 43.7642 55.5464 43.6959Z" fill="white" stroke="white" stroke-width="0.125"/>
<path id="Vector_25" d="M51.7561 54.1788C53.7138 50.4114 55.6033 46.6211 57.561 42.8536C57.8 43.3545 58.0732 43.8325 58.3008 44.3333C58.3691 44.4585 58.2667 44.5951 58.2212 44.7089C56.4797 48.1236 54.7269 51.5382 52.9854 54.9642C53.1334 55.5788 53.2927 56.1935 53.4065 56.8081C53.3724 57.1382 53.1447 57.4114 53.0082 57.7073C52.1203 59.4601 51.2098 61.2016 50.3447 62.9658C50.0488 62.0325 49.8212 61.0878 49.5138 60.1658C48.6033 60.4731 47.7041 60.8146 46.7935 61.1333C47.7496 59.2211 48.7512 57.3317 49.696 55.4195C49.7642 55.2943 49.8325 55.1691 49.9236 55.0666C50.5041 54.7138 51.2553 54.6341 51.7561 54.1788Z" fill="#FFD734" stroke="#FFD734" stroke-width="0.125"/>
<path id="Vector_26" d="M42.4114 46.4276C44.7675 45.961 47.0667 45.1187 49.0699 43.787C49.2179 43.8211 49.3545 43.8553 49.5025 43.8894C49.5935 44.3219 49.7529 44.7431 49.9578 45.1528C49.3204 45.6537 48.6602 46.1089 47.9545 46.4959C46.8391 47.1447 45.5301 47.3382 44.2553 47.3154C43.5496 47.3154 42.7984 47.0537 42.4114 46.4276Z" fill="#FFD734" stroke="#FFD734" stroke-width="0.125"/>
<path id="Vector_27" d="M67.361 44.0829C67.509 44.0374 67.6569 43.9919 67.8049 43.9464C69.7968 45.3122 72.0959 46.1545 74.452 46.6667C73.9626 47.452 72.9724 47.5545 72.1415 47.5317C71.3675 47.4748 70.5935 47.3724 69.8651 47.1333C68.7837 46.6894 67.8163 46.0179 66.9057 45.3008C67.122 44.9252 67.2699 44.5155 67.361 44.0829Z" fill="#FFD734" stroke="#FFD734" stroke-width="0.125"/>
<path id="Vector_28" d="M58.5171 44.7659C58.7447 45.2325 59.1203 45.6651 59.0748 46.2114C59.0748 47.6911 59.0748 49.1707 59.0748 50.6504C59.0862 51.0602 59.0748 51.4813 59.1545 51.8911C59.4846 52.3464 60.0195 52.6309 60.3155 53.1203C60.3382 55.4878 60.3268 57.8439 60.3951 60.2C59.7236 59.4943 59.0748 58.7545 58.3805 58.0602C57.7773 58.7203 57.2081 59.4033 56.6277 60.0862C56.548 57.7301 56.4 55.3854 56.3317 53.0293C56.7642 52.6423 57.1968 52.2667 57.6293 51.8797C57.6521 50.1155 57.6065 48.3399 57.6407 46.5756C57.8683 45.9382 58.2439 45.3691 58.5171 44.7659Z" fill="#FFD734" stroke="#FFD734" stroke-width="0.125"/>
<path id="Vector_29" d="M47.1008 47.2244C48.1707 46.7236 49.1838 46.1203 50.1171 45.3805C50.2992 45.4146 50.4813 45.4715 50.6634 45.5398C50.8114 45.8585 50.9707 46.1659 51.1529 46.4732C50.3561 47.0423 49.4342 47.4748 48.4667 47.6342C47.9659 47.7252 47.4651 47.5772 47.1008 47.2244Z" fill="#FFD734" stroke="#FFD734" stroke-width="0.125"/>
<path id="Vector_30" d="M66.1886 45.6878C66.3708 45.6309 66.5529 45.574 66.735 45.5284C67.6683 46.2569 68.6586 46.9057 69.7399 47.3951C69.3984 47.7821 68.8634 47.8732 68.374 47.8049C67.3952 47.6455 66.496 47.1788 65.6992 46.6097C65.8813 46.3138 66.0521 46.0179 66.1886 45.6878Z" fill="#FFD734" stroke="#FFD734" stroke-width="0.125"/>
<path id="Vector_31" d="M59.4049 46.4846C59.7122 47.0992 60.0309 47.7024 60.3269 48.3171C60.0082 48.3854 59.7008 48.4537 59.3821 48.5106C59.4049 47.839 59.3935 47.1561 59.4049 46.4846Z" fill="#FFD734" stroke="#FFD734" stroke-width="0.125"/>
<path id="Vector_32" d="M51.3464 46.678C51.7675 47.0309 52.3138 47.1333 52.8488 47.065C52.8716 47.2358 53.122 47.452 52.9285 47.5886C52.2911 48.1122 51.5399 48.4992 50.7317 48.6585C50.0943 48.7382 49.548 48.2829 49.3203 47.7138C50.0488 47.4862 50.7203 47.1106 51.3464 46.678Z" fill="#FFD734" stroke="#FFD734" stroke-width="0.125"/>
<path id="Vector_33" d="M63.9919 47.213C64.5382 47.304 65.0732 47.1561 65.5057 46.826C66.1317 47.2585 66.8033 47.6341 67.5204 47.8731C67.3155 48.3284 66.9626 48.7382 66.4391 48.7723C65.4374 48.8406 64.5838 48.2032 63.7984 47.6683C63.8667 47.5089 63.9236 47.3609 63.9919 47.213Z" fill="#FFD734" stroke="#FFD734" stroke-width="0.125"/>
<path id="Vector_34" d="M56.7415 48.2943C56.9236 47.8732 57.1285 47.4634 57.3561 47.0764C57.3789 47.5203 57.3789 47.9642 57.3789 48.4195C57.1626 48.374 56.9577 48.3284 56.7415 48.2943Z" fill="#FFD734" stroke="#FFD734" stroke-width="0.125"/>
<path id="Vector_35" d="M51.7447 48.6813C52.2342 48.3968 52.735 48.1008 53.1903 47.748C53.4634 48.0439 53.7935 48.2829 54.1691 48.4651C53.7935 48.8862 53.361 49.2732 52.8033 49.4439C52.3821 49.3187 51.9724 49.0911 51.7447 48.6813Z" fill="#FFD734" stroke="#FFD734" stroke-width="0.125"/>
<path id="Vector_36" d="M62.7171 48.5902C63.0472 48.3854 63.3545 48.1463 63.6391 47.8732C64.0943 48.2146 64.5838 48.5219 65.0846 48.8065C64.8569 49.2276 64.413 49.5463 63.9236 49.5236C63.4114 49.387 63.0358 48.9886 62.7171 48.5902Z" fill="#FFD734" stroke="#FFD734" stroke-width="0.125"/>
<path id="Vector_37" d="M55.7968 50.1382C55.9903 49.7171 56.1951 49.3187 56.4 48.9203C56.7301 49.0228 57.0488 49.1252 57.3789 49.2049C57.3675 49.6147 57.3789 50.0358 57.3789 50.4456C56.8325 50.4569 56.2976 50.3317 55.7968 50.1382Z" fill="#FFD734" stroke="#FFD734" stroke-width="0.125"/>
<path id="Vector_38" d="M59.4049 49.2845C59.826 49.2049 60.2472 49.0797 60.6342 48.9089C60.8277 49.3073 61.0667 49.6829 61.226 50.1041C60.6797 50.4228 60.0423 50.548 59.4049 50.5252C59.4049 50.1154 59.4049 49.7057 59.4049 49.2845Z" fill="#FFD734" stroke="#FFD734" stroke-width="0.125"/>
<path id="Vector_39" d="M53.9643 49.0797C54.1919 49.2049 53.7025 49.6374 53.6228 49.3642C53.6683 49.2162 53.8163 49.1138 53.9643 49.0797Z" fill="#FFD734" stroke="#FFD734" stroke-width="0.125"/>
<path id="Vector_40" d="M76.2504 51.1512C78.709 50.6732 81.213 50.4455 83.7171 50.4911C83.0797 55.4309 81.3155 60.1658 78.8683 64.4911C77.7415 64.2862 76.5919 64.3317 75.4537 64.3772C76.0455 61.361 76.4667 58.2878 76.4325 55.2033C76.4667 53.8488 76.3415 52.5057 76.2504 51.1512Z" fill="#0E5EA4" stroke="#0E5EA4" stroke-width="0.125"/>
<path id="Vector_41" d="M79.4602 64.5935C81.8959 60.2455 83.6602 55.465 84.2976 50.5138C86.0163 50.5707 87.735 50.7756 89.3968 51.2081C88.3155 55.4536 86.3122 59.4601 83.6146 62.9203C82.9545 63.7398 82.2943 64.5707 81.5317 65.2992C80.8602 65.0032 80.1659 64.787 79.4602 64.5935Z" fill="#0E5EA4" stroke="#0E5EA4" stroke-width="0.125"/>
<path id="Vector_42" d="M7.61628 52.3577C8.58376 50.5593 11.213 50.0244 12.8634 51.1967C14.9008 52.5284 16.096 54.7821 16.813 57.0357C16.961 57.5935 17.2228 58.1512 17.0976 58.7203C16.2894 63.0341 17.1317 67.6325 19.4423 71.3658C21.5252 74.7463 24.6553 77.3756 28.1041 79.3219C31.826 81.4845 35.9008 82.9528 39.8618 84.6032C43.7659 86.2081 47.6586 87.8927 51.2894 90.0553C53.6797 91.5122 55.9903 93.1853 57.7545 95.3935C59.6667 93.0601 62.1366 91.2731 64.7203 89.7707C70.787 86.2309 77.4911 84.0455 83.8651 81.1658C87.4163 79.4927 90.8764 77.478 93.5854 74.5984C95.5431 72.5268 97.0797 70.0455 97.922 67.3138C98.6163 65.0943 98.8439 62.7496 98.6618 60.439C98.6277 59.7902 98.4 59.1414 98.6049 58.5154C99.0716 56.717 99.8114 54.9756 100.95 53.5073C101.655 52.6536 102.486 51.8796 103.499 51.3902C104.558 50.9349 105.821 51.0601 106.834 51.5951C107.927 52.187 108.541 53.3935 108.667 54.6C108.781 56.1138 108.109 57.7756 106.709 58.504C105.889 57.1382 105.104 55.7609 104.296 54.3837C103.067 55.0097 102.111 56.2049 101.826 57.5707C101.564 58.8455 101.815 60.1658 102.293 61.3609C102.862 62.7837 103.67 64.0927 104.615 65.2878C105.537 66.5398 106.493 67.7577 107.381 69.0325C108.314 70.2959 109.19 71.7073 109.338 73.3122C109.611 75.7366 108.872 78.1723 107.733 80.3008C105.867 83.7154 103.021 86.4699 99.9594 88.826C96.226 91.6943 92.0829 94.0162 87.8374 96.0536C83.8423 97.6244 79.8244 99.1723 75.8521 100.811C73.1773 101.904 70.5025 103.031 67.9073 104.34C64.3334 106.172 60.8504 108.244 57.7773 110.839C57.6521 110.953 57.4813 110.998 57.3561 110.85C55.5919 109.325 53.6683 107.971 51.6764 106.741C48.7626 104.92 45.7008 103.35 42.548 101.972C37.5626 99.7756 32.4862 97.761 27.4325 95.7122C23.9724 94.0049 20.5919 92.104 17.439 89.8731C15.5268 88.5187 13.6943 87.0504 12.0439 85.3772C10.4163 83.7723 8.95937 81.9853 7.86669 79.9821C6.62603 77.7171 5.86343 75.0878 6.22766 72.4927C6.37563 71.4114 6.88782 70.4211 7.45693 69.5105C8.77725 67.6211 10.2114 65.8227 11.6 63.9788C12.6472 62.5219 13.5691 60.9057 13.8878 59.1187C14.0358 58.1284 14.0244 57.0813 13.6033 56.1593C13.1821 55.1577 12.3854 54.3723 11.4634 53.8374C10.6439 55.2032 9.83579 56.5805 9.0049 57.9463C7.08132 56.9105 6.53498 54.1788 7.61628 52.3577Z" fill="white" stroke="white" stroke-width="0.125"/>
<path id="Vector_43" d="M35.4342 54.5544C35.4683 54.5544 35.5594 54.5544 35.6049 54.5658C35.9919 55.465 36.6065 56.2504 37.1643 57.0585C39.7708 60.7235 42.8098 64.1268 46.4634 66.7788C47.1691 67.3024 47.909 67.7691 48.6374 68.2585C47.6927 69.7382 46.896 71.3203 46.361 72.9935C42.3545 71.4341 38.6895 69.0097 35.6163 66.0049C33.1464 63.5463 31.0521 60.7008 29.4927 57.5821C31.4732 56.5805 33.4537 55.5675 35.4342 54.5544Z" fill="#0E5EA4" stroke="#0E5EA4" stroke-width="0.125"/>
<path id="Vector_44" d="M11.8504 55.2032C12.3854 55.6813 12.8407 56.2959 12.9659 57.0244C13.1138 57.8211 12.6016 58.7317 11.7935 58.9366C11.1106 59.1415 10.3935 58.9138 9.73335 58.6862C10.4049 57.5024 11.1561 56.3756 11.8504 55.2032Z" fill="white" stroke="white" stroke-width="0.125"/>
<path id="Vector_45" d="M60.8277 56.774C61.7382 56.1935 62.6716 55.6699 63.6049 55.1464C63.548 55.374 63.4911 55.613 63.4455 55.8407C62.4894 56.3642 61.5789 56.922 60.6569 57.5025C60.7024 57.2634 60.5659 56.9106 60.8277 56.774Z" fill="white" stroke="white" stroke-width="0.125"/>
<path id="Vector_46" d="M102.748 57.5821C102.85 56.8309 103.363 56.2276 103.875 55.7155C104.569 56.8878 105.286 58.0488 105.969 59.2325C105.286 59.4829 104.512 59.6764 103.795 59.4146C103.055 59.1642 102.634 58.3333 102.748 57.5821Z" fill="white" stroke="white" stroke-width="0.125"/>
<path id="Vector_47" d="M6.70571 56.2845C7.01303 56.9902 7.25205 57.7415 7.76425 58.3447C8.50409 59.3008 9.69921 59.8813 10.9057 59.8471C11.6911 59.8699 12.4195 59.5057 12.9773 58.9821C12.4537 60.8829 11.3496 62.5675 10.1317 64.1041C9.20978 65.3106 8.26506 66.4943 7.38864 67.735C6.73986 68.5772 6.17075 69.4878 5.77238 70.478C4.60002 70.1252 3.39352 69.6244 2.56262 68.6797C1.86831 67.8943 1.89108 66.6878 2.40327 65.8114C4.12197 62.7724 5.70408 59.6423 6.70571 56.2845Z" fill="white" stroke="white" stroke-width="0.125"/>
<path id="Vector_48" d="M109.008 56.8536C109.873 59.7675 111.114 62.5447 112.548 65.2195C112.901 65.9252 113.402 66.5853 113.55 67.3821C113.72 68.1447 113.39 68.9528 112.844 69.4878C112.013 70.3187 110.886 70.7398 109.794 71.0813C109.429 70.1252 108.894 69.2601 108.302 68.452C107.381 67.1089 106.379 65.8227 105.4 64.5252C104.25 63.0114 103.215 61.3723 102.725 59.5171C103.192 59.9154 103.727 60.2683 104.353 60.3479C105.639 60.5414 107.005 60.0292 107.836 59.0276C108.394 58.413 108.712 57.6276 109.008 56.8536Z" fill="white" stroke="white" stroke-width="0.125"/>
<path id="Vector_49" d="M53.6911 63.0455C54.226 62.5675 54.7041 62.0098 55.3073 61.5886C55.5691 61.7707 55.7968 61.987 56.0358 62.2033C59.0634 64.9463 62.5919 67.0862 66.3594 68.6342C65.2894 69.8407 64.2423 71.1041 63.5821 72.5951C58.6651 71.9463 53.7821 70.5805 49.4683 68.0764C50.652 66.2325 52.1317 64.5821 53.6911 63.0455Z" fill="#0E5EA4" stroke="#0E5EA4" stroke-width="0.125"/>
<path id="Vector_50" d="M75.3285 64.9805C77.2862 64.7984 79.3122 64.9464 81.122 65.7659C76.3643 70.5236 70.1041 73.7903 63.4456 74.8488C63.7643 73.0391 64.7659 71.4342 65.9155 70.0342C67.2586 68.4293 68.9204 67.0521 70.8553 66.2212C72.2895 65.6065 73.7919 65.174 75.3285 64.9805Z" fill="#0E5EA4" stroke="#0E5EA4" stroke-width="0.125"/>
<path id="Vector_51" d="M46.896 73.2098C47.4082 71.548 48.2049 70 49.1382 68.5431C53.4748 71.0699 58.3805 72.4699 63.3317 73.1528C63.1155 73.7333 62.9561 74.3366 62.8537 74.9512C57.5041 75.7252 51.961 75.122 46.896 73.2098Z" fill="#0E5EA4" stroke="#0E5EA4" stroke-width="0.125"/>
<path id="Vector_52" d="M99.9366 72.857C100.369 72.2651 101.109 71.9009 101.837 72.0261C103.01 72.1854 103.954 73.0049 104.694 73.87C105.468 74.8374 106.003 76.1578 105.605 77.387C105.491 77.8309 105.263 78.2293 105.002 78.6049C104.444 79.4017 103.932 80.244 103.351 81.0293C103.215 80.9041 103.078 80.7903 102.953 80.6651C103.112 80.4033 103.272 80.1415 103.431 79.8683C103.033 79.3106 102.463 78.9009 101.985 78.4114C100.95 77.4326 99.9821 76.3968 98.8894 75.4862C98.7187 75.7025 98.5594 75.9188 98.3659 76.1122C98.1724 76.135 98.0586 75.9074 97.9106 75.8163C98.5935 74.8374 99.2195 73.8131 99.9366 72.857Z" fill="#0E5EA4" stroke="#0E5EA4" stroke-width="0.125"/>
<path id="Vector_53" d="M100.767 73.0391C101.109 72.8797 101.507 72.9139 101.837 73.0846C102.611 73.4375 103.215 74.0521 103.795 74.6553C104.421 75.27 104.99 76.044 105.093 76.9432C105.081 77.5806 104.672 78.1041 104.319 78.6049C104.239 78.7301 104.046 78.9578 103.909 78.7757C102.566 77.5692 101.302 76.2716 99.9821 75.0423C99.7886 74.8488 99.4699 74.6212 99.6179 74.3139C99.9024 73.8131 100.233 73.2895 100.767 73.0391Z" fill="white" stroke="white" stroke-width="0.125"/>
<path id="Vector_54" d="M17.4618 73.6765C17.6667 73.6082 17.7919 73.8017 17.8716 73.961C16.3805 75.4407 14.9464 76.9887 13.4553 78.4797C13.1366 78.8098 12.7838 79.1171 12.5561 79.5155C12.6358 79.6634 12.7155 79.8114 12.8065 79.9594C12.6358 80.0504 12.4651 80.1415 12.2943 80.2326C11.8277 79.5041 11.3041 78.8098 10.9057 78.0472C11.0537 77.9561 11.213 77.8878 11.3724 77.7968C11.5773 78.013 11.7025 78.3773 12.0325 78.4114C12.4764 78.0244 12.909 77.6147 13.2732 77.148C12.9773 76.5106 12.5106 75.9756 12.1577 75.361C11.6455 75.4748 11.1106 75.5317 10.6553 75.7935C10.2911 76.0212 10.5529 76.4765 10.6553 76.7724C10.4732 76.8179 10.2911 76.8748 10.1203 76.9545C9.75611 76.3171 9.31221 75.7366 8.94798 75.0992C9.09595 75.0195 9.2553 74.9399 9.41465 74.8602C9.61953 75.0082 9.82441 75.213 10.0976 75.213C10.5301 75.2244 10.9399 75.0878 11.361 74.9968C13.3984 74.5643 15.4244 74.109 17.4618 73.6765Z" fill="#0E5EA4" stroke="#0E5EA4" stroke-width="0.125"/>
<path id="Vector_55" d="M12.8293 75.2016C13.8764 74.9626 14.9122 74.7463 15.9594 74.5073C15.3789 75.0992 14.787 75.6683 14.2179 76.2716C14.0813 76.3968 13.9447 76.5333 13.774 76.613C13.4212 76.1691 13.148 75.6683 12.8293 75.2016Z" fill="white" stroke="white" stroke-width="0.125"/>
<path id="Vector_56" d="M17.6325 75.8959C17.7577 75.7707 17.8829 75.6455 18.0081 75.5203C18.7025 76.1918 19.3626 76.8975 20 77.626C19.8634 77.7398 19.7268 77.8536 19.5903 77.9674C19.3968 77.7967 19.2374 77.5918 19.0098 77.4666C18.8049 77.4666 18.6911 77.6487 18.5545 77.7739C17.7805 78.6276 16.9951 79.4699 16.2098 80.3235C15.7317 80.904 15.1626 81.4048 14.7073 81.9967C14.6277 82.3382 15.0033 82.5772 15.174 82.839C15.0488 82.9642 14.9122 83.078 14.787 83.2032C14.1041 82.5316 13.4439 81.8601 12.8179 81.143C12.9431 81.0064 13.0569 80.8699 13.1821 80.7447C13.3756 80.904 13.535 81.1089 13.7626 81.2227C14.0358 81.291 14.1838 81.0064 14.3545 80.8585C15.6065 79.4243 16.961 78.0699 18.1789 76.6129C18.0081 76.3739 17.8147 76.1349 17.6325 75.8959Z" fill="#0E5EA4" stroke="#0E5EA4" stroke-width="0.125"/>
<path id="Vector_57" d="M95.7025 77.2731C96.2829 76.7382 96.8407 76.1577 97.4212 75.6113C97.5577 75.7365 97.6829 75.8731 97.8195 75.9983C97.6943 76.226 97.4781 76.4422 97.4894 76.7268C97.5805 77.2048 97.9675 77.5349 98.2862 77.8764C99.6293 79.2422 100.927 80.6536 102.293 81.9967C102.224 82.0991 102.145 82.1902 102.054 82.2813C101.553 82.2357 101.086 82.0308 100.608 81.8943C98.7073 81.3365 96.8065 80.756 94.8943 80.2097C95.8732 81.2227 96.8862 82.2016 97.8309 83.2373C98.0927 83.5105 98.3431 83.7951 98.696 83.9544C99.026 84.1024 99.322 83.8292 99.6065 83.6699C99.7317 83.7951 99.8569 83.9203 99.9821 84.0341C99.4016 84.6373 98.7984 85.2178 98.1951 85.7983C98.0813 85.6731 97.9675 85.5593 97.8764 85.4227C97.9106 85.1268 98.2065 84.8877 98.1496 84.5804C98.013 84.1707 97.7057 83.8406 97.4098 83.5333C96.2488 82.3951 95.1561 81.1658 94.0065 80.0162C93.6537 80.0845 93.4033 80.3121 93.1529 80.5284C93.0163 80.4032 92.8797 80.2666 92.7545 80.1414C93.1756 79.7203 93.574 79.2878 94.0407 78.9121C94.3821 78.9349 94.7008 79.0829 95.0309 79.1739C96.7951 79.6861 98.5366 80.2211 100.301 80.7219C99.3789 79.7658 98.4683 78.7983 97.535 77.8536C97.3187 77.6373 97.0569 77.3983 96.7382 77.3756C96.4764 77.4325 96.2602 77.5804 96.0325 77.6943C95.9415 77.5349 95.8163 77.3983 95.7025 77.2731Z" fill="#0E5EA4" stroke="#0E5EA4" stroke-width="0.125"/>
<path id="Vector_58" d="M19.9886 78.4683C20.1138 78.309 20.2277 78.1496 20.3187 77.9789C21.1155 78.5935 21.8781 79.2423 22.6748 79.8683C23.2781 80.335 23.5968 81.1659 23.3691 81.9057C23.1073 82.8049 22.2423 83.613 21.2634 83.5106C20.9561 83.5106 20.6716 83.3626 20.3984 83.2147C20.7285 83.8521 20.5122 84.6033 20.1707 85.1838C19.909 85.7415 19.4651 86.2309 19.4423 86.8683C19.852 86.7659 20.1252 86.413 20.3984 86.1171C20.4894 86.2195 20.6033 86.3334 20.7171 86.4244C20.2732 86.8228 19.8748 87.426 19.2147 87.4829C18.7366 87.5512 18.2927 87.096 18.361 86.6179C18.4179 85.935 18.9073 85.4 19.2829 84.8423C19.6016 84.3756 20 83.8293 19.8293 83.2147C19.7041 82.896 19.3968 82.6797 19.1691 82.4293C18.5886 83.0781 18.0651 83.7838 17.5073 84.4553C17.3707 84.626 17.2 84.7854 17.1773 85.013C17.3252 85.2293 17.5301 85.4114 17.7122 85.5935C17.5756 85.7415 17.439 85.8895 17.3025 86.0374C16.6309 85.4342 15.9138 84.8878 15.2195 84.3187C15.3333 84.1708 15.4472 84.0228 15.5838 83.8976C15.8342 84 16.0504 84.1708 16.2781 84.3073C16.4829 84.1252 16.6878 83.9204 16.8699 83.7041C17.9057 82.4293 18.9301 81.1431 19.9659 79.8683C20.1594 79.6293 20.3756 79.3903 20.5236 79.1171C20.5236 78.7984 20.1707 78.6618 19.9886 78.4683Z" fill="#0E5EA4" stroke="#0E5EA4" stroke-width="0.125"/>
<path id="Vector_59" d="M20.0456 81.3138C20.5122 80.7675 20.9106 80.1528 21.4569 79.6862C21.8325 80.0049 22.2764 80.278 22.5382 80.7105C22.7317 81.2797 22.3106 81.8146 21.9691 82.2244C21.6618 82.6 21.1838 82.9528 20.6716 82.7707C20.2618 82.5886 19.8293 82.3268 19.5789 81.9512C19.6813 81.7008 19.8862 81.5187 20.0456 81.3138Z" fill="white" stroke="white" stroke-width="0.125"/>
<path id="Vector_60" d="M91.2065 81.439C91.1155 81.2227 91.3545 81.1089 91.4683 80.9609C92.7431 82.0309 94.0407 83.078 95.3269 84.1366C95.987 84.6374 96.5789 85.2179 97.2846 85.6731C97.4553 85.5821 97.626 85.491 97.7968 85.4C97.8878 85.5479 97.9903 85.6959 98.0927 85.8552C97.3415 86.3788 96.5789 86.891 95.7935 87.3805C95.7138 87.2211 95.6228 87.0618 95.5431 86.891C95.7708 86.7203 95.9984 86.5496 96.226 86.3788C95.9187 85.9122 95.4407 85.6048 95.0195 85.252C94.8147 85.0357 94.5756 85.3203 94.3821 85.4113C93.9382 85.7642 93.3919 86.0032 92.9935 86.4016C93.096 86.8796 93.1756 87.4146 93.4829 87.813C93.7561 88.0975 94.109 87.7902 94.3821 87.6764C94.4846 87.8244 94.5756 87.9723 94.6781 88.1203C94.0407 88.5756 93.3805 88.9967 92.7203 89.4292C92.6293 89.2926 92.5382 89.1561 92.4358 89.0081C92.7431 88.7122 92.9138 88.291 92.7773 87.8699C92.2651 85.73 91.7301 83.5902 91.2065 81.439Z" fill="#0E5EA4" stroke="#0E5EA4" stroke-width="0.125"/>
<path id="Vector_61" d="M25.8618 82.4065C26.5334 82.691 27.1707 83.0439 27.8309 83.3512C27.4894 85.2748 27.1252 87.2097 26.761 89.1333C28.0586 87.6764 29.322 86.1854 30.5968 84.7057C31.2342 85.0016 31.8602 85.3431 32.5203 85.6276C32.4634 85.7984 32.3951 85.9805 32.3041 86.1512C32.0537 86.0829 31.8147 85.9577 31.5642 85.8894C31.3138 86.0374 31.2228 86.3219 31.0862 86.5496C30.3805 88.052 29.6407 89.5431 28.9008 91.0341C28.7984 91.2618 28.6732 91.478 28.6732 91.7284C28.8098 91.9561 29.1057 92.0471 29.322 92.1951C29.2537 92.3658 29.1854 92.5366 29.1171 92.7073C28.2521 92.3431 27.4325 91.8764 26.5789 91.4894C26.6586 91.3187 26.7268 91.148 26.7838 90.9772C27.0683 91.0683 27.3529 91.1707 27.6374 91.2618C28.6618 89.4179 29.4927 87.4602 30.4716 85.5935C28.9919 87.3691 27.4553 89.1106 25.9529 90.8748C25.8504 91.0911 25.6114 91 25.4179 90.9886C25.8618 88.6097 26.3057 86.2309 26.7496 83.852C26.0325 85.2748 25.361 86.7203 24.6439 88.1545C24.4732 88.5187 24.2342 88.9057 24.2683 89.3382C24.2911 89.6455 24.587 89.8163 24.7919 89.9984C24.7236 90.1691 24.6553 90.3284 24.587 90.4992C23.8699 90.1577 23.1301 89.8276 22.4244 89.4293C22.4813 89.2699 22.5496 89.1219 22.6065 88.9626C22.8683 88.9967 23.1642 89.1219 23.4147 88.974C23.7334 88.826 23.9041 88.4845 24.0748 88.1886C24.6667 86.9935 25.2586 85.7984 25.8277 84.5919C26.0098 84.2049 26.2374 83.8293 26.3512 83.4195C26.1919 83.1463 25.8618 83.0439 25.6114 82.8845C25.6911 82.7252 25.7707 82.5658 25.8618 82.4065Z" fill="#0E5EA4" stroke="#0E5EA4" stroke-width="0.125"/>
<path id="Vector_62" d="M92.0716 82.7821C92.8114 83.4309 93.5854 84.0341 94.348 84.6715C93.8472 85.0358 93.3236 85.3658 92.8114 85.7073C92.5382 84.7398 92.322 83.761 92.0716 82.7821Z" fill="white" stroke="white" stroke-width="0.125"/>
<path id="Vector_63" d="M87.2 83.8292C87.826 83.4878 88.4634 83.1805 89.1122 82.8845C89.1805 83.0666 89.2602 83.2374 89.3285 83.4195C89.0781 83.6016 88.509 83.6927 88.6911 84.1024C89.0098 84.8309 89.4081 85.5138 89.7382 86.2309C90.2959 87.3122 90.7854 88.4162 91.3659 89.4748C91.5707 89.8731 92.0374 89.5089 92.322 89.4065C92.4016 89.5772 92.4813 89.7479 92.561 89.93C91.7301 90.3512 90.8992 90.7496 90.0569 91.1593C89.9773 91 89.8976 90.8406 89.8179 90.6926C90.0569 90.5219 90.3073 90.3626 90.5464 90.1805C89.7268 88.3366 88.748 86.5609 87.8716 84.7398C87.8602 84.717 87.8374 84.6829 87.826 84.6601C88.2927 86.9707 88.7821 89.2813 89.2716 91.5918C89.1236 91.6032 88.9187 91.7853 88.8049 91.6146C87.2342 89.8618 85.6634 88.1089 84.0927 86.3674C84.8894 87.904 85.6407 89.4634 86.426 91.0113C86.5854 91.3187 86.8016 91.6374 87.1545 91.7739C87.3935 91.8195 87.6325 91.7284 87.8716 91.6943C87.9285 91.8422 87.9968 92.0016 88.0423 92.1723C87.348 92.5593 86.6195 92.9008 85.8911 93.2309C85.8342 93.0829 85.7545 92.9235 85.709 92.7642C85.8911 92.5252 86.1984 92.3089 86.1984 91.9674C86.1529 91.4666 85.8797 91.0341 85.6634 90.5788C84.9464 89.2016 84.309 87.7674 83.535 86.413C83.239 86.4699 82.9659 86.5837 82.6813 86.6975C82.5789 86.5382 82.4992 86.3674 82.4195 86.2081C83.0911 85.8894 83.7399 85.5366 84.4114 85.2406C85.709 86.6861 87.0293 88.1089 88.3041 89.5886C88.0195 87.7447 87.5529 85.9463 87.2114 84.1138C87.2114 84.0455 87.2114 83.8975 87.2 83.8292Z" fill="#0E5EA4" stroke="#0E5EA4" stroke-width="0.125"/>
<path id="Vector_64" d="M80.2456 87.0731C80.9285 86.8227 81.5773 86.504 82.2602 86.265C82.3171 86.4244 82.374 86.5951 82.4423 86.7658C82.2033 86.9024 81.9529 87.0162 81.7366 87.187C81.7366 87.4829 81.8732 87.7675 81.987 88.0406C82.7382 89.7479 83.4212 91.4894 84.1952 93.1967C84.5025 93.1512 84.7984 93.0715 85.0943 92.9918C85.1399 93.1626 85.2082 93.3333 85.1968 93.5154C84.3431 93.8796 83.5008 94.278 82.613 94.5626C82.5789 94.3805 82.5334 94.2097 82.4992 94.0276C82.7269 93.9252 82.9545 93.8114 83.1821 93.7089C83.1594 93.2081 82.8976 92.7756 82.7269 92.3317C82.0895 90.8292 81.4521 89.3268 80.826 87.8244C81.1789 90.2032 81.5204 92.5821 81.8618 94.9609C81.7366 94.9951 81.6114 95.0179 81.4748 95.0406C79.9838 93.1626 78.5269 91.2504 76.9789 89.3951L77.3431 89.4862C77.2179 89.4406 77.0927 89.3837 76.9561 89.3723C77.3431 90.0097 77.5821 90.7154 77.8781 91.387C78.2537 92.2862 78.6407 93.1853 79.0163 94.0959C79.1756 94.426 79.3464 94.813 79.6992 94.9837C79.9496 95.0634 80.2114 94.9837 80.4618 94.9837C80.5187 95.1431 80.5643 95.3024 80.6212 95.4731C79.8699 95.7691 79.1415 96.0992 78.3903 96.3951C78.3334 96.2244 78.2878 96.0536 78.2309 95.8829C78.4927 95.6666 78.8 95.4162 78.7773 95.0406C78.7317 94.6764 78.5838 94.3349 78.4472 93.9935C77.9122 92.7301 77.3773 91.478 76.8537 90.2146C76.7285 89.9187 76.5805 89.6455 76.3984 89.3837C76.1138 89.4748 75.8407 89.5658 75.5675 89.6683C75.5106 89.4861 75.4423 89.3154 75.3854 89.1447C76.0797 88.8829 76.7399 88.5073 77.4683 88.3252C78.6407 89.8731 79.8699 91.3756 81.0764 92.9008C80.8033 90.9544 80.496 89.0195 80.2456 87.0731Z" fill="#0E5EA4" stroke="#0E5EA4" stroke-width="0.125"/>
<path id="Vector_65" d="M33.5106 86.6065C34.148 86.4471 34.8878 86.4699 35.4455 86.8682C36.0602 87.2666 36.3903 87.9837 36.5155 88.6894C36.8228 90.6585 35.9008 92.7869 34.2277 93.8796C33.522 94.3463 32.5886 94.517 31.7919 94.1642C31.1203 93.8341 30.6537 93.1512 30.4943 92.4341C30.1984 91.0682 30.4943 89.5886 31.2797 88.4276C31.826 87.6308 32.5659 86.9138 33.5106 86.6065Z" fill="#0E5EA4" stroke="#0E5EA4" stroke-width="0.125"/>
<path id="Vector_66" d="M33.852 87.1642C34.2732 87.0276 34.7512 87.0846 35.1041 87.3463C35.6049 87.6878 35.7529 88.3366 35.6959 88.9057C35.6049 89.8049 35.2862 90.6699 34.8992 91.4894C34.5919 92.1382 34.239 92.7756 33.7268 93.2764C33.3512 93.6179 32.8277 93.9024 32.3155 93.7317C31.7122 93.5837 31.2911 93.0374 31.2455 92.4341C31.1886 91.3415 31.6211 90.3057 32.0537 89.3268C32.4748 88.4845 32.9642 87.574 33.852 87.1642Z" fill="white" stroke="white" stroke-width="0.125"/>
<path id="Vector_67" d="M37.4829 87.6764C38.4618 88.0406 39.4293 88.4618 40.4082 88.8487C41.0342 89.0764 41.5805 89.5886 41.7399 90.2488C41.9334 91.0455 41.7057 92.0016 41.0114 92.4796C40.7382 92.6845 40.3854 92.6845 40.0553 92.7073C40.6358 93.1057 41.1025 93.7431 41.0911 94.4715C41.0683 95.1658 40.7951 95.917 40.2033 96.3268C39.5886 96.7138 38.826 96.5544 38.2 96.3154C37.2553 95.9398 36.322 95.5528 35.3773 95.1772C35.4114 94.9951 35.4456 94.813 35.4797 94.6309C35.7415 94.7105 36.0033 94.7902 36.2878 94.8016C36.4586 94.7333 36.4699 94.517 36.5382 94.3691C37.0163 92.6618 37.4829 90.9431 37.9838 89.2357C38.0407 89.0195 38.0976 88.8032 38.0521 88.587C37.8244 88.4276 37.5512 88.3252 37.3008 88.2114C37.3691 88.0292 37.4033 87.8471 37.4829 87.6764Z" fill="#0E5EA4" stroke="#0E5EA4" stroke-width="0.125"/>
<path id="Vector_68" d="M39.1903 89.0651C39.5886 89.0196 39.987 89.2927 40.3399 89.4976C40.8293 89.7935 40.8862 90.4423 40.7724 90.9431C40.6699 91.3984 40.4878 91.9334 40.0439 92.1383C39.4521 92.2748 38.8716 91.9903 38.348 91.7399C38.4504 91.0456 38.7122 90.3854 38.8829 89.7025C38.9626 89.4862 38.9854 89.2017 39.1903 89.0651Z" fill="white" stroke="white" stroke-width="0.125"/>
<path id="Vector_69" d="M42.2634 89.7366C43.1285 90.2601 44.0163 90.7496 44.8927 91.2618C44.8586 91.4325 44.813 91.6146 44.7789 91.7854C44.5057 91.6601 44.2325 91.5236 43.9594 91.4097C43.8683 91.6374 43.7886 91.8536 43.7317 92.0927C43.413 93.6179 43.0716 95.1317 42.7301 96.6455C42.6732 96.9414 42.5594 97.2374 42.5821 97.5561C42.7643 97.8179 43.0602 97.9545 43.322 98.1138C43.2992 98.3073 43.2765 98.5008 43.2537 98.6943C42.3659 98.2162 41.5008 97.6927 40.6244 97.2032C40.6472 97.0211 40.6813 96.839 40.7041 96.6455C40.9659 96.7707 41.2277 96.9415 41.5236 96.9642C41.6488 96.8618 41.6716 96.6797 41.7171 96.5203C42.1269 94.6992 42.5252 92.8667 42.9236 91.0455C42.8895 90.9317 42.8439 90.8293 42.8098 90.7154C42.5821 90.5788 42.3545 90.4423 42.1269 90.3057C42.1724 90.1122 42.2179 89.9301 42.2634 89.7366Z" fill="#0E5EA4" stroke="#0E5EA4" stroke-width="0.125"/>
<path id="Vector_70" d="M73.4163 89.8276C74.2358 89.6341 75.0781 90.0325 75.6586 90.613C76.5919 91.6032 77.0699 93.0032 77.0244 94.3691C77.0244 95.3365 76.7968 96.3609 76.1708 97.1349C75.7496 97.6585 75.1008 98 74.4179 97.9772C73.587 97.9658 72.8358 97.4422 72.335 96.7935C71.2992 95.439 71.0488 93.5951 71.4586 91.9674C71.709 91 72.3805 90.0325 73.4163 89.8276Z" fill="#0E5EA4" stroke="#0E5EA4" stroke-width="0.125"/>
<path id="Vector_71" d="M73.3366 90.4537C74.0309 90.1919 74.6797 90.7155 74.9984 91.296C75.5789 92.2976 75.8862 93.4358 76.0569 94.574C76.1366 95.3138 76.1708 96.1447 75.7155 96.7821C75.3512 97.2829 74.6114 97.5789 74.0423 97.2374C73.3821 96.839 73.0748 96.0878 72.8016 95.4049C72.4374 94.3122 72.1073 93.1399 72.2212 91.9675C72.2895 91.3187 72.6651 90.6358 73.3366 90.4537Z" fill="white" stroke="white" stroke-width="0.125"/>
<path id="Vector_72" d="M45.2797 91.8765C45.3138 91.683 45.3366 91.5008 45.3707 91.3187C46.2586 91.7399 47.135 92.1724 48.0114 92.6049C47.9431 92.787 47.8862 92.9691 47.8634 93.1626C47.5903 93.0602 47.3171 92.8553 47.0098 92.9008C46.8277 93.2878 46.7708 93.7317 46.6569 94.1415C46.3041 95.5529 45.974 96.9756 45.6212 98.387C45.5529 98.6374 45.5415 98.8992 45.5415 99.161C46.1106 99.4911 46.748 99.9691 47.4423 99.8439C48.1252 99.5252 48.3301 98.7285 48.6488 98.1252C48.7854 98.1935 48.9106 98.2618 49.0358 98.3301C48.7626 99.2748 48.4553 100.208 48.1594 101.141C46.6342 100.39 45.109 99.6504 43.6065 98.8651C43.6065 98.683 43.6293 98.5008 43.6407 98.3187C43.9138 98.4098 44.1756 98.5464 44.4602 98.5464C44.6195 98.296 44.6878 98.0114 44.7561 97.7269C45.1431 96.0992 45.5529 94.483 45.9399 92.8553C45.974 92.6732 46.0423 92.4911 45.974 92.3204C45.7691 92.1269 45.5187 92.013 45.2797 91.8765Z" fill="#0E5EA4" stroke="#0E5EA4" stroke-width="0.125"/>
<path id="Vector_73" d="M68.8748 91.6943C68.9886 91.6715 69.1138 91.6487 69.2277 91.626C69.5805 92.6162 69.9789 93.5951 70.2976 94.5967C70.161 94.6422 70.0244 94.6764 69.8764 94.7219C69.5008 94.0618 69.0797 93.3561 68.3854 92.9805C67.8959 92.7187 67.2472 92.9235 66.9171 93.3447C66.6098 93.7658 66.4732 94.3008 66.496 94.813C66.5073 95.6097 66.735 96.3837 66.974 97.1463C67.2244 97.8861 67.5203 98.6487 68.0439 99.252C68.374 99.6162 68.909 99.878 69.3984 99.6845C69.9334 99.5252 70.3772 99.104 70.548 98.5691C70.7984 97.9089 70.7073 97.1804 70.6049 96.4975C70.7529 96.4748 70.9008 96.452 71.0602 96.4292C71.2081 97.2146 71.2764 98.0455 71.0033 98.8081C70.6959 99.7073 69.7968 100.39 68.8407 100.367C68.0667 100.413 67.361 99.9691 66.8716 99.4113C65.8927 98.239 65.4943 96.6569 65.6081 95.1544C65.7447 94.1414 66.109 92.9804 67.0878 92.491C67.6114 92.1951 68.2374 92.2178 68.7724 92.4683C68.7951 92.2065 68.8407 91.9447 68.8748 91.6943Z" fill="#0E5EA4" stroke="#0E5EA4" stroke-width="0.125"/>
<path id="Vector_74" d="M38.1431 92.3203C38.7691 92.5138 39.452 92.7301 39.8618 93.2764C40.2602 93.8341 40.0667 94.5626 39.8277 95.1431C39.6455 95.5415 39.2586 95.974 38.7805 95.8602C38.2911 95.735 37.7789 95.6211 37.4033 95.2797C37.3691 95.0406 37.4602 94.8016 37.5171 94.574C37.722 93.8228 37.9382 93.0715 38.1431 92.3203Z" fill="white" stroke="white" stroke-width="0.125"/>
<path id="Vector_75" d="M49.2521 93.7772C50.2081 94.2211 51.096 94.8016 52.0407 95.2797C52.0179 95.4618 51.9951 95.6439 51.9724 95.826C51.6878 95.678 51.3919 95.5187 51.0618 95.5073C50.8569 97.4878 50.6521 99.4569 50.4586 101.426C50.3903 101.915 50.9708 102.075 51.3008 102.302C51.2781 102.496 51.2553 102.689 51.2325 102.872C50.3334 102.359 49.4114 101.893 48.535 101.358C48.5122 101.176 48.5236 100.993 48.5236 100.823C48.8195 100.937 49.1155 101.05 49.4114 101.164C49.696 99.4797 49.7756 97.7723 49.9805 96.0764C50.026 95.6553 50.1285 95.2228 50.0033 94.8016C49.7415 94.6536 49.4797 94.4943 49.2293 94.3463C49.2293 94.1528 49.2407 93.9593 49.2521 93.7772Z" fill="#0E5EA4" stroke="#0E5EA4" stroke-width="0.125"/>
<path id="Vector_76" d="M61.374 96.5545C62.0683 96.0423 62.7968 95.587 63.5252 95.1204C63.5252 95.3139 63.5252 95.5187 63.5366 95.7122C62.8082 96.27 62.6147 97.1919 62.387 98.0228C62.0683 99.1155 61.7724 100.208 61.4537 101.289C61.3057 101.779 61.3626 102.291 61.3626 102.781C61.3968 103.315 61.3512 103.85 61.4764 104.374C61.7382 104.237 62 104.089 62.2618 103.93C62.2618 104.124 62.2732 104.328 62.2732 104.522C61.3854 105.125 60.509 105.728 59.5984 106.298C59.5984 106.081 59.587 105.865 59.5984 105.66C59.9512 105.421 60.4407 105.205 60.4862 104.727C60.5203 104.078 60.4634 103.429 60.4748 102.781C60.5203 102.143 60.0309 101.665 59.7691 101.13C59.348 100.481 59.0521 99.7529 58.5512 99.1724C58.3464 99.2179 58.1642 99.309 57.9707 99.3887C57.9707 99.1838 57.9707 98.9903 57.9707 98.7968C58.813 98.2618 59.6098 97.6813 60.4634 97.1691C60.4634 97.374 60.4634 97.5789 60.4634 97.7952C60.2358 97.9431 59.9854 98.0797 59.7919 98.2732C59.6553 98.4895 59.8033 98.7399 59.9171 98.9334C60.3155 99.6163 60.7025 100.299 61.1008 100.982C61.4081 99.9122 61.7041 98.8309 62.0114 97.7724C62.1025 97.4651 62.0911 97.1578 62.0683 96.8504C61.8293 96.9529 61.5789 97.0667 61.3399 97.1691C61.3512 96.9643 61.3285 96.7594 61.374 96.5545Z" fill="#0E5EA4" stroke="#0E5EA4" stroke-width="0.125"/>
<path id="Vector_77" d="M52.6667 95.8488C54.2374 96.9073 55.7398 98.0455 57.2651 99.161C57.2651 100.254 57.3789 101.346 57.4016 102.439C57.2878 102.405 57.174 102.359 57.0602 102.325C56.8781 101.244 56.8098 100.094 56.1837 99.1496C56.013 98.865 55.7398 98.6601 55.4553 98.5122C55.4211 100.686 55.4325 102.872 55.4667 105.046C55.4781 105.569 55.9903 105.842 56.3659 106.115C56.3659 106.32 56.3659 106.525 56.3545 106.73C55.4439 106.093 54.5675 105.421 53.6455 104.795C53.6455 104.579 53.6455 104.363 53.6569 104.158C53.9415 104.351 54.2374 104.533 54.5447 104.704C54.5675 102.587 54.522 100.447 54.4992 98.3187C54.5447 97.852 54.1805 97.3626 53.7025 97.3284C53.4862 97.2829 53.3496 97.4992 53.2699 97.6585C53.0423 98.1479 52.9968 98.6829 52.9171 99.2065C52.7919 99.1154 52.6667 99.0244 52.5415 98.9447C52.587 97.9089 52.6211 96.8731 52.6667 95.8488Z" fill="#0E5EA4" stroke="#0E5EA4" stroke-width="0.125"/>
</g>
<defs>
<clipPath id="clip0_527_10938">
<rect width="113.821" height="112" fill="white" transform="translate(0.88945)"/>
</clipPath>
</defs>
</svg>
