<svg width="115" height="112" viewBox="0 0 115 112" fill="none" xmlns="http://www.w3.org/2000/svg">
<g id="Air_Force_Materiel_Command_shield 1" clip-path="url(#clip0_527_10868)">
<path id="Vector" d="M57.1457 95.3966C51.3293 87.8519 35.7075 83.6541 28.7424 79.733C28.6484 79.6808 28.5596 79.6233 28.4656 79.5763C12.1598 70.8256 16.979 56.979 16.979 56.979C16.979 56.979 15.3761 50.0087 10.3742 49.6014C5.96748 49.2516 5.41404 53.9872 5.41404 53.9872C5.41404 53.9872 5.45058 57.4698 0.714955 65.7871C-1.49361 69.6561 4.89192 71.473 4.89192 71.473C4.89192 71.473 -0.277075 83.1372 25.6723 96.1223C25.8707 96.2215 26.0691 96.3416 26.2832 96.4251C41.3202 102.435 44.2702 103.985 44.2702 103.985C44.2702 103.985 51.7365 107.395 56.9473 112C62.2103 107.452 69.7236 104.126 69.7236 104.126C69.7236 104.126 72.6944 102.602 87.7994 96.7697C88.0134 96.6862 88.2119 96.5713 88.4155 96.4721C114.521 83.7846 109.473 72.063 109.473 72.063C109.473 72.063 115.869 70.3139 113.702 66.4189C109.05 58.065 109.123 54.5668 109.123 54.5668C109.123 54.5668 108.627 49.8259 104.21 50.1288C99.2129 50.4681 97.516 57.4123 97.516 57.4123C97.516 57.4123 102.184 71.3164 85.7788 79.8635L85.4968 80.0201C78.49 83.8682 63.0457 87.8885 57.1561 95.3652" fill="#FECC36"/>
<path id="Vector_2" d="M96.7485 59.2084C97.3855 63.2288 97.0043 73.196 85.69 78.9185C85.5908 78.9655 85.502 79.0229 85.4081 79.0751C78.4012 82.9231 63.2284 86.5728 57.3232 94.0495C51.5016 86.5049 36.4384 83.085 29.4838 79.1743L29.2018 79.0125C16.2271 72.0526 16.8224 62.409 17.5272 58.5401L16.5613 58.5976C16.5613 58.5976 15.5902 52.7341 11.4863 50.8127C11.1746 50.7141 10.855 50.6425 10.5308 50.5987C8.48775 50.3951 6.6666 51.8867 6.46349 53.9298C6.45618 54.0045 6.45096 54.0797 6.44783 54.1543L6.4165 54.431C6.59402 57.2818 8.37968 57.9136 8.37968 57.9136L10.8128 53.8463C10.8128 53.8463 16.5247 56.4569 10.8128 64.1895L8.40056 67.3535L7.06915 69.1862C6.54808 69.9062 6.12986 70.6951 5.82651 71.5305C5.27306 73.2326 2.99662 83.8003 26.278 95.454C26.4764 95.5532 26.6695 95.6681 26.8784 95.7516C41.6178 101.636 44.5104 103.161 44.5104 103.161C44.5104 103.161 51.8201 106.502 56.9368 110.992C62.0954 106.533 69.4677 103.275 69.4677 103.275C69.4677 103.275 72.3812 101.782 87.1833 96.0649C87.3921 95.9814 87.5905 95.8665 87.7889 95.7725C111.201 84.3851 109.044 73.7965 108.512 72.0891C108.216 71.2506 107.806 70.4565 107.295 69.7292L105.985 67.8809L103.573 64.7429C97.9807 56.9477 103.719 54.3997 103.719 54.3997L106.11 58.4984C106.11 58.4984 107.901 57.8875 108.11 55.0367L108.079 54.76C108.026 52.7106 106.322 51.0916 104.272 51.1443C104.196 51.1464 104.119 51.1506 104.043 51.1573C103.717 51.2002 103.396 51.268 103.082 51.361C98.9519 53.2563 97.9181 59.0883 97.9181 59.0883L96.7485 59.2084Z" fill="white"/>
<path id="Vector_3" d="M57.1457 95.3966C51.2405 87.9198 35.8171 83.9099 28.8102 80.0515L28.5283 79.8948C12.1233 71.3321 16.7858 57.4437 16.7858 57.4437C20.0073 44.7248 19.835 40.433 19.835 40.433C21.3648 21.929 12.7237 11.779 12.7237 11.779L24.3722 0H89.9349L101.583 11.779C101.583 11.779 92.9423 21.929 94.4669 40.4173C94.4669 40.4173 94.2946 44.7091 97.5108 57.428C97.5108 57.428 102.179 71.3321 85.7736 79.8792L85.4916 80.0358C78.4848 83.8995 63.0561 87.9198 57.1457 95.3966Z" fill="#FECC36"/>
<path id="Vector_4" d="M57.1457 92.1907C51.5956 85.163 37.0963 81.3829 30.5176 77.7646C30.4288 77.7123 30.3453 77.6601 30.2565 77.6184C14.8331 69.5673 19.9499 56.4986 19.9499 56.4986C22.9155 44.5473 22.5605 40.339 22.5605 40.339C23.9754 22.9733 16.1802 12.4003 16.1802 12.4003L25.5783 2.5166H88.7549L98.2679 12.0714C98.2679 12.0714 90.3317 22.9211 91.7414 40.292C91.7414 40.292 91.3603 44.5473 94.3259 56.4777C94.3259 56.4777 99.4583 69.5307 84.0401 77.5975C83.9514 77.6392 83.8678 77.6915 83.7739 77.7437C77.2004 81.3829 62.6959 85.163 57.1457 92.1907Z" fill="#0F1693"/>
<path id="Vector_5" d="M105.364 59.2032L103.275 55.7572C103.275 55.7572 101.531 57.2139 102.367 58.6967C103.202 60.1796 105.27 59.2502 105.27 59.2502L105.364 59.2032Z" fill="white"/>
<path id="Vector_6" d="M109.222 71.071C108.929 70.3254 108.55 69.6159 108.094 68.9564L106.784 67.1133L104.377 63.918C103.367 62.5913 102.61 61.0907 102.142 59.4904C102.142 59.4904 103.186 60.9053 105.484 60.2266C107.781 59.5478 108.329 57.0939 108.329 57.0939L108.449 56.885C108.93 58.7229 110.016 61.8034 112.569 66.3615C114.213 69.3219 110.757 70.6585 109.123 71.1076" fill="white"/>
<path id="Vector_7" d="M9.11066 58.6498L11.1991 55.2351C11.1991 55.2351 12.9274 56.7075 12.0763 58.1851C11.2252 59.6627 9.16809 58.7072 9.16809 58.7072L9.11066 58.6498Z" fill="white"/>
<path id="Vector_8" d="M5.12165 70.4862C5.42343 69.7474 5.81085 69.0462 6.27554 68.3978L7.60694 66.5703L10.0505 63.4011C11.0759 62.0874 11.8497 60.5952 12.3321 58.9996C12.3321 58.9996 11.2879 60.3989 8.98534 59.694C6.68279 58.9891 6.17633 56.5195 6.17633 56.5195L6.05624 56.3107C5.53412 58.1433 4.41679 61.2082 1.83229 65.7402C0.151065 68.6849 3.59184 70.0581 5.22085 70.5228" fill="white"/>
<path id="Vector_9" d="M51.8926 74.2909L51.4436 75.873C38.5159 71.5394 29.478 62.8565 28.9611 60.2877C28.439 57.7188 29.7548 54.1632 29.7548 54.1632C29.7548 54.1632 26.0059 49.2971 25.7605 47.6994C25.3898 45.2715 28.58 41.7524 28.58 41.7524C27.6193 39.8676 27.0763 37.4867 27.0763 37.4867C28.2197 34.5628 31.3942 31.7747 31.3942 31.7747L31.0392 29.7228C33.3626 25.598 36.0672 24.3136 36.0672 24.3136C35.6286 21.7134 35.9523 19.0924 35.9523 19.0924C39.7011 14.2523 45.5384 11.4955 45.7525 11.9289C45.9666 12.357 45.0477 12.9366 44.0661 15.0199C43.0845 17.1031 43.6066 25.3892 44.0661 28.0937C44.5255 30.7931 44.3585 32.9965 44.3585 32.9965C45.6115 30.8714 47.4129 30.6678 47.4129 30.6678C45.6638 33.0487 45.883 36.5521 48.1438 38.6301C50.0287 40.3584 51.595 40.6873 51.6107 43.1099C51.6159 44.7859 50.1227 46.2687 50.1227 46.2687C50.8275 45.8615 50.7544 45.3394 52.3156 44.8225C53.6731 44.3682 54.3571 44.9269 54.7069 45.9868C47.9506 47.219 42.8234 53.2756 42.8234 60.554C42.8234 66.7829 46.5775 72.1137 51.8926 74.2909Z" fill="#FFD600"/>
<path id="Vector_10" d="M50.5754 45.7811C50.5754 45.7811 49.5708 46.8989 47.6948 46.2546" stroke="black" stroke-width="0.75" stroke-miterlimit="10" stroke-linecap="round"/>
<path id="Vector_11" d="M44.773 31.9616C44.773 31.9616 43.2604 33.8595 43.2599 36.2451C43.2599 37.271 45.2607 48.8647 45.2607 48.8647" stroke="black" stroke-width="0.75" stroke-miterlimit="10" stroke-linecap="round"/>
<path id="Vector_12" d="M35.827 23.6719C35.827 23.6719 37.5276 34.9465 39.4171 39.6707" stroke="black" stroke-width="0.75" stroke-miterlimit="10" stroke-linecap="round"/>
<path id="Vector_13" d="M31.0204 31.3951C31.0204 31.3951 34.7937 44.0706 37.468 48.2465" stroke="black" stroke-width="0.75" stroke-miterlimit="10" stroke-linecap="round"/>
<path id="Vector_14" d="M28.0892 41.3597C28.0892 41.3597 33.5109 51.5808 35.6359 54.878" stroke="black" stroke-width="0.75" stroke-miterlimit="10" stroke-linecap="round"/>
<path id="Vector_15" d="M29.335 53.8885C29.335 53.8885 34.6836 59.6402 37.7975 62.5709" stroke="black" stroke-width="0.75" stroke-miterlimit="10" stroke-linecap="round"/>
<path id="Vector_16" d="M44.1762 42.4312C41.7541 42.3189 41.3568 46.0959 42.4073 50.3841" stroke="black" stroke-width="0.75" stroke-miterlimit="10" stroke-linecap="round"/>
<path id="Vector_17" d="M41.9343 47.6983C39.9084 47.5442 39.1702 49.1346 41.2717 56.8307" stroke="black" stroke-width="0.75" stroke-miterlimit="10" stroke-linecap="round"/>
<path id="Vector_18" d="M40.8253 55.1165C36.7392 53.5277 37.7975 68.4483 51.3961 73.9781" stroke="black" stroke-width="0.75" stroke-miterlimit="10" stroke-linecap="round"/>
<path id="Vector_19" d="M62.5074 74.2909L62.9564 75.873C75.8841 71.5394 84.922 62.8565 85.4389 60.2877C85.961 57.7188 84.6453 54.1632 84.6453 54.1632C84.6453 54.1632 88.3941 49.2971 88.6395 47.6994C89.0102 45.2715 85.82 41.7524 85.82 41.7524C86.7807 39.8676 87.3237 37.4867 87.3237 37.4867C86.1803 34.5628 83.0058 31.7747 83.0058 31.7747L83.3609 29.7228C81.0374 25.598 78.3328 24.3136 78.3328 24.3136C78.7714 21.7134 78.4477 19.0924 78.4477 19.0924C74.6989 14.2523 68.8616 11.4955 68.6475 11.9289C68.4334 12.357 69.3524 12.9366 70.334 15.0199C71.3155 17.1031 70.7934 25.3892 70.334 28.0937C69.8745 30.7931 70.0416 32.9965 70.0416 32.9965C68.7885 30.8714 66.9872 30.6678 66.9872 30.6678C68.7363 33.0487 68.517 36.5521 66.2562 38.6301C64.3713 40.3584 62.805 40.6873 62.7893 43.1099C62.7841 44.7859 64.2774 46.2687 64.2774 46.2687C63.5725 45.8615 63.6456 45.3394 62.0845 44.8225C60.7269 44.3682 60.043 44.9269 59.6931 45.9868C66.4494 47.219 71.5766 53.2756 71.5766 60.554C71.5766 66.7829 67.8226 72.1137 62.5074 74.2909Z" fill="#FFD600"/>
<path id="Vector_20" d="M63.8247 45.7811C63.8247 45.7811 64.8292 46.8989 66.7052 46.2546" stroke="black" stroke-width="0.75" stroke-miterlimit="10" stroke-linecap="round"/>
<path id="Vector_21" d="M69.627 31.9616C69.627 31.9616 71.1396 33.8595 71.1401 36.2451C71.1401 37.271 69.1393 48.8647 69.1393 48.8647" stroke="black" stroke-width="0.75" stroke-miterlimit="10" stroke-linecap="round"/>
<path id="Vector_22" d="M78.5725 23.6719C78.5725 23.6719 76.8719 34.9465 74.9824 39.6707" stroke="black" stroke-width="0.75" stroke-miterlimit="10" stroke-linecap="round"/>
<path id="Vector_23" d="M83.3796 31.3951C83.3796 31.3951 79.6063 44.0706 76.932 48.2465" stroke="black" stroke-width="0.75" stroke-miterlimit="10" stroke-linecap="round"/>
<path id="Vector_24" d="M86.3103 41.3597C86.3103 41.3597 80.8886 51.5808 78.7636 54.878" stroke="black" stroke-width="0.75" stroke-miterlimit="10" stroke-linecap="round"/>
<path id="Vector_25" d="M85.065 53.8885C85.065 53.8885 79.7164 59.6402 76.6025 62.5709" stroke="black" stroke-width="0.75" stroke-miterlimit="10" stroke-linecap="round"/>
<path id="Vector_26" d="M70.2238 42.4312C72.6459 42.3189 73.0432 46.0959 71.9927 50.3841" stroke="black" stroke-width="0.75" stroke-miterlimit="10" stroke-linecap="round"/>
<path id="Vector_27" d="M72.4658 47.6983C74.4916 47.5442 75.2299 49.1346 73.1283 56.8307" stroke="black" stroke-width="0.75" stroke-miterlimit="10" stroke-linecap="round"/>
<path id="Vector_28" d="M73.5742 55.1165C77.6603 53.5277 76.602 68.4483 63.0034 73.9781" stroke="black" stroke-width="0.75" stroke-miterlimit="10" stroke-linecap="round"/>
<path id="Vector_29" d="M57.2 50.3502L59.5026 57.4359L66.9537 57.4364L60.9259 61.8159L63.2279 68.9021L57.2 64.5231L51.1721 68.9021L53.4742 61.8159L47.4463 57.4364L54.8975 57.4359L57.2 50.3502Z" fill="white"/>
<path id="Vector_30" d="M57.2 64.6855C59.3691 64.6855 61.1274 62.9271 61.1274 60.7581C61.1274 58.589 59.3691 56.8307 57.2 56.8307C55.031 56.8307 53.2726 58.589 53.2726 60.7581C53.2726 62.9271 55.031 64.6855 57.2 64.6855Z" fill="#E20247"/>
<path id="Vector_31" d="M57.2 71.6594C63.2962 71.6594 68.2381 66.7175 68.2381 60.6213C68.2381 54.5251 63.2962 49.5831 57.2 49.5831C51.1038 49.5831 46.1619 54.5251 46.1619 60.6213C46.1619 66.7175 51.1038 71.6594 57.2 71.6594Z" stroke="white" stroke-width="3" stroke-miterlimit="10"/>
<path id="Vector_32" d="M55.2916 74.1349L59.1083 74.135L59.1083 72.1786L55.2916 72.1785L55.2916 74.1349Z" fill="white"/>
<path id="Vector_33" d="M48.7906 71.3701L52.0959 73.2786L53.0741 71.5843L49.7688 69.6759L48.7906 71.3701Z" fill="white"/>
<path id="Vector_34" d="M44.5431 65.7246L46.4513 69.03L48.1456 68.0519L46.2374 64.7465L44.5431 65.7246Z" fill="white"/>
<path id="Vector_35" d="M43.6865 58.713L43.6864 62.5297L45.6428 62.5297L45.6429 58.713L43.6865 58.713Z" fill="white"/>
<path id="Vector_36" d="M46.4512 52.2117L44.5427 55.517L46.237 56.4952L48.1454 53.1899L46.4512 52.2117Z" fill="white"/>
<path id="Vector_37" d="M52.0962 47.9634L48.7908 49.8716L49.7689 51.566L53.0743 49.6577L52.0962 47.9634Z" fill="white"/>
<path id="Vector_38" d="M59.1084 47.1072H55.2917V49.0636H59.1084V47.1072Z" fill="white"/>
<path id="Vector_39" d="M65.6094 49.8726L62.3042 47.9642L61.3259 49.6584L64.6312 51.5669L65.6094 49.8726Z" fill="white"/>
<path id="Vector_40" d="M69.8566 55.5172L67.9484 52.2118L66.2541 53.1899L68.1623 56.4953L69.8566 55.5172Z" fill="white"/>
<path id="Vector_41" d="M70.7136 62.5296L70.7138 58.7129L68.7574 58.7128L68.7573 62.5295L70.7136 62.5296Z" fill="white"/>
<path id="Vector_42" d="M67.9483 69.0309L69.8568 65.7256L68.1625 64.7473L66.2541 68.0526L67.9483 69.0309Z" fill="white"/>
<path id="Vector_43" d="M62.3042 73.2782L65.6096 71.37L64.6315 69.6757L61.3261 71.5839L62.3042 73.2782Z" fill="white"/>
<path id="Vector_44" d="M15.5803 71.7069L15.7907 72.2369C14.5501 73.0388 13.4208 73.7803 12.4032 74.4611C11.3855 75.1419 10.6243 75.662 10.1194 76.0222C9.82962 76.2321 9.65941 76.3815 9.60824 76.4707C9.55708 76.56 9.55342 76.6603 9.59728 76.7715L9.62182 76.8331L9.27096 76.9725C9.22135 76.807 9.1728 76.6566 9.12685 76.5214C9.08143 76.3862 9.0407 76.2739 9.00467 76.183C8.95873 76.0677 8.90547 75.9434 8.84386 75.8082C8.78277 75.6735 8.7149 75.5314 8.64023 75.3832L8.9911 75.2438L9.01407 75.3022C9.07203 75.4484 9.13938 75.5367 9.21718 75.568C9.29393 75.5988 9.40775 75.5847 9.55708 75.5252C9.61138 75.5038 9.67038 75.4761 9.73303 75.4411C9.79621 75.4067 9.86983 75.3623 9.95441 75.3074L11.3939 74.3864C11.3631 74.3081 11.3224 74.2011 11.2717 74.0638C11.1845 73.8131 11.126 73.6529 11.0984 73.5834C11.043 73.4435 10.9898 73.3124 10.9391 73.1887C10.888 73.0655 10.8326 72.9381 10.7726 72.807C10.1069 72.9026 9.62339 72.9788 9.32421 73.0357C9.02451 73.0931 8.81514 73.1459 8.69662 73.1929C8.53007 73.2592 8.42408 73.3318 8.37917 73.4111C8.33427 73.491 8.33897 73.6001 8.39327 73.7374L8.42616 73.8205L8.0753 73.9599C8.02935 73.8048 7.98393 73.6607 7.9385 73.5275C7.89412 73.3944 7.85079 73.2764 7.81006 73.1741C7.77717 73.0916 7.73331 72.9908 7.67744 72.8702C7.6221 72.7496 7.55892 72.6201 7.48792 72.4812L7.83408 72.3439C7.89882 72.4875 7.99281 72.5836 8.11707 72.6332C8.24029 72.6828 8.42042 72.6979 8.6559 72.6775C9.09813 72.6352 9.97373 72.5235 11.2822 72.3423C12.5911 72.1617 14.0233 71.9497 15.5803 71.7069ZM14.6796 72.2254L11.3589 72.7271C11.3746 72.7663 11.3949 72.8237 11.421 72.8989C11.5035 73.1349 11.561 73.2952 11.5944 73.3793C11.6351 73.4821 11.714 73.6659 11.8309 73.9311C11.8575 73.9891 11.8774 74.0335 11.8899 74.0648L14.6796 72.2259V72.2254Z" fill="#0F1693"/>
<path id="Vector_45" d="M15.6909 73.4942C15.7698 73.6278 15.8512 73.7584 15.9348 73.8868C16.0183 74.0142 16.1029 74.1369 16.1885 74.2554C16.2611 74.3557 16.3452 74.4653 16.4407 74.5849C16.5357 74.7039 16.6396 74.8282 16.7508 74.9572L16.4501 75.1754L16.4172 75.13C16.3326 75.0135 16.2475 74.9425 16.1608 74.9164C16.0742 74.8903 15.9708 74.9034 15.8507 74.9551C15.7724 74.9906 15.6549 75.06 15.4983 75.1639C15.3416 75.2683 15.0915 75.4443 14.7485 75.6928L13.8661 76.3324L11.6586 77.9322C11.3098 78.1849 11.0681 78.3676 10.9334 78.4804C10.7987 78.5932 10.7047 78.6846 10.6525 78.7551C10.5956 78.8323 10.5726 78.9122 10.5836 78.9958C10.5945 79.0793 10.6394 79.1754 10.7188 79.2845L10.76 79.3409L10.4499 79.5654C10.3502 79.4025 10.2557 79.2542 10.1669 79.1195C10.0787 78.9848 10.0019 78.8731 9.93874 78.7853C9.86355 78.682 9.77584 78.5666 9.67507 78.4407C9.5743 78.3139 9.46674 78.1839 9.35083 78.0492L9.66097 77.8246L9.69961 77.8784C9.78001 77.9896 9.85781 78.0627 9.93299 78.0977C10.0087 78.1337 10.0917 78.1358 10.1826 78.1055C10.2802 78.0727 10.4238 77.9949 10.6123 77.8732C10.8008 77.7515 11.1339 77.5182 11.6095 77.173L12.3102 76.665L14.0436 75.4088C14.5073 75.0725 14.8347 74.8298 15.0263 74.6804C15.2179 74.5311 15.3463 74.4199 15.4116 74.3484C15.4993 74.2523 15.5447 74.1594 15.5484 74.0706C15.5515 73.9818 15.5108 73.879 15.4252 73.7605L15.3902 73.7119L15.6909 73.4937V73.4942Z" fill="#0F1693"/>
<path id="Vector_46" d="M11.8743 80.7098C11.8821 80.7234 11.891 80.7359 11.8993 80.7479C11.9082 80.7594 11.9223 80.7756 11.9416 80.796C12.1447 81.009 12.741 80.6461 13.7314 79.7084C13.981 79.4734 14.1768 79.2902 14.3183 79.1586L15.4085 78.1378C15.6424 77.9175 15.8695 77.704 16.0893 77.4962C16.3091 77.2884 16.5472 77.0618 16.8036 76.8174C17.0307 76.6012 17.1633 76.4258 17.2014 76.2916C17.2396 76.1574 17.1962 76.0248 17.0714 75.8938L17.0532 75.8745L17.3309 75.6097C17.4197 75.7293 17.5116 75.8442 17.6056 75.9543C17.7001 76.064 17.7946 76.1684 17.8896 76.2676C17.9914 76.3746 18.1246 76.502 18.288 76.6503C18.4514 76.7986 18.559 76.8983 18.6091 76.9511C18.9218 77.279 19.0351 77.6841 18.9495 78.165C18.8639 78.6464 18.6065 79.0923 18.1757 79.5027C17.8562 79.8071 17.522 80.0258 17.1727 80.159C16.8234 80.2921 16.4606 80.3386 16.0841 80.2973L15.3907 81.8141C15.3641 81.8705 15.326 81.9525 15.278 82.06C14.7919 83.1152 14.6436 83.7418 14.8326 83.9396L14.8556 83.9642L14.6295 84.1793C14.6055 84.1595 14.5684 84.1307 14.5172 84.0932C14.4024 84.0044 14.3225 83.936 14.2765 83.888C14.1152 83.7188 14.0249 83.5486 14.0066 83.3784C13.9883 83.2087 14.041 82.9722 14.1658 82.6699C14.1852 82.6213 14.336 82.3091 14.618 81.7332C14.9005 81.1573 15.1568 80.6038 15.3866 80.0733C15.3176 80.0227 15.2487 79.9653 15.1777 79.9016C15.1062 79.8379 15.0315 79.7642 14.9521 79.6812L14.8148 79.5371L13.5993 80.6957C13.2036 81.0732 12.9764 81.3364 12.9201 81.4857C12.8626 81.6345 12.9044 81.7822 13.0448 81.9295C13.0495 81.9342 13.0569 81.9394 13.0673 81.9446C13.0777 81.9498 13.085 81.9551 13.0897 81.9598C13.0955 81.966 13.0991 81.9728 13.1007 81.9791C13.1023 81.9853 13.1033 81.99 13.1049 81.9916L12.8438 82.2407C12.7462 82.1169 12.6465 81.9968 12.5452 81.8799C12.4439 81.7624 12.3405 81.6491 12.235 81.5384C12.1786 81.4794 12.0967 81.3985 11.9891 81.2967C11.8821 81.1943 11.7583 81.08 11.6179 80.9547L11.8753 80.7093L11.8743 80.7098ZM15.2226 79.1481C15.2827 79.2374 15.3427 79.3184 15.4017 79.3915C15.4612 79.4646 15.5166 79.5272 15.5667 79.5799C15.6095 79.6248 15.6601 79.6739 15.7191 79.7277C15.7781 79.7815 15.8445 79.8373 15.9191 79.8943C16.2188 79.9016 16.5039 79.8457 16.7738 79.7246C17.0448 79.6045 17.32 79.4108 17.5998 79.144C17.9669 78.7942 18.1924 78.4417 18.277 78.0862C18.3616 77.7306 18.288 77.4319 18.0562 77.1886C17.9935 77.1228 17.9282 77.0633 17.8593 77.0095C17.7904 76.9558 17.7178 76.9077 17.6416 76.8644C17.31 77.1719 16.9701 77.4894 16.6224 77.8173C16.2752 78.1457 15.8084 78.589 15.2221 79.1476L15.2226 79.1481Z" fill="#0F1693"/>
<path id="Vector_47" d="M17.4338 85.3824C17.4463 85.3954 17.4583 85.4074 17.4708 85.4189C17.4834 85.4294 17.5037 85.4455 17.533 85.4659C17.6771 85.5682 17.8301 85.5594 17.9924 85.4398C18.1543 85.3197 18.4274 84.9897 18.8116 84.4483C18.8753 84.359 18.9871 84.1992 19.1484 83.969C19.3087 83.7387 19.4418 83.5492 19.5473 83.4004L20.4088 82.1865C20.5247 82.023 20.7075 81.7672 20.9581 81.4189C21.2077 81.0707 21.3977 80.8044 21.5288 80.6196C21.7079 80.3674 21.8039 80.17 21.8159 80.0291C21.8279 79.8881 21.7611 79.7654 21.6149 79.662L21.5716 79.6312L21.7836 79.332C22.1459 79.6119 22.4404 79.8369 22.667 80.0087C22.8936 80.1805 23.0862 80.323 23.2471 80.4374C23.4214 80.5611 23.6131 80.6916 23.8209 80.8279C24.0292 80.9642 24.2636 81.1146 24.5242 81.2769C24.3785 81.4821 24.2292 81.7014 24.0757 81.9348C23.9227 82.1682 23.7514 82.435 23.5629 82.7347L23.351 82.6381C23.6063 82.2517 23.7227 81.9515 23.7008 81.739C23.6783 81.5265 23.4669 81.278 23.0669 80.9939C22.9265 80.8942 22.703 80.7454 22.397 80.5454L22.3814 80.5345C22.065 80.972 21.712 81.4581 21.3215 81.9933C20.9315 82.5279 20.7143 82.8245 20.6704 82.883L20.7592 82.9461C20.8604 83.0177 20.9847 83.108 21.132 83.2177C21.2797 83.3268 21.38 83.3999 21.4343 83.4385C21.6995 83.627 21.9031 83.7111 22.0457 83.6917C22.1887 83.6719 22.3401 83.556 22.5015 83.3445L22.6592 83.4829C22.4863 83.6959 22.3459 83.8724 22.2383 84.0134C22.1302 84.1533 22.0331 84.2849 21.947 84.4065C21.8833 84.4958 21.8097 84.6023 21.7261 84.7266C21.6421 84.8503 21.5491 84.9897 21.4468 85.1453L21.2526 85.0414L21.3063 84.9652C21.4792 84.7214 21.5528 84.5245 21.5272 84.3741C21.5011 84.2238 21.3277 84.0342 21.0072 83.8066L20.5425 83.4766L20.3477 83.3388L19.116 85.0743C18.8122 85.5024 18.6493 85.7927 18.6279 85.9457C18.6065 86.0982 18.6837 86.2371 18.8607 86.3624L18.9657 86.437L18.7443 86.7493C18.6159 86.6401 18.4874 86.5357 18.3595 86.436C18.2311 86.3358 18.1042 86.2407 17.9778 86.1514C17.9146 86.1065 17.817 86.0418 17.6833 85.9562C17.5502 85.8705 17.3988 85.776 17.2281 85.6732L17.4338 85.3834V85.3824Z" fill="#0F1693"/>
<path id="Vector_48" d="M26.7536 82.6297C27.0533 82.7817 27.2851 82.9879 27.4491 83.2484C27.613 83.509 27.7153 83.8369 27.7561 84.229C27.8036 84.7031 27.7681 85.2064 27.6501 85.74C27.5326 86.2731 27.3389 86.8046 27.0705 87.3351C26.7964 87.8755 26.4737 88.3537 26.102 88.7699C25.7297 89.1865 25.3371 89.5087 24.9241 89.7374C24.5931 89.9211 24.262 90.0282 23.9305 90.0585C23.5995 90.0893 23.3076 90.0402 23.0554 89.9123C22.7395 89.7525 22.4983 89.5092 22.3302 89.1829C22.1621 88.8565 22.0728 88.4535 22.0613 87.9731C22.0503 87.5345 22.1052 87.0756 22.2253 86.5968C22.3453 86.1175 22.526 85.6408 22.7667 85.1657C23.0272 84.6519 23.3321 84.1956 23.6809 83.7982C24.0297 83.4009 24.403 83.0855 24.8004 82.8537C25.1596 82.6433 25.5073 82.519 25.8435 82.4809C26.1798 82.4428 26.4831 82.4924 26.7526 82.6292L26.7536 82.6297ZM26.3307 87.1748C26.8105 86.2277 27.0559 85.3766 27.0679 84.6195C27.0799 83.863 26.8617 83.3711 26.4121 83.1435C25.9798 82.9247 25.5021 83.0098 24.9773 83.3978C24.4521 83.7862 23.9691 84.4159 23.5274 85.2878C23.0361 86.2574 22.7808 87.1283 22.7625 87.8995C22.7437 88.6717 22.9578 89.1703 23.4026 89.3959C23.8323 89.6136 24.3143 89.5212 24.8489 89.1197C25.383 88.7177 25.8775 88.0697 26.3307 87.1748Z" fill="#0F1693"/>
<path id="Vector_49" d="M26.1892 90.6228C26.2012 90.6328 26.2138 90.6422 26.2258 90.65C26.2378 90.6578 26.2566 90.6683 26.2822 90.6808C26.5453 90.8124 26.9839 90.2694 27.5989 89.0518C27.754 88.7463 27.8767 88.5077 27.9649 88.336L28.6458 87.0066C28.7915 86.7205 28.933 86.4427 29.0692 86.1723C29.2055 85.9018 29.3533 85.6084 29.512 85.292C29.6524 85.0116 29.7182 84.8022 29.7083 84.6628C29.6984 84.5234 29.6133 84.4133 29.4514 84.3323L29.4279 84.3203L29.5997 83.9773C29.7235 84.0598 29.8488 84.1371 29.9751 84.2086C30.1015 84.2796 30.2257 84.3459 30.3484 84.4075C30.4805 84.4738 30.6486 84.549 30.8528 84.6326C31.0569 84.7161 31.1917 84.7746 31.2564 84.8069C31.6616 85.01 31.9054 85.3526 31.9874 85.834C32.0699 86.3159 31.978 86.8229 31.7117 87.3544C31.5138 87.7491 31.2736 88.0676 30.9896 88.3109C30.7056 88.5542 30.3803 88.7208 30.0117 88.8095L29.8723 90.4714C29.8665 90.5336 29.8582 90.6234 29.8493 90.7408C29.7485 91.8984 29.8211 92.538 30.066 92.6607L30.0962 92.6758L29.9563 92.9546C29.9271 92.9437 29.8822 92.9296 29.8216 92.9118C29.6838 92.8674 29.5851 92.8298 29.5256 92.8001C29.3162 92.6951 29.1742 92.5656 29.099 92.4121C29.0243 92.2586 28.994 92.0179 29.0092 91.6916C29.0108 91.6394 29.0473 91.2943 29.1178 90.6568C29.1888 90.0193 29.2431 89.412 29.2796 88.8351C29.1977 88.8106 29.1131 88.7803 29.0254 88.7442C28.9366 88.7082 28.8411 88.6644 28.7387 88.6132L28.5607 88.5239L27.8083 90.0255C27.5634 90.5148 27.4392 90.839 27.436 90.9982C27.4324 91.158 27.5217 91.2828 27.7034 91.3742C27.7091 91.3773 27.718 91.3794 27.7295 91.381C27.741 91.3825 27.7498 91.3846 27.7556 91.3877C27.7634 91.3914 27.7686 91.3966 27.7723 91.4024C27.7759 91.4081 27.7786 91.4118 27.7801 91.4128L27.6183 91.7355C27.4846 91.6519 27.3504 91.5726 27.2152 91.4974C27.08 91.4212 26.9442 91.3491 26.8079 91.2807C26.7348 91.2442 26.6304 91.1956 26.4947 91.1366C26.3594 91.0766 26.2038 91.0108 26.0294 90.9403L26.1887 90.6223L26.1892 90.6228ZM28.8123 88.0206C28.899 88.0843 28.9831 88.1402 29.0635 88.1892C29.1444 88.2378 29.2175 88.2785 29.2828 88.3109C29.3381 88.3386 29.4023 88.3678 29.476 88.3986C29.5496 88.4294 29.631 88.4592 29.7203 88.4874C30.0049 88.3934 30.2539 88.2435 30.4675 88.0389C30.6815 87.8342 30.8752 87.5585 31.0481 87.2129C31.2752 86.7591 31.3681 86.3514 31.3279 85.9885C31.2877 85.6256 31.117 85.3693 30.8168 85.2184C30.7358 85.1776 30.6539 85.1437 30.5714 85.1166C30.4889 85.0894 30.4038 85.0685 30.3171 85.0539C30.1093 85.4554 29.8968 85.8695 29.6806 86.2955C29.465 86.7216 29.1757 87.2969 28.8129 88.0211L28.8123 88.0206Z" fill="#0F1693"/>
<path id="Vector_50" d="M36.7355 87.4567L36.6703 87.631C36.581 87.8702 36.4938 88.1208 36.4081 88.3829C36.3225 88.6455 36.2369 88.9212 36.1513 89.2131L35.9017 89.1901C36.0437 88.6826 36.0463 88.2466 35.9085 87.8817C35.7706 87.5167 35.5085 87.2624 35.1211 87.1178C34.6063 86.9257 34.1103 87.0379 33.6357 87.4546C33.1611 87.8712 32.745 88.5573 32.3883 89.5143C32.0072 90.5361 31.8605 91.4222 31.9472 92.173C32.0338 92.9238 32.334 93.3947 32.8473 93.5863C33.1705 93.707 33.4963 93.6882 33.8247 93.5305C34.1531 93.3728 34.4726 93.0815 34.7823 92.6554L34.9274 92.9024C34.7781 93.0997 34.634 93.3039 34.4941 93.5148C34.3541 93.7258 34.2205 93.9388 34.092 94.156C33.8059 94.24 33.5307 94.2813 33.2676 94.2808C33.0044 94.2802 32.7549 94.2353 32.5215 94.1481C31.8339 93.8918 31.4083 93.3331 31.2449 92.4721C31.081 91.6112 31.2131 90.6082 31.6396 89.4637C32.0605 88.3359 32.6275 87.501 33.3407 86.9591C34.0544 86.4176 34.7671 86.2798 35.4798 86.5456C35.6908 86.6244 35.9022 86.7398 36.1126 86.8928C36.323 87.0457 36.5308 87.2337 36.7345 87.4572L36.7355 87.4567Z" fill="#0F1693"/>
<path id="Vector_51" d="M37.8043 87.7579C38.1494 87.9334 38.4601 88.0874 38.7347 88.2195C39.0093 88.3521 39.248 88.4623 39.45 88.551C39.675 88.6497 39.9043 88.7447 40.1382 88.8351C40.3721 88.9259 40.6117 89.0131 40.8571 89.0972C40.749 89.3483 40.6431 89.6073 40.5381 89.8741C40.4337 90.1404 40.3303 90.4093 40.2285 90.6792L40.0123 90.6202C40.1716 90.2124 40.216 89.9075 40.1444 89.707C40.0729 89.5065 39.816 89.3092 39.3733 89.1149C39.26 89.0653 39.0501 88.9792 38.7446 88.8575C38.6825 88.834 38.6371 88.8157 38.6089 88.8037C38.4287 89.2032 38.2074 89.6908 37.9437 90.2688C37.6811 90.8463 37.5103 91.2217 37.432 91.3945L37.5265 91.4357C37.6456 91.488 37.7938 91.5558 37.9703 91.6394C38.1473 91.7229 38.2658 91.7777 38.3264 91.8044C38.6204 91.9333 38.8339 91.973 38.9671 91.9239C39.1007 91.8754 39.225 91.7307 39.3404 91.49L39.5179 91.6044C39.4129 91.8049 39.3179 91.9929 39.2333 92.1667C39.1488 92.3406 39.073 92.5024 39.0073 92.6528C38.9691 92.7395 38.8924 92.929 38.776 93.2204C38.7347 93.3258 38.7034 93.4057 38.682 93.46L38.4804 93.3838L38.4982 93.3436C38.623 93.0595 38.6569 92.845 38.6005 92.7014C38.5441 92.5578 38.3322 92.4043 37.9635 92.2429L37.4231 92.0059L37.2044 91.9098C37.1328 92.0733 37.0326 92.2993 36.9036 92.5875C36.7747 92.8758 36.6823 93.083 36.6269 93.2099C36.5303 93.4302 36.4306 93.6605 36.3283 93.9002C36.2254 94.1398 36.1064 94.4212 35.9722 94.7444C36.0641 94.8086 36.1727 94.8739 36.2964 94.9407C36.4207 95.0071 36.5596 95.0739 36.7136 95.1412C37.2216 95.3642 37.5913 95.43 37.8231 95.3386C38.0554 95.2472 38.3196 94.9919 38.6167 94.5726L38.7827 94.7883C38.6005 95.0389 38.4277 95.288 38.2638 95.5344C38.0998 95.7808 37.9432 96.0288 37.7928 96.2779C37.4842 96.1186 37.195 95.974 36.9266 95.844C36.6577 95.7145 36.4128 95.6007 36.1925 95.5041C35.8907 95.372 35.3973 95.1773 34.7112 94.9204L34.5995 94.8776L34.7421 94.5523C34.7546 94.5617 34.7676 94.57 34.7796 94.5779C34.7922 94.5852 34.8115 94.5946 34.8376 94.6061C35.107 94.7241 35.5174 94.1591 36.0698 92.9123C36.2092 92.5996 36.3194 92.3547 36.3987 92.1787L37.0107 90.8165C37.1417 90.5231 37.2686 90.2385 37.3913 89.9618C37.514 89.6851 37.6461 89.3843 37.7886 89.0601C37.9145 88.7729 37.9693 88.5604 37.9531 88.4215C37.9369 88.2827 37.8455 88.1772 37.6795 88.1046L37.655 88.0942L37.8022 87.7585L37.8043 87.7579Z" fill="#0F1693"/>
<path id="Vector_52" d="M45.4737 97.6355L47.8546 94.7977L47.9527 94.6808C48.7354 93.7504 49.1734 93.188 49.2669 92.9933C49.27 92.987 49.2732 92.9766 49.2779 92.9625C49.2821 92.9489 49.2862 92.9385 49.2894 92.9317C49.3969 92.9954 49.4951 93.0518 49.5833 93.0998C49.6716 93.1484 49.7514 93.1896 49.8219 93.2236C49.8888 93.2559 49.9671 93.2904 50.0574 93.3274C50.1477 93.3645 50.248 93.4037 50.3576 93.4444L50.1942 93.7843L50.1597 93.7676C49.9937 93.6877 49.8559 93.682 49.7462 93.7509C49.6371 93.8193 49.5212 93.9806 49.3995 94.2339C49.352 94.3325 49.2502 94.555 49.0936 94.9001C48.9369 95.2452 48.7688 95.6201 48.5892 96.0232L47.9721 97.4324L47.911 97.5671C47.3622 98.8165 47.061 99.5276 47.0067 99.6994C46.9722 99.8007 46.9717 99.8916 47.0056 99.972C47.0395 100.053 47.1043 100.117 47.1998 100.163L47.2719 100.197L47.1059 100.542C46.9612 100.456 46.8255 100.379 46.6991 100.311C46.5728 100.242 46.4668 100.187 46.3817 100.146C46.2809 100.097 46.166 100.046 46.0371 99.9928C45.9081 99.9385 45.7687 99.8837 45.6194 99.8284L45.7901 99.4733C45.8073 99.4817 45.8282 99.4942 45.8538 99.5099C45.8789 99.5255 45.8971 99.537 45.9086 99.5422C46.0538 99.6117 46.1754 99.6153 46.2746 99.5537C46.3738 99.4921 46.4793 99.3449 46.591 99.1115C46.6433 99.0029 46.6939 98.8953 46.7419 98.7893C46.7905 98.6834 46.8401 98.5737 46.8897 98.4599L48.8158 94.1649L45.4069 98.2516C45.4022 98.2573 45.3912 98.2704 45.374 98.2902C45.126 98.5716 44.8921 98.8859 44.6712 99.2332L44.4822 99.1423C44.5532 98.9256 44.6367 98.5815 44.7318 98.1096L44.7417 98.0594L45.7504 93.0027C45.5703 93.3489 45.3218 93.8245 45.0054 94.4286C44.2191 95.9287 43.7335 96.8706 43.5486 97.2554L43.5246 97.305C43.3241 97.7221 43.2302 97.9879 43.2427 98.1012C43.2557 98.2145 43.3455 98.3111 43.5142 98.392L43.5742 98.4207L43.4082 98.7659C43.2902 98.6928 43.1764 98.6265 43.0657 98.5654C42.9555 98.5038 42.8469 98.4479 42.7399 98.3962C42.6637 98.3596 42.5671 98.3168 42.4501 98.2693C42.3332 98.2213 42.2073 98.1722 42.0705 98.1231L42.2366 97.778L42.317 97.8166C42.4261 97.8694 42.5185 97.885 42.5937 97.8647C42.6689 97.8443 42.7503 97.7837 42.836 97.6835C42.9367 97.566 43.2364 97.0382 43.734 96.0999C43.8703 95.8415 43.9794 95.6368 44.0608 95.4859L44.6858 94.3169L44.6931 94.3022C45.3118 93.1468 45.6596 92.4889 45.7374 92.3276C45.8366 92.1208 45.8768 91.9616 45.858 91.8514C45.8392 91.7418 45.7489 91.6473 45.5865 91.5695L45.5405 91.5475L45.704 91.2076C45.7196 91.215 45.7436 91.2285 45.7765 91.2484C45.9864 91.3779 46.1358 91.4635 46.2235 91.5053C46.2903 91.5376 46.4219 91.5888 46.6187 91.6588C46.6808 91.6807 46.7273 91.699 46.7576 91.7136L46.7435 91.7428C46.603 92.0357 46.2632 93.5718 45.7238 96.351L45.4737 97.6334V97.6355Z" fill="#0F1693"/>
<path id="Vector_53" d="M51.6948 94.9063L52.2634 95.1898C52.1971 96.622 52.1459 97.9346 52.1109 99.1276C52.0759 100.321 52.0587 101.222 52.0597 101.831C52.0634 102.184 52.0869 102.411 52.1313 102.515C52.1756 102.619 52.2576 102.7 52.3761 102.759L52.4424 102.792L52.3506 103.128C52.1824 103.028 52.0279 102.941 51.8869 102.863C51.747 102.786 51.6285 102.723 51.5313 102.674C51.4076 102.613 51.2719 102.549 51.122 102.481C50.9727 102.414 50.8134 102.345 50.6453 102.276L50.7372 101.94L50.7999 101.972C50.9565 102.05 51.0703 102.077 51.1429 102.051C51.2144 102.026 51.2698 101.942 51.3089 101.799C51.323 101.747 51.335 101.687 51.3434 101.619C51.3523 101.551 51.3585 101.469 51.3627 101.371L51.4478 99.7171C51.3637 99.6753 51.2499 99.6163 51.1053 99.5406C50.8437 99.3986 50.6751 99.3093 50.6004 99.2722C50.4506 99.1976 50.3091 99.1276 50.1754 99.0624C50.0417 98.9976 49.9023 98.9329 49.7572 98.8676C49.4413 99.3715 49.2178 99.7427 49.0878 99.9802C48.9578 100.218 48.8774 100.395 48.8461 100.508C48.8022 100.668 48.8001 100.793 48.8398 100.885C48.88 100.977 48.974 101.061 49.1212 101.134L49.21 101.179L49.1181 101.514C48.961 101.421 48.8132 101.336 48.6748 101.26C48.537 101.183 48.4127 101.118 48.3031 101.063C48.2148 101.019 48.1042 100.967 47.97 100.908C47.8358 100.849 47.6901 100.786 47.5319 100.722L47.6228 100.391C47.781 100.463 47.9178 100.479 48.0331 100.438C48.148 100.398 48.2676 100.294 48.3908 100.127C48.6184 99.809 49.0455 99.1574 49.6716 98.1727C50.2986 97.1879 50.9732 96.0988 51.6953 94.9058L51.6948 94.9063ZM51.593 95.8957L50.0386 98.428C50.0809 98.4489 50.1409 98.4812 50.2193 98.5241C50.4657 98.6577 50.6338 98.7475 50.7241 98.7924C50.8343 98.8472 51.0353 98.9417 51.3267 99.0765C51.3909 99.1052 51.44 99.1271 51.4734 99.1438L51.593 95.8952V95.8957Z" fill="#0F1693"/>
<path id="Vector_54" d="M53.6224 104.049L53.7227 104.157C53.859 104.303 53.9561 104.375 54.0135 104.373C54.0709 104.372 54.1111 104.297 54.1341 104.15C54.1514 104.056 54.1634 103.659 54.1701 102.958C54.1769 102.257 54.1806 101.16 54.1806 99.6644V97.9189L53.5995 97.2945C53.3175 96.9916 53.127 96.8595 53.0283 96.8971C52.9296 96.9353 52.856 97.1598 52.8085 97.5722L52.621 97.2939C52.6576 97.0157 52.6852 96.7337 52.7046 96.4486C52.7234 96.1625 52.7327 95.8717 52.7327 95.5762C52.7902 95.7072 52.9071 95.8821 53.0826 96.0999C53.2585 96.3176 53.5655 96.6627 54.0052 97.1347L54.7074 97.8886C55.2906 98.5147 55.666 98.9042 55.8336 99.0571C56.0012 99.2101 56.1192 99.2864 56.1861 99.2853C56.1861 99.3219 56.185 99.3783 56.1834 99.455C56.1819 99.5318 56.1808 99.5897 56.1808 99.6299C56.1808 99.8596 56.1855 100.102 56.1965 100.358C56.2075 100.613 56.2231 100.882 56.244 101.164L56.0628 101.035C56.0399 100.598 55.9809 100.254 55.8858 100.002C55.7913 99.751 55.5908 99.4519 55.2859 99.1062L54.7424 98.5225C54.7403 98.7282 54.7382 99.0201 54.7361 99.397C54.7325 100.389 54.7309 101.056 54.7309 101.399C54.7309 102.694 54.7351 103.575 54.744 104.044C54.7523 104.513 54.7675 104.816 54.7889 104.951C54.8134 105.11 54.8546 105.245 54.9126 105.358C54.9706 105.47 55.0583 105.59 55.1773 105.718L55.2776 105.826V106.209C55.1188 106.024 54.9685 105.852 54.8275 105.693C54.6865 105.534 54.5607 105.395 54.449 105.275C54.3513 105.171 54.2312 105.045 54.0882 104.899C53.9451 104.752 53.79 104.596 53.6235 104.432V104.049L53.6224 104.049Z" fill="#0F1693"/>
<path id="Vector_55" d="M56.7818 99.0645C57.1682 98.8112 57.5143 98.581 57.8192 98.3742C58.1242 98.168 58.3868 97.9863 58.6076 97.8291C58.8536 97.6542 59.101 97.4725 59.3522 97.2825C59.6028 97.0929 59.8576 96.8956 60.116 96.6893C60.1181 96.9614 60.1249 97.2365 60.1359 97.5148C60.1469 97.7931 60.1604 98.0709 60.1756 98.3481L59.9537 98.5387C59.9359 98.1137 59.8539 97.8756 59.7078 97.8244C59.5616 97.7733 59.2472 97.92 58.7632 98.2646C58.6395 98.3528 58.4129 98.5199 58.084 98.7653C58.0176 98.8159 57.9686 98.8525 57.9383 98.8744C57.9336 99.3156 57.9273 99.8565 57.9179 100.498C57.909 101.138 57.9038 101.554 57.9017 101.746L58.0046 101.672C58.1346 101.58 58.298 101.466 58.4933 101.332C58.6891 101.198 58.8196 101.108 58.8859 101.061C59.2065 100.832 59.4185 100.632 59.5208 100.461C59.6237 100.289 59.6796 100.067 59.6884 99.7939L59.8968 99.6785C59.8816 99.915 59.8696 100.134 59.8623 100.332C59.855 100.531 59.8508 100.712 59.8508 100.876C59.8508 100.971 59.8566 101.172 59.867 101.478C59.8717 101.588 59.8754 101.671 59.8774 101.727L59.6623 101.892V101.848C59.6623 101.538 59.6075 101.367 59.4984 101.336C59.3893 101.304 59.1334 101.432 58.7309 101.718L58.1409 102.139L57.9023 102.309C57.9023 102.487 57.9012 102.735 57.8991 103.052C57.8965 103.37 57.8955 103.598 57.8955 103.736C57.8955 103.977 57.8965 104.227 57.8991 104.486C57.9012 104.746 57.9054 105.048 57.9122 105.393C58.0223 105.337 58.1477 105.264 58.2881 105.175C58.4286 105.086 58.5826 104.981 58.7507 104.862C59.3052 104.466 59.6707 104.118 59.8461 103.816C60.0221 103.514 60.1615 103.074 60.2654 102.497L60.504 102.458C60.4377 102.809 60.3797 103.147 60.3286 103.475C60.2774 103.803 60.2335 104.124 60.1959 104.439C59.8492 104.664 59.5266 104.878 59.2279 105.079C58.9298 105.281 58.6599 105.468 58.4192 105.639C58.0897 105.873 57.5597 106.272 56.8283 106.833L56.7087 106.923V106.568C56.7238 106.561 56.7395 106.552 56.7536 106.544C56.7677 106.535 56.7891 106.521 56.8178 106.5C57.1118 106.291 57.2611 105.503 57.2653 104.135C57.2674 103.791 57.27 103.521 57.2721 103.327L57.2851 101.824C57.2872 101.501 57.2893 101.188 57.2903 100.885C57.2914 100.581 57.2919 100.252 57.2919 99.8983C57.2919 99.5845 57.2569 99.3929 57.1859 99.3234C57.1149 99.254 56.9891 99.2832 56.8079 99.4122L56.7813 99.431L56.7818 99.0645Z" fill="#0F1693"/>
<path id="Vector_56" d="M61.1551 103.514C61.1702 103.509 61.1848 103.503 61.1989 103.497C61.213 103.49 61.2334 103.479 61.2611 103.462C61.5446 103.294 61.6438 102.527 61.5587 101.163C61.5383 100.82 61.5232 100.551 61.5122 100.357L61.4271 98.8593C61.4078 98.5376 61.3895 98.2254 61.3707 97.9226C61.3519 97.6197 61.331 97.2918 61.3075 96.9389C61.2872 96.6261 61.2386 96.4298 61.1624 96.3505C61.0862 96.2711 60.9608 96.2831 60.7859 96.387L60.7604 96.4022L60.7353 96.0194C60.8789 95.9531 61.0209 95.8816 61.1613 95.8059C61.3013 95.7297 61.4375 95.6529 61.5696 95.5741C61.7122 95.489 61.8892 95.3751 62.1001 95.2331C62.311 95.0911 62.452 94.9977 62.522 94.9564C62.959 94.6964 63.3302 94.6802 63.6346 94.9068C63.9395 95.1339 64.1118 95.5438 64.151 96.1369C64.1797 96.5776 64.1359 97.0109 64.0189 97.438C63.9019 97.8651 63.7124 98.2834 63.4487 98.6937L64.1479 99.8831C64.1734 99.928 64.211 99.9933 64.2606 100.077C64.7447 100.909 65.1185 101.245 65.3827 101.088L65.4151 101.069L65.4354 101.38C65.4057 101.401 65.3613 101.435 65.3023 101.482C65.1655 101.586 65.0647 101.657 65.001 101.695C64.7755 101.829 64.5932 101.883 64.4554 101.858C64.3176 101.832 64.1745 101.708 64.0273 101.486C64.0032 101.451 63.8644 101.197 63.6101 100.724C63.3569 100.251 63.1036 99.8132 62.8514 99.4117C62.771 99.4748 62.6859 99.5364 62.5951 99.5981C62.5037 99.6602 62.4024 99.7244 62.2917 99.7902L62.1001 99.9045L62.2103 101.581C62.2463 102.127 62.3016 102.452 62.3774 102.556C62.4525 102.661 62.5883 102.655 62.7846 102.538C62.7909 102.534 62.7992 102.527 62.8097 102.517C62.8201 102.507 62.8285 102.499 62.8347 102.496C62.8431 102.491 62.8499 102.489 62.8556 102.489C62.8614 102.489 62.8655 102.489 62.8671 102.488L62.8906 102.848C62.7381 102.923 62.5873 103.002 62.4379 103.084C62.2881 103.165 62.1398 103.25 61.9926 103.337C61.9137 103.384 61.803 103.453 61.661 103.546C61.519 103.638 61.3571 103.745 61.1775 103.867L61.154 103.513L61.1551 103.514ZM62.0636 99.3433C62.1669 99.3004 62.2641 99.2555 62.3554 99.2091C62.4463 99.1626 62.5272 99.1177 62.5977 99.0759C62.6572 99.0404 62.7256 98.9971 62.8018 98.9459C62.8781 98.8948 62.9606 98.8358 63.0493 98.7674C63.2399 98.4342 63.3746 98.1001 63.4514 97.7649C63.5297 97.4292 63.5553 97.0684 63.5302 96.6831C63.4968 96.1766 63.3746 95.8283 63.1626 95.6367C62.9506 95.4451 62.6828 95.4456 62.3591 95.6388C62.2714 95.691 62.1868 95.7474 62.1048 95.8101C62.0228 95.8727 61.9419 95.9406 61.862 96.0142C61.8855 96.469 61.9116 96.9358 61.9409 97.414C61.9701 97.8918 62.0114 98.535 62.0646 99.3433H62.0636Z" fill="#0F1693"/>
<path id="Vector_57" d="M64.1792 93.6412C64.3238 93.578 64.4674 93.5128 64.6089 93.4438C64.7499 93.3754 64.8877 93.3044 65.0219 93.2324C65.1357 93.1708 65.2616 93.0992 65.4004 93.0162C65.5388 92.9337 65.685 92.8429 65.838 92.7452L65.9116 93.1029L65.8599 93.1306C65.7278 93.2021 65.6343 93.282 65.579 93.3697C65.5237 93.4585 65.496 93.5707 65.4949 93.708C65.4955 93.7973 65.5111 93.9346 65.5414 94.1189C65.5717 94.3038 65.6286 94.5993 65.7127 95.0071L65.9288 96.055L66.4703 98.677C66.5559 99.0916 66.6217 99.3798 66.6676 99.5422C66.7136 99.7046 66.7569 99.82 66.7976 99.8873C66.8425 99.9604 66.9026 99.9985 66.9788 100.001C67.055 100.003 67.1548 99.9698 67.2785 99.903L67.3427 99.8685L67.419 100.237C67.2414 100.317 67.0775 100.394 66.9282 100.467C66.7788 100.539 66.654 100.603 66.5543 100.657C66.4368 100.721 66.3042 100.796 66.158 100.883C66.0108 100.97 65.8578 101.064 65.6986 101.166L65.6223 100.798L65.6834 100.765C65.8093 100.697 65.9022 100.626 65.9607 100.551C66.0202 100.476 66.0536 100.388 66.062 100.285C66.0703 100.176 66.0583 100.009 66.0249 99.7876C65.9915 99.5657 65.9163 99.172 65.7999 98.6071L65.6281 97.7748L65.2031 95.7156C65.0893 95.1647 65.0041 94.7747 64.9483 94.546C64.8924 94.3173 64.8449 94.1612 64.8084 94.0798C64.7588 93.9701 64.6961 93.9064 64.6214 93.8882C64.5462 93.8704 64.4423 93.897 64.3082 93.9696L64.2533 93.9994L64.1797 93.6417L64.1792 93.6412Z" fill="#0F1693"/>
<path id="Vector_58" d="M66.2781 92.4539C66.6379 92.2947 66.9595 92.1485 67.2419 92.0159C67.5244 91.8843 67.7667 91.7663 67.9693 91.6629C68.1948 91.548 68.4214 91.4269 68.6491 91.2985C68.8772 91.1705 69.107 91.0358 69.3393 90.8933C69.4025 91.1585 69.4719 91.4285 69.5466 91.7021C69.6212 91.9757 69.698 92.2498 69.7768 92.5228L69.5805 92.6586C69.4657 92.2409 69.3236 91.9898 69.155 91.9073C68.9863 91.8248 68.6799 91.8963 68.2355 92.1224C68.1217 92.1803 67.915 92.2915 67.6158 92.4565C67.5557 92.491 67.5114 92.5155 67.4832 92.5296C67.5777 92.9583 67.692 93.4835 67.8262 94.1064C67.9609 94.7283 68.0486 95.1329 68.0893 95.3188L68.1838 95.2708C68.3034 95.2097 68.4538 95.1361 68.6344 95.0499C68.8156 94.9638 68.9357 94.9053 68.9968 94.874C69.2913 94.7241 69.4745 94.5769 69.5466 94.4328C69.6192 94.2887 69.6291 94.0855 69.5774 93.8214L69.7763 93.7561C69.8129 93.9832 69.8494 94.1936 69.886 94.3852C69.9225 94.5769 69.9591 94.7528 69.9956 94.9131C70.017 95.0055 70.0682 95.2024 70.1486 95.5026C70.1783 95.6107 70.2008 95.6926 70.2159 95.748L70.0207 95.8597L70.0107 95.8169C69.9408 95.5146 69.8431 95.336 69.7184 95.2807C69.5936 95.2253 69.3461 95.2916 68.977 95.4796L68.435 95.7558L68.2157 95.8675C68.2559 96.0414 68.3107 96.2826 68.3796 96.5912C68.4486 96.8998 68.4982 97.1217 68.5295 97.2564C68.5838 97.4908 68.6412 97.7346 68.7018 97.9874C68.7624 98.2406 68.8349 98.5366 68.92 98.8739C69.026 98.8436 69.1451 98.8008 69.2761 98.7465C69.4072 98.6912 69.5502 98.6243 69.7043 98.546C70.2138 98.2865 70.5292 98.0296 70.6503 97.7754C70.772 97.5206 70.8237 97.1238 70.8059 96.5849L71.0545 96.6011C71.0618 96.9274 71.0753 97.2439 71.0941 97.5519C71.1129 97.86 71.138 98.1633 71.1683 98.4614C70.8451 98.6024 70.5449 98.7376 70.2687 98.8661C69.9925 98.995 69.7434 99.1162 69.5226 99.2284C69.2203 99.3825 68.7378 99.6503 68.0752 100.031L67.9672 100.093L67.8873 99.7464C67.9019 99.7427 67.9165 99.738 67.9301 99.7333C67.9437 99.7281 67.9635 99.7192 67.9896 99.7057C68.2596 99.5678 68.2429 98.8337 67.9405 97.5023C67.8654 97.1676 67.8074 96.905 67.7656 96.7155L67.4419 95.2541C67.3714 94.9403 67.3036 94.6353 67.2362 94.3398C67.1689 94.0443 67.0958 93.7242 67.0159 93.3791C66.9454 93.0737 66.8645 92.8789 66.772 92.7949C66.6796 92.7108 66.5507 92.7113 66.3846 92.7959L66.3601 92.8084L66.2776 92.4513L66.2781 92.4539Z" fill="#0F1693"/>
<path id="Vector_59" d="M70.2217 90.4067C70.4483 90.3394 70.6201 90.2871 70.737 90.2506C70.854 90.2135 70.9474 90.1801 71.0174 90.1524C71.1516 90.0987 71.2816 90.0423 71.4085 89.9817C71.5353 89.9211 71.6591 89.8564 71.7823 89.7875L71.8867 90.1561L71.7912 90.1942C71.6278 90.2595 71.5447 90.3994 71.5416 90.614C71.538 90.8281 71.634 91.2787 71.8288 91.9658L72.1259 93.0126L73.2296 96.8632C73.3476 96.8277 73.4599 96.7917 73.5659 96.7552C73.6713 96.7181 73.7711 96.6816 73.863 96.6445C74.4159 96.4226 74.7474 96.1934 74.8576 95.9548C74.9683 95.7172 75.0006 95.3303 74.9537 94.7941L75.209 94.8207C75.2309 95.1481 75.2586 95.4671 75.2915 95.7783C75.3244 96.0895 75.364 96.3996 75.4105 96.7098C75.0633 96.8293 74.7448 96.9426 74.455 97.0491C74.1647 97.1556 73.8943 97.2595 73.6421 97.3603C73.4646 97.4313 73.2677 97.5154 73.0521 97.6114C72.8359 97.7075 72.5817 97.824 72.2898 97.9607L72.1927 97.6188C72.2078 97.6167 72.223 97.613 72.2365 97.6099C72.2501 97.6062 72.2705 97.5989 72.2971 97.5885C72.5749 97.4731 72.5232 96.7421 72.1431 95.395C72.0564 95.0901 71.9901 94.851 71.9436 94.6787L71.5437 93.246C71.4998 93.0915 71.4445 92.8936 71.3777 92.6503C71.3113 92.4075 71.2644 92.2388 71.2377 92.1443C71.0545 91.4995 70.9051 91.0917 70.7887 90.9215C70.6728 90.7518 70.5271 90.7012 70.3517 90.7717L70.3272 90.7816L70.2212 90.4078L70.2217 90.4067Z" fill="#0F1693"/>
<path id="Vector_60" d="M79.6747 87.1032L79.7222 87.2834C79.7875 87.5303 79.8606 87.7851 79.942 88.0488C80.0235 88.3125 80.1127 88.5876 80.2114 88.8748L79.9947 89.0001C79.8177 88.5036 79.5682 88.1464 79.245 87.9277C78.9218 87.7089 78.561 87.653 78.1611 87.7585C77.6295 87.8989 77.2896 88.277 77.1424 88.891C76.9952 89.505 77.0521 90.3059 77.3131 91.2933C77.5919 92.3474 77.9835 93.1562 78.4879 93.719C78.9923 94.2819 79.5092 94.4933 80.0391 94.3534C80.3722 94.2652 80.6275 94.0615 80.8051 93.743C80.9826 93.4245 81.075 93.0022 81.0818 92.4759L81.3429 92.5933C81.335 92.8408 81.335 93.0904 81.3429 93.3436C81.3507 93.5968 81.3643 93.848 81.3851 94.0991C81.2003 94.3325 80.9993 94.5257 80.7837 94.6771C80.568 94.8285 80.3388 94.9361 80.0981 94.9998C79.3886 95.1872 78.7187 94.9768 78.0885 94.368C77.4578 93.7598 76.9863 92.8648 76.6741 91.6838C76.3665 90.52 76.3477 89.5113 76.6171 88.6565C76.8876 87.8024 77.3899 87.2781 78.1245 87.0839C78.3422 87.0265 78.5814 86.9988 78.8419 87.0019C79.1024 87.0051 79.3802 87.039 79.6757 87.1038L79.6747 87.1032Z" fill="#0F1693"/>
<path id="Vector_61" d="M81.7689 85.317C82.043 85.2163 82.315 85.2006 82.585 85.2706C82.8549 85.3405 83.1347 85.4993 83.424 85.7462C83.7717 86.0459 84.0923 86.4239 84.3852 86.8797C84.6787 87.335 84.9277 87.842 85.1324 88.4002C85.3412 88.9687 85.4801 89.5279 85.549 90.0772C85.6179 90.627 85.6117 91.1251 85.5297 91.571C85.465 91.9286 85.348 92.233 85.1788 92.4837C85.0102 92.7343 84.8102 92.9014 84.58 92.9865C84.2912 93.0925 83.9889 93.0888 83.672 92.976C83.3551 92.8632 83.0314 92.6419 82.6998 92.3129C82.397 92.0127 82.1177 91.653 81.8629 91.2337C81.607 90.8144 81.3877 90.355 81.2045 89.8553C81.0055 89.3144 80.8719 88.7834 80.8024 88.2634C80.733 87.7433 80.733 87.264 80.8035 86.826C80.8667 86.4297 80.9815 86.1023 81.1481 85.8428C81.3146 85.5833 81.5214 85.4084 81.7684 85.3181L81.7689 85.317ZM84.6014 88.7991C84.2354 87.8029 83.7994 87.0353 83.2945 86.496C82.7896 85.9566 82.3322 85.7624 81.9213 85.9138C81.5261 86.059 81.3105 86.4495 81.2729 87.0849C81.2353 87.7209 81.3851 88.4968 81.7224 89.4141C82.0973 90.4343 82.5406 91.2217 83.0517 91.7757C83.5634 92.3302 84.0229 92.5322 84.4301 92.3829C84.8233 92.2383 85.0363 91.8404 85.0702 91.1888C85.1037 90.5372 84.9481 89.7404 84.6019 88.7991H84.6014Z" fill="#0F1693"/>
<path id="Vector_62" d="M88.3001 88.5302L87.4809 84.9171L87.4475 84.7683C87.1802 83.5821 86.9974 82.8929 86.8987 82.7012C86.8956 82.695 86.8893 82.6861 86.881 82.6736C86.8726 82.6616 86.8669 82.6522 86.8632 82.6459C86.9791 82.5984 87.0836 82.554 87.1755 82.5133C87.2679 82.4726 87.3488 82.4339 87.4182 82.3979C87.4845 82.3639 87.5597 82.3227 87.6438 82.2731C87.7284 82.2235 87.8197 82.1671 87.919 82.105L88.0913 82.4407L88.0573 82.4579C87.8934 82.542 87.8051 82.6485 87.7936 82.7775C87.7822 82.9059 87.8406 83.0954 87.9686 83.3455C88.0187 83.4432 88.1341 83.6583 88.3142 83.9924C88.4943 84.3266 88.6912 84.6869 88.9037 85.0732L89.6524 86.4166L89.7229 86.5467C90.3865 87.7392 90.7703 88.4096 90.8742 88.5568C90.9337 88.6456 91.0062 88.7004 91.0908 88.7223C91.1765 88.7443 91.2657 88.7312 91.3602 88.6826L91.4313 88.6461L91.6056 88.987C91.4495 89.0502 91.3059 89.1118 91.1749 89.1714C91.0433 89.2304 90.9352 89.2815 90.8512 89.3249C90.7515 89.376 90.6413 89.4366 90.5207 89.5071C90.3995 89.577 90.2716 89.6548 90.1369 89.7405L89.9573 89.3896C89.9745 89.3807 89.997 89.3713 90.0252 89.3609C90.0529 89.3504 90.0732 89.3426 90.0842 89.3369C90.2272 89.2632 90.304 89.1687 90.315 89.0523C90.3259 88.9359 90.2722 88.7631 90.1542 88.5328C90.0993 88.4258 90.044 88.3203 89.9886 88.2174C89.9338 88.1146 89.8764 88.0086 89.8158 87.9005L87.5597 83.7695L88.7517 88.9562C88.7533 88.9635 88.757 88.9797 88.7627 89.0058C88.8368 89.3734 88.9454 89.7504 89.0885 90.1362L88.9016 90.2318C88.7721 90.0443 88.5481 89.7697 88.2296 89.4084L88.1957 89.3703L84.7774 85.5092C84.9439 85.8622 85.1726 86.3477 85.4624 86.9654C86.1813 88.4983 86.6382 89.4549 86.8324 89.835L86.8575 89.884C87.0684 90.296 87.2235 90.5315 87.3211 90.59C87.4193 90.6479 87.5509 90.6349 87.7174 90.5498L87.7764 90.5195L87.9508 90.8604C87.8213 90.91 87.6991 90.9607 87.5838 91.0118C87.4678 91.0625 87.3577 91.1152 87.2517 91.1695C87.1765 91.2081 87.0841 91.2593 86.975 91.3241C86.8658 91.3878 86.7505 91.4593 86.6288 91.5381L86.4544 91.1972L86.5338 91.1565C86.6418 91.1011 86.7102 91.0374 86.7395 90.9648C86.7687 90.8923 86.7698 90.791 86.7416 90.6625C86.7092 90.5111 86.4701 89.953 86.0237 88.9897C85.8999 88.7249 85.8033 88.514 85.7323 88.3579L85.1794 87.1534L85.1721 87.1387C84.6259 85.9473 84.3121 85.2722 84.2307 85.1129C84.1263 84.9088 84.0234 84.7808 83.9247 84.7292C83.8261 84.678 83.696 84.6926 83.5352 84.7751L83.4898 84.7981L83.3175 84.4624C83.3326 84.4545 83.3582 84.443 83.3937 84.4289C83.624 84.3396 83.7827 84.2728 83.8694 84.2284C83.9357 84.1945 84.0563 84.1209 84.2312 84.0065C84.2866 83.9705 84.3289 83.9444 84.3591 83.9287L84.3743 83.958C84.5226 84.2472 85.5407 85.4465 87.4287 87.5564L88.2991 88.5307L88.3001 88.5302Z" fill="#0F1693"/>
<path id="Vector_63" d="M93.8915 85.3129L92.6687 81.8215L92.6186 81.6774C92.2186 80.5308 91.9596 79.8677 91.8411 79.6871C91.8369 79.6813 91.8302 79.673 91.8202 79.6615C91.8108 79.6505 91.804 79.6416 91.7999 79.6359C91.9074 79.578 92.004 79.5242 92.0891 79.4751C92.1742 79.4255 92.2489 79.3795 92.3126 79.3378C92.3732 79.2981 92.4416 79.2501 92.5183 79.1931C92.5951 79.1357 92.6781 79.0715 92.7668 79.0005L92.9741 79.3158L92.9428 79.3362C92.7924 79.4354 92.7188 79.5487 92.723 79.6772C92.7266 79.8051 92.806 79.9868 92.9605 80.2217C93.0206 80.3131 93.1584 80.5152 93.3735 80.8274C93.5887 81.1396 93.8231 81.4769 94.0758 81.8387L94.9644 83.0944L95.0485 83.2161C95.8359 84.3308 96.2891 84.9558 96.4081 85.0915C96.4765 85.1735 96.5538 85.221 96.6394 85.2341C96.7255 85.2477 96.8112 85.2257 96.8979 85.1688L96.9631 85.126L97.1735 85.4461C97.0284 85.5239 96.8958 85.5985 96.7746 85.6695C96.653 85.7405 96.5538 85.8016 96.4765 85.8523C96.3851 85.9123 96.2844 85.9828 96.1747 86.0642C96.0645 86.1452 95.9486 86.2345 95.827 86.3321L95.6103 86.0026C95.626 85.9922 95.6469 85.9812 95.6735 85.9682C95.6996 85.9556 95.7179 85.9457 95.7283 85.9389C95.8599 85.8528 95.9236 85.7515 95.9204 85.6356C95.9173 85.5197 95.8447 85.3536 95.7027 85.1375C95.6364 85.0367 95.5706 84.938 95.5043 84.842C95.4385 84.7454 95.3701 84.6467 95.2986 84.5454L92.6123 80.6807L94.3833 85.6915C94.3854 85.6982 94.3917 85.7144 94.4 85.739C94.5154 86.0951 94.6658 86.4569 94.8501 86.8245L94.6788 86.9372C94.5306 86.7644 94.2794 86.5143 93.9265 86.1885L93.8889 86.1541L90.0988 82.6684C90.303 83.001 90.5828 83.4589 90.9384 84.041C91.8197 85.4868 92.3779 86.388 92.6123 86.7446L92.6426 86.7905C92.8968 87.1774 93.0754 87.3951 93.1777 87.4437C93.2801 87.4917 93.4075 87.4661 93.5599 87.3659L93.6142 87.3304L93.8247 87.6504C93.704 87.7121 93.5907 87.7737 93.4837 87.8353C93.3767 87.8964 93.2749 87.959 93.1777 88.0232C93.1088 88.0687 93.0242 88.1282 92.9256 88.2023C92.8264 88.2759 92.7225 88.3574 92.6128 88.4472L92.4024 88.1271L92.475 88.0796C92.5742 88.0144 92.6332 87.9449 92.6535 87.8708C92.6739 87.7966 92.6629 87.6964 92.6201 87.5716C92.5705 87.4254 92.2719 86.897 91.7231 85.9875C91.5712 85.7374 91.4521 85.539 91.3649 85.3912L90.6841 84.2541L90.6752 84.2405C90.0022 83.1158 89.6174 82.4789 89.5187 82.329C89.3929 82.1374 89.2775 82.0204 89.1746 81.9792C89.0723 81.9379 88.947 81.9651 88.7998 82.0622L88.758 82.0894L88.5507 81.774C88.5648 81.7646 88.5883 81.751 88.6212 81.7338C88.8358 81.6231 88.9825 81.5416 89.0619 81.4894C89.1224 81.4498 89.2316 81.3652 89.3892 81.2352C89.4388 81.1939 89.4775 81.1642 89.5052 81.1464L89.5229 81.1735C89.7015 81.445 90.836 82.5321 92.9271 84.4352L93.891 85.314L93.8915 85.3129Z" fill="#0F1693"/>
<path id="Vector_64" d="M94.223 77.8371L94.6543 77.4644C95.8191 78.3734 96.89 79.1967 97.8674 79.9345C98.8448 80.6723 99.5857 81.2205 100.092 81.5797C100.385 81.7844 100.582 81.8966 100.683 81.9149C100.785 81.9337 100.88 81.9045 100.97 81.8267L101.021 81.7833L101.267 82.0689C101.127 82.1702 101.001 82.2652 100.888 82.353C100.775 82.4402 100.682 82.5159 100.609 82.5796C100.515 82.6605 100.414 82.7519 100.307 82.8547C100.2 82.9565 100.088 83.0677 99.9726 83.1868L99.7262 82.9012L99.7737 82.8599C99.8927 82.7571 99.9538 82.6647 99.958 82.5811C99.9616 82.4981 99.911 82.3958 99.806 82.2741C99.7679 82.2297 99.7225 82.1833 99.6687 82.1352C99.6155 82.0867 99.5492 82.0324 99.4698 81.9702L98.1274 80.913C98.0637 80.9678 97.9755 81.0414 97.8627 81.1338C97.6549 81.2988 97.5223 81.4058 97.4659 81.4549C97.3521 81.5531 97.2456 81.6465 97.1453 81.7353C97.0456 81.8241 96.9438 81.918 96.8394 82.0178C97.1479 82.6156 97.3787 83.0469 97.5312 83.3111C97.6842 83.5752 97.8022 83.7559 97.8857 83.8525C98.0032 83.9882 98.106 84.0645 98.1964 84.0807C98.2867 84.0968 98.388 84.0566 98.4997 83.9601L98.5671 83.9016L98.8135 84.1872C98.6819 84.2812 98.5608 84.372 98.4501 84.4582C98.3389 84.5438 98.2418 84.6231 98.1582 84.6952C98.0909 84.7532 98.01 84.8278 97.9149 84.9202C97.8194 85.0121 97.7176 85.1145 97.61 85.2267L97.3667 84.9448C97.4811 84.8367 97.5411 84.7161 97.5474 84.5829C97.5536 84.4498 97.5087 84.2754 97.4127 84.0593C97.2273 83.6551 96.8347 82.8646 96.2342 81.6883C95.6338 80.5109 94.9639 79.227 94.2235 77.8366L94.223 77.8371ZM95.0083 78.518L96.572 81.4904C96.6039 81.4628 96.6514 81.4246 96.7141 81.3756C96.9104 81.2205 97.0425 81.1134 97.1109 81.0545C97.1944 80.9819 97.3422 80.8472 97.5547 80.6498C97.6006 80.6054 97.6361 80.572 97.6612 80.5501L95.0088 78.5185L95.0083 78.518Z" fill="#0F1693"/>
<path id="Vector_65" d="M95.8557 77.1245C95.9251 77.0571 95.9909 76.9898 96.0515 76.9219C96.1121 76.854 96.1695 76.7851 96.2227 76.7156C96.2624 76.6634 96.3058 76.6008 96.3538 76.5266C96.4013 76.453 96.4499 76.371 96.5005 76.2812C96.6123 76.3335 96.7329 76.3794 96.8629 76.4196C96.9929 76.4598 97.1401 76.4984 97.3051 76.5345L103.08 77.7735C102.635 77.4419 102.049 76.9997 101.318 76.4488C99.781 75.2939 98.9482 74.6804 98.8203 74.6078C98.672 74.5253 98.553 74.4893 98.4626 74.4987C98.3723 74.5081 98.2851 74.5687 98.1995 74.6809L98.1421 74.7561L97.8424 74.5269C97.857 74.5076 97.881 74.4794 97.9134 74.4423C98.1097 74.2277 98.2439 74.0732 98.3154 73.9797C98.3885 73.8842 98.506 73.7098 98.6678 73.4561C98.6908 73.42 98.7096 73.3934 98.7232 73.3751L99.0213 73.6064C99.0109 73.6137 99.0009 73.6231 98.9905 73.633C98.9801 73.643 98.9681 73.6581 98.9534 73.6774C98.7874 73.8946 99.2432 74.4183 100.321 75.2474C100.592 75.4573 100.804 75.6213 100.958 75.7388L102.107 76.6326C102.275 76.7668 102.45 76.9031 102.63 77.0425C102.811 77.1819 103.059 77.372 103.375 77.6137C103.726 77.8821 104 78.0883 104.199 78.2329C104.399 78.3776 104.562 78.4898 104.689 78.5697L104.483 78.8396C104.346 78.7785 104.039 78.6987 103.563 78.6015L103.492 78.5859L97.5129 77.3176L97.6132 77.3944C100.332 79.4583 101.779 80.5391 101.952 80.6357C102.101 80.7182 102.22 80.7548 102.31 80.7454C102.399 80.736 102.486 80.6764 102.569 80.5684L102.625 80.4953L102.929 80.7281C102.908 80.7501 102.878 80.7835 102.839 80.8284C102.648 81.0419 102.521 81.1897 102.458 81.2722C102.397 81.3521 102.333 81.4419 102.265 81.5432C102.197 81.6439 102.127 81.752 102.057 81.8679L101.758 81.6387C101.765 81.6288 101.774 81.6178 101.785 81.6074C101.796 81.5964 101.808 81.5808 101.823 81.5614C101.989 81.3442 101.536 80.8237 100.464 79.9982C100.192 79.7883 99.981 79.6244 99.8269 79.5069L98.6804 78.6109C98.4324 78.4188 98.1911 78.2319 97.9557 78.0507C97.7202 77.8695 97.4502 77.6622 97.1459 77.4299C96.8968 77.2393 96.7041 77.1339 96.5674 77.1145C96.4311 77.0947 96.311 77.1532 96.2066 77.2889L96.1564 77.3547L95.8567 77.1255L95.8557 77.1245Z" fill="#0F1693"/>
<path id="Vector_66" d="M105.223 77.0153L104.926 76.8268C104.932 76.8148 104.939 76.8023 104.947 76.7898C104.956 76.7767 104.967 76.7574 104.979 76.7318C105.113 76.4681 104.649 75.9967 103.588 75.3163C103.32 75.143 103.111 75.0073 102.959 74.9086L101.822 74.1698C101.577 74.011 101.337 73.857 101.105 73.7072C100.872 73.5573 100.604 73.3871 100.304 73.196C100.057 73.0394 99.8708 72.9621 99.7439 72.9658C99.617 72.9694 99.5126 73.0519 99.4306 73.2143L99.4186 73.2383L99.1221 73.0498C99.1967 72.9245 99.2662 72.8086 99.3299 72.701C99.3936 72.5935 99.4447 72.5021 99.4829 72.4264C99.593 72.2087 99.7027 71.9607 99.8113 71.6829C99.9204 71.4051 99.9857 71.2433 100.009 71.1984C100.382 70.4617 100.947 70.0534 101.703 69.974C102.459 69.8946 103.303 70.1515 104.234 70.7441C105.191 71.3529 105.854 72.0547 106.221 72.8504C106.589 73.6461 106.593 74.3995 106.233 75.1106C106.18 75.2151 106.071 75.3988 105.908 75.662C105.745 75.9251 105.619 76.1418 105.532 76.3146C105.49 76.3956 105.443 76.4963 105.39 76.6175C105.337 76.7376 105.28 76.8707 105.221 77.0169L105.223 77.0153ZM105.236 75.6333C105.355 75.5179 105.46 75.3973 105.553 75.2709C105.644 75.1451 105.726 75.0114 105.797 74.871C106.08 74.3123 106.077 73.7442 105.786 73.1652C105.496 72.5862 104.942 72.0369 104.122 71.5153C103.248 70.9592 102.482 70.6846 101.824 70.6898C101.166 70.6956 100.692 70.9833 100.403 71.5534C100.343 71.6704 100.29 71.7931 100.241 71.922C100.193 72.051 100.15 72.1873 100.111 72.3303C101.148 73.0054 101.967 73.537 102.565 73.9249C103.164 74.3128 103.665 74.6339 104.066 74.8887L105.235 75.6322L105.236 75.6333Z" fill="#0F1693"/>
</g>
<defs>
<clipPath id="clip0_527_10868">
<rect width="113.899" height="112" fill="white" transform="translate(0.250275)"/>
</clipPath>
</defs>
</svg>
