<svg width="115" height="112" viewBox="0 0 115 112" fill="none" xmlns="http://www.w3.org/2000/svg">
<g id="Air_Education_and_Training_Command 1" clip-path="url(#clip0_527_10805)">
<path id="Vector" d="M57.3556 95.3832C51.54 87.8396 35.9203 83.6424 28.9562 79.7218C28.8622 79.6696 28.7735 79.6122 28.6795 79.5652C12.376 70.8157 17.1945 56.971 17.1945 56.971C17.1945 56.971 15.5918 50.0017 10.5906 49.5945C6.18449 49.2447 5.63112 53.9797 5.63112 53.9797C5.63112 53.9797 5.66766 57.4617 0.932694 65.7779C-1.27557 69.6463 5.10907 71.463 5.10907 71.463C5.10907 71.463 -0.059195 83.1255 25.8866 96.1089C26.0849 96.2081 26.2833 96.3281 26.4973 96.4116C41.5323 102.42 44.4819 103.971 44.4819 103.971C44.4819 103.971 51.9472 107.38 57.1572 111.984C62.4194 107.437 69.9317 104.112 69.9317 104.112C69.9317 104.112 72.9021 102.587 88.005 96.7562C88.219 96.6727 88.4174 96.5578 88.621 96.4586C114.723 83.7729 109.675 72.0529 109.675 72.0529C109.675 72.0529 116.07 70.3041 113.904 66.4096C109.252 58.0568 109.325 54.5591 109.325 54.5591C109.325 54.5591 108.829 49.8189 104.413 50.1217C99.4169 50.4611 97.7203 57.4043 97.7203 57.4043C97.7203 57.4043 102.387 71.3064 85.9846 79.8523L85.7027 80.0089C78.6968 83.8564 63.2547 87.8762 57.366 95.3519" fill="#FECC36"/>
<path id="Vector_2" d="M96.9528 59.2001C97.5897 63.2199 97.2086 73.1858 85.8959 78.9074C85.7967 78.9544 85.7079 79.0118 85.614 79.064C78.6081 82.9115 63.4374 86.5606 57.533 94.0364C51.7122 86.4928 36.6512 83.0734 29.6975 79.1632L29.4156 79.0014C16.4427 72.0425 17.0378 62.4003 17.7426 58.5319L16.7768 58.5893C16.7768 58.5893 15.8058 52.7268 11.7025 50.8056C11.3908 50.7071 11.0712 50.6355 10.7472 50.5916C10.2426 50.5414 9.73307 50.5949 9.24995 50.7489C8.76683 50.9029 8.32033 51.1542 7.93793 51.4872C7.55553 51.8202 7.24531 52.2279 7.02636 52.6853C6.80741 53.1427 6.68435 53.64 6.66477 54.1467L6.63345 54.4234C6.81094 57.2738 8.59634 57.9055 8.59634 57.9055L11.0291 53.8387C11.0291 53.8387 16.7403 56.449 11.0291 64.1805L8.61723 67.3441L7.28601 69.1765C6.76508 69.8964 6.34691 70.6853 6.04353 71.5205C5.49016 73.2223 3.21404 83.7886 26.4921 95.4407C26.6905 95.5399 26.8837 95.6547 27.0925 95.7382C41.8299 101.622 44.722 103.146 44.722 103.146C44.722 103.146 52.0307 106.487 57.1467 110.977C62.3046 106.519 69.6759 103.261 69.6759 103.261C69.6759 103.261 72.5889 101.768 87.3889 96.0515C87.5977 95.9679 87.7961 95.8531 87.9945 95.7591C111.403 84.3733 109.247 73.7861 108.715 72.0791C108.419 71.2407 108.009 70.4468 107.498 69.7194L106.188 67.8713L103.776 64.7338C98.1849 56.9397 103.922 54.3921 103.922 54.3921L106.313 58.4902C106.313 58.4902 108.104 57.8794 108.313 55.029L108.281 54.7523C108.268 54.2457 108.152 53.7471 107.939 53.2873C107.725 52.8274 107.421 52.4161 107.042 52.0786C106.664 51.7411 106.221 51.4847 105.74 51.325C105.259 51.1653 104.751 51.1058 104.246 51.1502C103.921 51.193 103.6 51.261 103.285 51.3538C99.1559 53.2488 98.1222 59.0801 98.1222 59.0801L96.9528 59.2001Z" fill="white"/>
<path id="Vector_3" d="M57.3556 95.3832C51.4512 87.9075 36.0299 83.8982 29.0241 80.0403L28.7422 79.8837C12.3394 71.3221 17.0013 57.4356 17.0013 57.4356C20.2223 44.7186 20.0501 40.4273 20.0501 40.4273C21.5797 21.926 12.9398 11.7774 12.9398 11.7774L24.5867 0H90.1401L101.787 11.7774C101.787 11.7774 93.1471 21.926 94.6715 40.4117C94.6715 40.4117 94.4992 44.7029 97.715 57.42C97.715 57.42 102.382 71.3221 85.9794 79.868L85.6975 80.0246C78.6916 83.8878 63.2651 87.9075 57.3556 95.3832Z" fill="#FECC36"/>
<path id="Vector_4" d="M57.3556 92.1779C51.8062 85.1512 37.309 81.3715 30.7312 77.7537C30.6424 77.7015 30.5589 77.6493 30.4701 77.6076C15.0489 69.5576 20.1649 56.4908 20.1649 56.4908C23.1302 44.5411 22.7752 40.3334 22.7752 40.3334C24.1899 22.9701 16.3958 12.3987 16.3958 12.3987L25.7926 2.5163H88.9603L98.472 12.0698C98.472 12.0698 90.5369 22.9179 91.9464 40.2864C91.9464 40.2864 91.5653 44.5411 94.5306 56.4699C94.5306 56.4699 99.6623 69.521 84.2462 77.5867C84.1575 77.6284 84.074 77.6806 83.98 77.7329C77.4074 81.3715 62.9049 85.1512 57.3556 92.1779Z" fill="#004996"/>
<path id="Vector_5" d="M105.567 59.1949L103.478 55.7494C103.478 55.7494 101.735 57.2059 102.57 58.6885C103.405 60.1711 105.473 59.2419 105.473 59.2419L105.567 59.1949Z" fill="white"/>
<path id="Vector_6" d="M109.425 71.0611C109.131 70.3154 108.753 69.606 108.297 68.9468L106.987 67.104L104.58 63.9091C103.571 62.5825 102.813 61.082 102.346 59.4821C102.346 59.4821 103.39 60.8968 105.687 60.2182C107.984 59.5395 108.532 57.0859 108.532 57.0859L108.652 56.8771C109.132 58.7147 110.218 61.7948 112.771 66.3522C114.415 69.3122 110.959 70.6487 109.325 71.0976" fill="white"/>
<path id="Vector_7" d="M9.32724 58.6416L11.4154 55.2274C11.4154 55.2274 13.1434 56.6996 12.2925 58.177C11.4415 59.6544 9.38467 58.699 9.38467 58.699L9.32724 58.6416Z" fill="white"/>
<path id="Vector_8" d="M5.33878 70.4763C5.64044 69.7376 6.02766 69.0367 6.4925 68.3881L7.82372 66.561L10.2669 63.3921C11.2924 62.0785 12.0658 60.5864 12.5483 58.9913C12.5483 58.9913 11.5042 60.3904 9.20193 59.6856C6.8997 58.9808 6.39331 56.5116 6.39331 56.5116L6.27324 56.3027C5.7512 58.1351 4.63401 61.1995 2.04988 65.7309C0.368888 68.6753 3.80918 70.0482 5.43797 70.5129" fill="white"/>
<path id="Vector_9" d="M16.2182 73.2432L10.6793 77.785C10.3295 78.0669 10.4496 78.1974 10.5227 78.354L10.0998 78.5837L9.3742 77.2525L9.79705 77.0176C10.0268 77.3726 10.079 77.5396 10.5279 77.1742L11.6921 76.2188L11.05 75.0494L10.1625 75.3522C9.28545 75.6498 9.21758 75.9474 9.4003 76.2867L8.97222 76.5164L8.35098 75.3679L8.77384 75.1382C8.93568 75.4305 9.4264 75.3 9.81794 75.1382L16.1138 73.0865L16.2182 73.2432ZM11.5772 74.8511L12.1254 75.8586L14.6208 73.8383L11.5772 74.8511Z" fill="#004996"/>
<path id="Vector_10" d="M17.847 75.9266L17.4607 76.2189L17.3563 76.0779C17.2467 75.9318 17.137 75.7752 16.7507 76.0779L12.1776 79.5391L12.0523 79.6279C11.7286 79.8576 11.8278 80.0246 11.974 80.2178L12.0471 80.317L11.6556 80.6145L10.6741 79.3146L11.0604 79.0223L11.1387 79.1319C11.2745 79.3094 11.4154 79.4399 11.8017 79.1319L16.4218 75.6342C16.7768 75.3575 16.7351 75.2636 16.5315 75.0025L16.4688 74.9138L16.8604 74.6162L17.847 75.9266Z" fill="#004996"/>
<path id="Vector_11" d="M19.1156 77.2995C19.4863 77.6858 19.5489 78.5211 18.5936 79.466C17.6382 80.4109 16.8238 80.343 16.4166 79.9881C16.521 80.1969 16.6881 80.5414 15.8946 81.5542C15.6597 81.8518 15.2525 82.332 15.2525 82.332C14.8192 82.8541 14.767 83.0003 14.8348 83.0734C14.9027 83.1464 15.55 82.6557 15.7327 82.473L15.8737 82.6192C15.2159 83.2508 14.4485 83.8355 14.1092 83.4858C13.8534 83.2195 14.1614 82.6714 14.7043 82.0867C14.7043 82.0867 15.1637 81.6064 15.4091 81.3349C16.1295 80.5623 16.2182 80.1447 16.0512 79.8471C15.9669 79.7296 15.8707 79.6211 15.7641 79.5234L13.7124 81.5124C13.394 81.8204 13.5401 81.9562 13.6654 82.0815C13.7013 82.1215 13.7328 82.1653 13.7594 82.212L13.4201 82.5409L12.2872 81.3663L12.6318 81.0321C12.8667 81.1992 12.9137 81.5542 13.4305 81.0321L17.4973 77.0907C17.8627 76.7409 17.8366 76.6522 17.6487 76.459C17.5965 76.4068 17.5599 76.3494 17.5181 76.3076L17.8627 75.9735L19.1156 77.2995ZM18.3482 77.2316C18.2229 77.1064 18.0298 77.2891 17.8679 77.4457L16.093 79.1684C16.1557 79.2621 16.2293 79.3479 16.3122 79.4242C16.7664 79.8941 17.1684 79.9985 18.1185 79.0797C18.7084 78.5054 19.0008 77.9886 18.7711 77.7015L18.4422 77.2995C18.409 77.2796 18.3775 77.2569 18.3482 77.2316Z" fill="#004996"/>
<path id="Vector_12" d="M24.1064 81.2305L22.6029 83.5275L22.4306 83.4075C23.339 81.7996 23.4747 81.3871 22.6655 80.7972L22.5768 80.7346C22.3993 80.6145 22.2897 80.4997 22.0548 80.8599L20.5774 83.0055L20.7235 83.1047C21.0681 83.3448 21.444 83.1569 22.1017 82.2642L22.2845 82.3895L20.2746 85.3025L20.0919 85.1772C20.6139 84.3785 20.8436 83.7886 20.5147 83.5589L20.2955 83.4127L18.6667 85.7723C18.4109 86.1482 18.6667 86.2944 18.8703 86.4249C19.6638 86.9469 20.0188 86.7068 21.303 85.2033L21.4701 85.3182L19.7682 87.6517L17.2676 85.929L17.539 85.527L17.633 85.5948C17.8784 85.7619 17.9932 85.8402 18.3534 85.3182L21.5484 80.6772C21.8303 80.2752 21.7572 80.223 21.6267 80.1081L21.4022 79.9411L21.6789 79.5443L24.1064 81.2305Z" fill="#004996"/>
<path id="Vector_13" d="M25.85 82.2955C26.3199 82.5721 26.8941 83.0107 26.3042 84.77C26.077 85.4156 25.7849 86.0366 25.4324 86.6232C24.618 88.0171 23.6157 89.0247 22.8952 89.1708C22.6103 89.2452 22.3078 89.2079 22.0495 89.0664L20.4834 88.1581L20.7287 87.7404C21.2142 87.9492 21.1255 88.1581 21.6319 87.2967L24.2421 82.8175C24.6754 82.0762 24.5606 82.2067 24.1586 81.8883C24.1586 81.8883 24.3987 81.4654 24.4039 81.4706L25.85 82.2955ZM24.8581 82.8958L22.013 87.7456C21.7311 88.2259 21.658 88.2677 22.1435 88.56C22.2805 88.672 22.452 88.7331 22.629 88.7331C22.8059 88.7331 22.9774 88.672 23.1145 88.56C23.6679 88.1633 24.1899 87.4742 24.9208 86.2317C25.4428 85.3129 26.0588 84.1696 26.0275 83.5275C26.0363 83.3462 25.9914 83.1663 25.8986 83.0104C25.8057 82.8544 25.669 82.7292 25.5055 82.6505C25.2549 82.4834 25.1714 82.3581 24.8581 82.8958Z" fill="#004996"/>
<path id="Vector_14" d="M29.0293 84.0496L28.81 84.4933C28.6534 84.4516 28.3506 84.1436 28.147 84.556L26.1372 88.5392C25.5107 89.7869 25.5786 90.5334 26.1058 90.7945C26.6331 91.0555 27.3901 90.4186 27.933 89.3327L29.4991 86.1587C29.9429 85.266 29.828 85.0519 29.4991 84.8222L29.7132 84.3942L30.9609 85.0154L30.7468 85.4487C30.3866 85.2712 30.063 85.5531 29.6453 86.3884L28.288 89.0978C27.4266 90.8206 26.5444 91.661 25.6778 91.233C25.5106 91.1432 25.37 91.0111 25.2701 90.8498C25.1702 90.6885 25.1146 90.5038 25.1087 90.3142C25.0696 89.7412 25.1946 89.169 25.4689 88.6645L27.6459 84.3106C27.8651 83.8826 27.578 83.8356 27.3379 83.7103L27.5519 83.277L29.0293 84.0496Z" fill="#004996"/>
<path id="Vector_15" d="M33.2787 86.6598L33.7434 86.1378L33.9104 86.2108L32.694 89.0664L32.4852 88.9986C33.0073 87.4794 33.1639 86.3309 32.5792 86.0699C32.2503 85.9185 31.7961 86.1586 31.2741 86.8947C30.8091 87.5791 30.4138 88.3084 30.0943 89.0717C29.1807 91.0972 29.0502 92.2718 29.7079 92.5798C30.3657 92.8878 31.0966 92.0056 31.7126 90.8466L31.8901 91.0189C31.0287 92.632 30.1569 93.3107 29.4469 92.9922C28.5542 92.585 28.6325 90.7474 29.5304 88.7689C29.9032 87.8757 30.4337 87.057 31.0966 86.3518C31.7387 85.7253 32.2869 85.4069 32.7671 85.6261C32.9422 85.7316 33.0834 85.885 33.1741 86.0682C33.2648 86.2513 33.3011 86.4566 33.2787 86.6598Z" fill="#004996"/>
<path id="Vector_16" d="M35.9516 87.0304L34.4377 94.0154C34.3437 94.4539 34.5108 94.48 34.6674 94.5375L34.4794 94.9812L33.0804 94.3861L33.2735 93.9423C33.6703 94.0781 33.7956 94.172 33.9417 93.6082L34.2602 92.1465L33.0334 91.6244L32.5113 92.418C31.9893 93.1958 32.1407 93.4621 32.5113 93.6239L32.3234 94.0676L31.1227 93.5456L31.3106 93.1018C31.6186 93.2324 31.9266 92.8252 32.1563 92.4649L35.8107 86.926L35.9516 87.0304ZM33.3414 91.1755L34.3855 91.6244L35.085 88.4922L33.3414 91.1755Z" fill="#004996"/>
<path id="Vector_17" d="M40.3421 89.0143L39.298 91.8177L39.1152 91.7446C39.4963 90.6222 39.8409 89.3223 39.2927 89.0978C39.1466 89.0404 39.0317 89.0978 38.8855 89.4424L36.6825 94.809C36.4998 95.2475 36.5885 95.3311 36.8339 95.4303L36.9957 95.5347L36.8078 95.9836L35.2155 95.3259L35.3983 94.8821C35.4452 94.8821 35.5705 94.9291 35.5914 94.9395C35.842 95.0387 35.9569 95.1118 36.1135 94.6837L38.3531 89.2336C38.4783 88.936 38.447 88.795 38.2904 88.7115C37.7684 88.4923 37.1523 89.5363 36.5677 90.6901L36.3902 90.6118L37.5961 87.9023L40.3421 89.0143Z" fill="#004996"/>
<path id="Vector_18" d="M42.1849 89.7922L42.0021 90.2411L41.8403 90.1785C41.6733 90.1054 41.4958 90.0271 41.3183 90.4708L39.157 95.7853L39.0943 95.9262C38.9325 96.2864 39.0943 96.3804 39.3293 96.4744L39.4389 96.5161L39.251 96.9755L37.7475 96.3595L37.9302 95.9158L38.0503 95.9628C38.2643 96.0515 38.447 96.0933 38.6297 95.6443L40.8171 90.2777C40.9894 89.86 40.9006 89.8026 40.5926 89.6773L40.4934 89.6355L40.6762 89.1761L42.1849 89.7922Z" fill="#004996"/>
<path id="Vector_19" d="M44.2574 94.8037C43.5213 96.5891 42.0961 98.291 41.1251 97.8995C40.1541 97.5079 40.3003 95.4302 41.0781 93.5456C41.7881 91.8228 43.2081 90.0165 44.2104 90.4133C45.2127 90.8101 45.0509 92.8826 44.2574 94.8037ZM41.6889 93.7596C41.0573 95.2892 40.5091 97.1007 41.3339 97.44C42.1588 97.7794 43.1141 95.9052 43.6779 94.5323C44.2417 93.1593 44.9047 91.212 44.0329 90.8779C43.1611 90.5438 42.3206 92.2457 41.6942 93.7753L41.6889 93.7596Z" fill="#004996"/>
<path id="Vector_20" d="M47.1391 91.8281L46.5596 97.9518L48.2406 94.193C48.6374 93.3107 48.5539 93.0758 48.2406 92.8461L48.439 92.4024L49.7076 92.9714L49.5092 93.4152C49.1438 93.3107 48.8828 93.4152 48.4338 94.4123L45.9488 99.9669L45.7766 99.8885L46.4396 92.9558L44.4819 97.3305C44.1008 98.1762 44.2104 98.4372 44.5393 98.6408L44.3462 99.0741L43.041 98.4895L43.2394 98.0457C43.6675 98.171 43.9181 97.9726 44.367 96.9651L46.3665 92.5016C46.3971 92.4455 46.4146 92.3831 46.4177 92.3192C46.4207 92.2554 46.4093 92.1917 46.3841 92.1329C46.359 92.0741 46.3209 92.0217 46.2726 91.9798C46.2243 91.9379 46.1672 91.9074 46.1055 91.8908L46.0115 91.849L46.2099 91.4053L47.1391 91.8281Z" fill="#004996"/>
<path id="Vector_21" d="M51.9419 96.3752C51.66 97.3253 51.0858 97.6959 50.7621 97.7325C50.736 98.0562 50.6473 100.045 50.6943 100.489C50.9879 100.11 51.2172 99.6845 51.3729 99.2308C51.5243 98.7087 51.2633 98.6461 51.1328 98.526L51.2476 98.1188L52.2917 98.7348L52.1769 99.1368C51.9785 99.0272 51.7906 99.1055 51.6078 99.403C51.3315 99.909 51.021 100.396 50.6786 100.86C50.7308 101.178 50.7465 101.59 50.9187 101.69C51.091 101.789 51.3834 101.329 51.5661 100.917L51.6966 101.079C51.2372 102.243 50.8822 102.478 50.5898 102.311C50.2975 102.144 50.2505 101.825 50.2192 101.366C49.9007 101.653 49.5562 101.789 49.2899 101.637C48.6792 101.288 48.7679 100.071 49.0237 99.2516C49.1002 98.8906 49.2541 98.5505 49.475 98.2549C49.6958 97.9592 49.9782 97.7151 50.3027 97.5393C50.3385 97.0371 50.4278 96.54 50.569 96.0567C50.83 95.164 51.2528 94.4906 51.7122 94.7568C52.0725 94.9604 52.1716 95.5869 51.9419 96.3752ZM51.0231 95.8949C50.8997 96.3628 50.8245 96.8421 50.7987 97.3253C51.1171 97.2626 51.4408 96.892 51.6444 96.1924C51.7749 95.7539 51.8114 95.2789 51.5922 95.1483C51.3729 95.0178 51.1537 95.4511 51.0231 95.8949ZM49.5875 98.9906C49.3526 99.7893 49.3474 100.917 49.6919 101.115C49.7803 101.146 49.8754 101.153 49.9673 101.135C50.0591 101.116 50.1443 101.074 50.214 101.011C50.1655 99.9821 50.19 98.9511 50.2871 97.9256C49.9244 98.1763 49.6735 98.5582 49.5875 98.9906Z" fill="#004996"/>
<path id="Vector_22" d="M56.8335 99.189L56.9431 102.175L56.7395 102.008C56.6456 100.792 56.4524 99.356 55.8364 98.8757C55.6746 98.7452 55.5858 98.7713 55.591 99.1368L55.6537 104.78C55.6333 104.939 55.6594 105.101 55.7289 105.245C55.7984 105.39 55.9083 105.511 56.0452 105.594L56.2593 105.767V106.237L54.4739 104.806V104.336C54.5313 104.383 54.6566 104.462 54.6827 104.483C54.9594 104.707 55.1003 104.838 55.0951 104.389L55.0324 98.646C55.0426 98.5263 55.0237 98.4058 54.9774 98.295C54.931 98.1841 54.8586 98.086 54.7662 98.0091C54.1711 97.5341 54.0145 98.5573 53.9205 99.7267L53.7221 99.5701L53.7795 96.7562L56.8335 99.189Z" fill="#004996"/>
<path id="Vector_23" d="M59.3341 97.2104C59.8562 96.8815 60.4565 97.0485 60.4617 98.4789C60.467 99.9093 59.8979 100.828 59.3811 101.209C59.5899 101.147 59.9397 101.047 60.1015 102.253C60.1485 102.619 60.2112 103.235 60.2112 103.235C60.2843 103.898 60.3469 104.007 60.4461 103.94C60.5453 103.872 60.6236 102.974 60.6236 102.702L60.8167 102.577C60.8167 103.543 60.7123 104.618 60.2477 104.921C59.8927 105.151 59.7257 104.629 59.6839 103.819C59.6839 103.819 59.6526 103.136 59.6317 102.775C59.5743 101.731 59.3498 101.475 59.0313 101.59C58.8884 101.66 58.7521 101.742 58.6241 101.836V104.837C58.6241 105.302 58.8173 105.166 58.9844 105.057C59.032 105.026 59.0827 104.999 59.1358 104.978V105.5L57.5696 106.508V105.986C57.8359 105.756 58.0917 105.798 58.0917 105.041V99.095C58.0917 98.5729 58.0186 98.5729 57.7575 98.74C57.6949 98.7817 57.627 98.8131 57.5696 98.8496V98.3275L59.3341 97.2104ZM58.786 98.1031C58.6189 98.2127 58.6137 98.4946 58.6189 98.7347V101.345C58.7293 101.29 58.8357 101.227 58.9374 101.157C59.5586 100.755 59.8927 100.306 59.8875 98.9175C59.8875 98.0509 59.7204 97.5549 59.3655 97.7481L58.8434 98.0248L58.786 98.1031Z" fill="#004996"/>
<path id="Vector_24" d="M61.9757 95.3102L64.3823 101.094C64.5337 101.455 64.6956 101.329 64.8731 101.251L64.9461 101.7L63.427 102.473L63.3487 102.029C63.7663 101.784 63.9438 101.726 63.7507 101.256L63.2286 100.045L61.8922 100.724V101.653C61.8922 102.577 62.1375 102.645 62.5186 102.452L62.5917 102.896L61.2866 103.559L61.2083 103.115C61.5424 102.948 61.5894 102.431 61.5998 102.008L61.7773 95.4094L61.9757 95.3102ZM61.9183 100.17L63.0668 99.5857L62.0227 96.9755L61.9183 100.17Z" fill="#004996"/>
<path id="Vector_25" d="M64.8104 93.2063L64.9357 93.6605L64.7791 93.7492C64.6225 93.838 64.445 93.9215 64.5703 94.3757L66.0424 99.8154L66.079 99.9564C66.1677 100.343 66.3452 100.264 66.5593 100.15L66.6637 100.092L66.7942 100.557L65.3585 101.35L65.2333 100.891L65.3533 100.828C65.5517 100.719 65.7083 100.593 65.5882 100.139L64.1004 94.6524C63.9803 94.2243 63.8864 94.2556 63.5784 94.4122L63.4792 94.4697L63.3539 93.9998L64.8104 93.2063Z" fill="#004996"/>
<path id="Vector_26" d="M66.0059 92.5798L69.3104 97.2156L68.2298 93.3368C67.974 92.4284 67.7704 92.3292 67.3997 92.4284L67.2745 91.9743L68.5221 91.3739L68.6527 91.8281C68.329 92.0421 68.2037 92.3188 68.4908 93.3525L70.0883 99.095L69.9108 99.1785L66.1782 93.9215L67.4363 98.4372C67.6764 99.3038 67.9114 99.3978 68.2716 99.2829L68.3968 99.7319L67.1126 100.348L66.9821 99.8885C67.3632 99.6379 67.4258 99.3142 67.1335 98.2701L65.8493 93.6657C65.7449 93.2898 65.4682 93.3681 65.2907 93.4516L65.2019 93.4934L65.0714 93.0392L66.0059 92.5798Z" fill="#004996"/>
<path id="Vector_27" d="M70.4642 90.5438L70.5738 91.0032L70.4172 91.0763C70.2501 91.1494 70.0726 91.212 70.1875 91.6767L71.5135 97.1634L71.5448 97.3095C71.6231 97.6959 71.811 97.6384 72.0303 97.5393L72.1347 97.4923L72.2496 97.9673L70.7722 98.6147L70.6625 98.15L70.7826 98.0978C70.9914 98.0039 71.1533 97.8995 71.0384 97.4401L69.6968 91.8803C69.5976 91.447 69.4984 91.4678 69.1747 91.5984L69.0755 91.6453L68.9607 91.1703L70.4642 90.5438Z" fill="#004996"/>
<path id="Vector_28" d="M71.7275 90.0009L74.8076 94.8403L73.8992 90.8831C73.6904 89.9539 73.492 89.8391 73.1162 89.9226L73.0118 89.458L74.2751 88.9359L74.3847 89.4005C74.0506 89.5937 73.9149 89.8704 74.1603 90.9197L75.5019 96.7666L75.3244 96.8397L71.8424 91.3582L72.8865 95.9627C73.0953 96.8502 73.3198 96.9598 73.6852 96.8606L73.7896 97.3148L72.4845 97.8681L72.3801 97.4035C72.7664 97.1738 72.8395 96.8449 72.5941 95.78L71.5187 91.0815C71.43 90.7004 71.1533 90.7631 70.9706 90.8362L70.8818 90.8779L70.7774 90.4133L71.7275 90.0009Z" fill="#004996"/>
<path id="Vector_29" d="M77.1934 88.226V87.4638L77.3656 87.3907L78.1122 90.3247L77.9294 90.4238C77.4805 89.2179 76.9167 88.0329 76.2432 88.3357C75.5698 88.6384 75.6585 90.0271 75.8726 91.2904C75.93 91.6559 76.0031 92.0056 76.0762 92.3345C76.2272 93.1973 76.5182 94.0296 76.9375 94.7986C77.2508 95.2684 77.5379 95.4564 77.8564 95.3206C78.1748 95.1849 78.2688 94.9396 78.3784 94.5219C78.4345 94.0346 78.3918 93.5411 78.2531 93.0706C78.0704 92.2719 77.9973 92.3867 77.6945 92.4912L77.564 92.5329L77.4596 92.0579L78.9318 91.4314L79.0414 91.9065L78.937 91.9639C78.6864 92.0944 78.5402 92.0944 78.6707 92.653L79.2659 95.2632L79.0936 95.3311L78.6969 94.4279C78.6081 95.1118 78.3627 95.6443 77.9347 95.827C77.0681 96.1925 76.0449 94.903 75.5385 92.6947C75.2803 91.7039 75.2043 90.6744 75.314 89.6564C75.4497 88.675 75.7055 88.0903 76.1701 87.8815C76.5147 87.704 76.8645 87.824 77.1934 88.226Z" fill="#004996"/>
<path id="Vector_30" d="M82.0797 85.7775L81.9858 85.078L82.1528 85.0049L83.5049 87.8031L83.3118 87.9127C82.4974 86.5345 81.7456 85.647 81.1714 85.9132C80.8425 86.0594 80.7224 86.5658 80.9312 87.4376C81.142 88.2389 81.4323 89.0172 81.7978 89.7607C82.7219 91.7811 83.5154 92.6633 84.1836 92.371C84.8518 92.0786 84.6639 90.9458 84.1836 89.719H84.429C85.0763 91.4313 85.0136 92.5328 84.3037 92.8513C83.4162 93.2584 82.0797 91.9899 81.1714 90.0113C80.7447 89.1419 80.4777 88.203 80.3831 87.2392C80.3361 86.3413 80.4562 85.7201 80.9365 85.5008C81.1333 85.4309 81.3463 85.4199 81.5493 85.469C81.7523 85.5181 81.9366 85.6253 82.0797 85.7775Z" fill="#004996"/>
<path id="Vector_31" d="M87.462 86.8373C88.313 88.5757 88.6419 90.7683 87.7178 91.2225C86.7938 91.6767 85.3216 90.1784 84.4237 88.3721C83.6041 86.7016 83.1969 84.4411 84.1522 83.9713C85.1076 83.5014 86.5484 84.9736 87.462 86.8373ZM84.9875 88.085C85.7132 89.5728 86.7051 91.1807 87.509 90.784C88.313 90.3872 87.5403 88.44 86.8878 87.1297C86.2352 85.8193 85.212 83.9974 84.3663 84.4255C83.5206 84.8535 84.2619 86.5972 84.9875 88.085Z" fill="#004996"/>
<path id="Vector_32" d="M87.06 82.6662L90.7144 87.2759L88.6784 81.7526L89.7643 81.1418L89.9992 81.5647L89.7016 81.7683C89.5659 81.8571 89.639 82.0502 89.8321 82.3895L92.5729 87.3072C92.7608 87.6413 92.8704 87.7196 93.0949 87.6048L93.2985 87.5056L93.5334 87.9232L92.1082 88.7115L91.8785 88.2939L91.9777 88.226C92.2335 88.059 92.3536 88.0276 92.0717 87.5213L89.0699 82.1442L91.6071 88.9987L91.4452 89.0874L86.893 83.3449L86.94 83.4441L89.5502 88.0955C89.9783 88.8681 90.3281 89.1396 90.6831 88.9412L90.918 89.3641L89.7068 90.0428L89.4771 89.6303C89.8321 89.3171 89.7225 88.8995 89.2527 88.0642L86.9348 83.8878C86.6842 83.4493 86.538 83.4702 86.4127 83.5537L86.1935 83.679L85.9585 83.2561L87.06 82.6662Z" fill="#004996"/>
<path id="Vector_33" d="M90.8814 80.3952L94.9586 84.6551L92.4319 79.3511L93.476 78.6464L93.7527 79.0483C93.5961 79.1684 93.4708 79.278 93.4708 79.278C93.3455 79.3772 93.4395 79.56 93.6535 79.8836L96.8328 84.5298C97.052 84.8483 97.1617 84.9161 97.3548 84.7804L97.548 84.6603L97.8194 85.0623L96.5091 85.9655L96.2429 85.5739L96.3368 85.4956C96.5717 85.3077 96.6918 85.2659 96.3681 84.7856L92.8548 79.7009L95.9871 86.2996L95.8357 86.404L90.7822 81.1209L90.8397 81.2148L93.8989 85.6157C94.4209 86.3413 94.7655 86.5815 95.0996 86.3518L95.3763 86.7538L94.2278 87.5368L93.9615 87.1453C94.2904 86.806 94.1442 86.3935 93.5961 85.5791L90.9128 81.6481C90.6256 81.2357 90.4847 81.267 90.3385 81.3662L90.1297 81.5072L89.8582 81.1104L90.8814 80.3952Z" fill="#004996"/>
<path id="Vector_34" d="M94.7133 77.3778L100.242 81.9196C100.586 82.2015 100.691 82.0606 100.826 81.9562L101.14 82.3268L99.9755 83.303L99.6675 82.9324C99.9651 82.6348 100.122 82.5513 99.6675 82.1859L98.5085 81.2305L97.4645 82.0867L97.9343 82.9011C98.3989 83.6998 98.7121 83.7102 99.0045 83.4649L99.3125 83.8355L98.3154 84.6708L98.0022 84.3001C98.258 84.0913 98.0335 83.6319 97.8194 83.2561L94.541 77.5135L94.7133 77.3778ZM97.2086 81.6064L98.0909 80.8703L95.6164 78.8291L97.2086 81.6064Z" fill="#004996"/>
<path id="Vector_35" d="M96.6396 75.843L102.293 78.2653L99.229 75.5141C98.5138 74.872 98.258 74.8773 97.9447 75.1174L97.5845 74.7937L98.5138 73.7496L98.874 74.0733C98.6599 74.3917 98.6808 74.6737 99.4952 75.4045L104.021 79.4713L103.891 79.6122L97.4958 76.861L101.061 80.0612C101.75 80.6772 102.032 80.6563 102.33 80.4057L102.68 80.7242L101.724 81.7683L101.364 81.4446C101.61 81.074 101.505 80.7816 100.68 80.0403L97.0259 76.7723C96.9818 76.7257 96.9276 76.6898 96.8676 76.6672C96.8075 76.6447 96.7431 76.6361 96.6792 76.6421C96.6153 76.6482 96.5536 76.6686 96.4988 76.7021C96.444 76.7355 96.3976 76.7809 96.3629 76.8349L96.2951 76.908L95.9348 76.5843L96.6396 75.843Z" fill="#004996"/>
<path id="Vector_36" d="M100.064 71.8494C100.414 71.4213 100.936 70.9149 102.429 71.912C102.983 72.2926 103.496 72.73 103.959 73.2172C105.071 74.3657 105.791 75.6186 105.781 76.4017C105.787 76.7091 105.691 77.01 105.509 77.2578L104.355 78.6673L104.021 78.3228C104.314 77.8634 104.486 78.0043 103.797 77.2787L100.221 73.6087C99.6257 72.9927 99.6988 73.1441 99.3438 73.4886C99.3438 73.4886 99.0097 73.1493 99.0149 73.1493L100.064 71.8494ZM100.409 73.0136L104.288 77.0124C104.669 77.4092 104.7 77.4927 105.06 77.0542C105.195 76.9282 105.286 76.7634 105.323 76.5829C105.359 76.4024 105.339 76.215 105.264 76.0467C104.839 75.1425 104.238 74.333 103.494 73.6661C102.763 72.9092 101.834 72.0425 101.239 71.9329C101.068 71.8887 100.887 71.8992 100.722 71.9629C100.558 72.0265 100.417 72.1402 100.32 72.2879C100.132 72.5176 99.9807 72.5646 100.409 73.0136Z" fill="#004996"/>
<path id="Vector_37" d="M51.2268 30.8008C51.2268 30.8008 46.8468 25.9614 51.5243 21.0489C55.7007 16.6429 50.9031 13.9491 50.9031 13.9491C50.9031 13.9491 51.9472 11.8087 59.1566 15.2385C59.1566 15.2385 68.9816 20.0779 64.4502 30.8425L51.2268 30.8008Z" fill="#CA0538"/>
<path id="Vector_38" d="M50.167 29.5322C50.167 29.5322 49.7024 28.1331 50.167 27.1569C50.3991 27.6032 50.7291 27.9914 51.1323 28.2924C51.5354 28.5935 52.0014 28.7995 52.4953 28.8953C52.4953 28.8953 50.8039 27.0316 52.203 25.3767C52.2622 25.7683 52.4113 26.1408 52.6386 26.4651C52.866 26.7893 53.1654 27.0565 53.5133 27.2456C53.5133 27.2456 52.9913 24.4892 55.2517 23.8105C55.0243 24.4609 54.9369 25.152 54.9954 25.8384C55.0539 26.5249 55.2569 27.1913 55.591 27.7938C55.6701 27.9765 55.8084 28.1274 55.9835 28.222C56.1587 28.3167 56.3606 28.3498 56.5568 28.3158C57.319 28.2532 57.7106 26.9167 56.2175 25.455C56.5654 25.4206 56.9166 25.4575 57.2497 25.5636C57.5827 25.6697 57.8906 25.8426 58.1546 26.0718C58.4185 26.301 58.6328 26.5817 58.7845 26.8966C58.9361 27.2116 59.0219 27.5542 59.0366 27.9034C59.0366 27.9034 60.6549 27.0107 59.9867 24.531C59.9867 24.531 62.3098 25.502 61.0986 28.2532C61.6232 28.0985 62.093 27.7981 62.4535 27.3868C62.8139 26.9756 63.0501 26.4704 63.1346 25.9301C63.1346 25.9301 63.996 26.6922 63.4844 28.3471C63.8674 28.1578 64.2031 27.8851 64.4669 27.549C64.7306 27.213 64.9158 26.8221 65.0088 26.4051C65.0088 26.4051 65.9746 26.995 65.3585 28.77" stroke="#A4244A" stroke-width="0.7306"/>
<path id="Vector_39" d="M69.2374 54.7106H60.1485L60.0441 45.4651L60.7802 43.6901C60.7802 43.6901 65.6718 42.6826 67.0448 38.6785C67.0448 38.6785 67.2432 37.791 69.5297 38.0051H89.3675C89.3675 38.0051 90.8293 37.7753 90.1297 39.1118C90.1297 39.1118 88.7567 42.6095 84.9092 42.9906C84.9092 42.9906 86.5171 42.881 85.2903 44.4941C84.2197 45.8663 82.6807 46.7957 80.9678 47.1043C80.9678 47.1043 82.5339 47.3758 80.4457 49.3074C78.6447 51.004 77.4179 51.1084 77.4179 51.1084C77.4179 51.1084 78.6029 51.2389 77.1098 53.0243C77.1098 53.0243 75.7108 54.7106 71.6336 54.7889C71.1429 54.768 69.2374 54.7106 69.2374 54.7106Z" fill="#FECC36"/>
<path id="Vector_40" d="M86.0734 42.9906H70.2032" stroke="#D07500" stroke-width="0.4871"/>
<path id="Vector_41" d="M81.7978 47.0782H66.5958" stroke="#D07500" stroke-width="0.4871"/>
<path id="Vector_42" d="M78.1852 51.0823H72.5837" stroke="#D07500" stroke-width="0.4871"/>
<path id="Vector_43" d="M45.4111 54.7106H54.5L54.6044 45.4651L53.8683 43.6901C53.8683 43.6901 48.9767 42.6826 47.6037 38.6785C47.6037 38.6785 47.4106 37.791 45.1188 38.0051H25.281C25.281 38.0051 23.8192 37.7753 24.5188 39.1118C24.5188 39.1118 25.8918 42.6095 29.7393 42.9906C29.7393 42.9906 28.1314 42.881 29.3582 44.4941C30.4288 45.8663 31.9678 46.7957 33.6807 47.1043C33.6807 47.1043 32.1146 47.3758 34.2028 49.3074C36.0038 51.004 37.2306 51.1084 37.2306 51.1084C37.2306 51.1084 36.0456 51.2389 37.5386 53.0243C37.5386 53.0243 38.9377 54.7106 43.0149 54.7889C43.5056 54.768 45.4111 54.7106 45.4111 54.7106Z" fill="#FECC36"/>
<path id="Vector_44" d="M28.5803 42.9906H44.4453" stroke="#D07500" stroke-width="0.4871"/>
<path id="Vector_45" d="M32.8507 47.0782H48.0579" stroke="#D07500" stroke-width="0.4871"/>
<path id="Vector_46" d="M36.4632 51.0823H51.0962" stroke="#D07500" stroke-width="0.4871"/>
<path id="Vector_47" d="M53.6751 48.399L44.6333 46.1699V47.2035L50.5794 52.4814L43.1715 57.5766V58.4327L54.573 55.9791L63.7402 63.9873L63.6776 54.0893L74.865 51.7036V50.8422L63.7089 50.0017L53.6751 48.399Z" fill="#BEBEBE"/>
<path id="Vector_48" d="M54.5731 55.9791L54.7453 55.1334" stroke="black" stroke-width="0.0974"/>
<path id="Vector_49" d="M56.6508 33.1761H48.7679C48.7679 33.1761 49.0394 31.9806 48.1258 31.9493C47.9698 31.9478 47.8158 31.914 47.6736 31.8499C47.5314 31.7859 47.404 31.6931 47.2995 31.5773C47.195 31.4615 47.1156 31.3253 47.0665 31.1772C47.0173 31.0292 46.9994 30.8726 47.0138 30.7173H67.6347C67.6491 30.8726 67.6312 31.0292 67.582 31.1772C67.5329 31.3253 67.4535 31.4615 67.349 31.5773C67.2445 31.6931 67.1171 31.7859 66.9749 31.8499C66.8327 31.914 66.6787 31.9478 66.5227 31.9493C65.6091 31.9806 65.63 33.1761 65.63 33.1761H56.6508Z" fill="#FECC36"/>
<path id="Vector_50" d="M56.7448 35.4418H49.7754C49.7754 35.4418 48.6844 35.5462 48.6844 34.7162C48.6844 33.8861 49.7754 33.9905 49.7754 33.9905H64.873C64.873 33.9905 65.9641 33.8809 65.9641 34.7162C65.9641 35.5514 64.873 35.4418 64.873 35.4418H56.7448Z" fill="#FECC36"/>
<path id="Vector_51" d="M57.1729 70.5338H54.5365C54.5365 70.5338 53.6699 70.6174 53.6699 69.9544C53.6699 69.2914 54.5365 69.3749 54.5365 69.3749H60.112C60.112 69.3749 60.9786 69.2861 60.9786 69.9544C60.9786 70.6226 60.112 70.5338 60.112 70.5338H57.1729Z" fill="#FECC36"/>
<path id="Vector_52" d="M57.1729 68.6022H54.0823V50.2157C54.761 41.4819 48.8619 37.1071 48.8619 37.1071C48.3398 36.2823 48.7783 36.251 48.7783 36.251H65.8388C65.8388 36.251 66.2669 36.2823 65.7553 37.1071C65.7553 37.1071 59.8718 41.4819 60.5348 50.2157V68.6022H57.1415H57.1729Z" fill="#FECC36"/>
<path id="Vector_53" d="M57.0423 76.741C54.2494 76.7097 54.9124 73.3686 54.9124 73.3686C54.889 73.0466 54.7867 72.7354 54.6147 72.4623C54.4426 72.1892 54.206 71.9625 53.9257 71.8024L53.8526 71.4788H60.7959L60.7228 71.8024C60.4421 71.9626 60.205 72.1891 60.0321 72.4621C59.8591 72.7352 59.7557 73.0464 59.7309 73.3686C59.7309 73.3686 60.3991 76.7097 57.6009 76.741H57.0423Z" fill="#FECC36"/>
<path id="Vector_54" d="M57.2094 38.4384V68.7745" stroke="#D07500" stroke-width="0.4871"/>
<path id="Vector_55" d="M62.268 38.2609C62.268 38.2609 58.8278 42.0405 59.7466 52.3561V68.7536" stroke="#D07500" stroke-width="0.4871"/>
<path id="Vector_56" d="M59.6526 38.5688C59.6526 38.5688 58.1439 42.0248 58.7338 53.2123V68.7745" stroke="#D07500" stroke-width="0.4871"/>
<path id="Vector_57" d="M52.3805 38.2609C52.3805 38.2609 55.8155 42.0405 54.902 52.3561V68.7536" stroke="#D07500" stroke-width="0.4871"/>
<path id="Vector_58" d="M54.9959 38.5688C54.9959 38.5688 56.5046 42.0248 55.9147 53.2123V68.7745" stroke="#D07500" stroke-width="0.4871"/>
<path id="Vector_59" d="M60.5609 50.0434C60.5609 50.9101 60.2166 51.7414 59.6038 52.3542C58.9909 52.9671 58.1596 53.3114 57.2929 53.3114C56.4262 53.3114 55.595 52.9671 54.9821 52.3542C54.3692 51.7414 54.0249 50.9101 54.0249 50.0434C54.1133 49.1756 54.1133 48.301 54.0249 47.4332L44.6281 46.1959L50.5689 51.4425L43.1715 57.5766L54.8706 55.0655L63.7454 62.9484L63.6776 53.2488L74.865 50.8682L63.7089 48.9889L63.547 41.3304L61.8608 42.5364C61.8608 42.5364 60.4304 44.7968 60.5244 49.7511L60.5609 50.0434Z" fill="white"/>
<path id="Vector_60" d="M60.7176 60.2808L54.8706 55.0656L53.9988 55.29L53.9832 56.1044L54.5731 55.9791L60.6758 61.3092L60.7176 60.2808Z" fill="#BEBEBE"/>
<path id="Vector_61" d="M60.4409 68.67H54.2598V68.9258H60.4409V68.67Z" fill="#004996"/>
</g>
<defs>
<clipPath id="clip0_527_10805">
<rect width="113.895" height="112" fill="white" transform="translate(0.452423)"/>
</clipPath>
</defs>
</svg>
