<svg width="115" height="112" viewBox="0 0 115 112" fill="none" xmlns="http://www.w3.org/2000/svg">
<g id="Pacific_Air_Forces 1" clip-path="url(#clip0_527_11017)">
<path id="Vector" d="M57.5457 95.3966C51.7293 87.8519 36.1075 83.6541 29.1424 79.733C29.0484 79.6808 28.9596 79.6233 28.8657 79.5763C12.5599 70.8256 17.379 56.979 17.379 56.979C17.379 56.979 15.7761 50.0087 10.7742 49.6014C6.36751 49.2516 5.81406 53.9872 5.81406 53.9872C5.81406 53.9872 5.85061 57.4698 1.11498 65.7871C-1.09359 69.6561 5.29194 71.473 5.29194 71.473C5.29194 71.473 0.12295 83.1372 26.0723 96.1223C26.2707 96.2215 26.4691 96.3416 26.6832 96.4251C41.7203 102.435 44.6702 103.985 44.6702 103.985C44.6702 103.985 52.1366 107.395 57.3473 112C62.6103 107.452 70.1236 104.126 70.1236 104.126C70.1236 104.126 73.0945 102.602 88.1994 96.7697C88.4135 96.6862 88.6119 96.5713 88.8155 96.4721C114.922 83.7846 109.873 72.063 109.873 72.063C109.873 72.063 116.269 70.3139 114.102 66.4189C109.45 58.065 109.523 54.5668 109.523 54.5668C109.523 54.5668 109.027 49.8259 104.61 50.1288C99.6129 50.4681 97.9161 57.4123 97.9161 57.4123C97.9161 57.4123 102.584 71.3164 86.1788 79.8635L85.8969 80.0201C78.89 83.8682 63.4457 87.8885 57.5562 95.3652" fill="#FECC36"/>
<path id="Vector_2" d="M97.1485 59.2084C97.7855 63.2288 97.4044 73.196 86.09 78.9185C85.9908 78.9655 85.9021 79.0229 85.8081 79.0751C78.8012 82.9231 63.6284 86.5728 57.7232 94.0495C51.9016 86.5049 36.8384 83.085 29.8838 79.1743L29.6019 79.0125C16.6272 72.0526 17.2224 62.409 17.9272 58.5401L16.9613 58.5976C16.9613 58.5976 15.9902 52.7341 11.8863 50.8127C11.5746 50.7141 11.2551 50.6425 10.9308 50.5987C8.88778 50.3951 7.06662 51.8867 6.86352 53.9298C6.85621 54.0045 6.85099 54.0797 6.84786 54.1543L6.81653 54.431C6.99405 57.2818 8.7797 57.9136 8.7797 57.9136L11.2128 53.8463C11.2128 53.8463 16.9248 56.4569 11.2128 64.1895L8.80058 67.3535L7.46918 69.1862C6.9481 69.9062 6.52988 70.6951 6.22653 71.5305C5.67309 73.2326 3.39664 83.8003 26.678 95.454C26.8764 95.5532 27.0696 95.6681 27.2784 95.7516C42.0179 101.636 44.9104 103.161 44.9104 103.161C44.9104 103.161 52.2201 106.502 57.3369 110.992C62.4954 106.533 69.8678 103.275 69.8678 103.275C69.8678 103.275 72.7812 101.782 87.5833 96.0649C87.7921 95.9814 87.9905 95.8665 88.1889 95.7725C111.601 84.3851 109.444 73.7965 108.912 72.0891C108.616 71.2506 108.207 70.4565 107.695 69.7292L106.385 67.8809L103.973 64.7429C98.3807 56.9477 104.119 54.3997 104.119 54.3997L106.51 58.4984C106.51 58.4984 108.301 57.8875 108.51 55.0367L108.479 54.76C108.426 52.7106 106.722 51.0916 104.672 51.1443C104.596 51.1464 104.519 51.1506 104.443 51.1573C104.117 51.2002 103.796 51.268 103.482 51.361C99.3519 53.2563 98.3181 59.0883 98.3181 59.0883L97.1485 59.2084Z" fill="white"/>
<path id="Vector_3" d="M57.5457 95.3966C51.6406 87.9198 36.2171 83.9099 29.2103 80.0515L28.9283 79.8948C12.5233 71.3321 17.1858 57.4437 17.1858 57.4437C20.4073 44.7248 20.235 40.433 20.235 40.433C21.7648 21.929 13.1237 11.779 13.1237 11.779L24.7723 0H90.3349L101.983 11.779C101.983 11.779 93.3423 21.929 94.8669 40.4173C94.8669 40.4173 94.6946 44.7091 97.9108 57.428C97.9108 57.428 102.579 71.3321 86.1736 79.8792L85.8916 80.0358C78.8848 83.8995 63.4561 87.9198 57.5457 95.3966Z" fill="#FECC36"/>
<path id="Vector_4" d="M57.5457 92.1907C51.9956 85.163 37.4963 81.3829 30.9176 77.7646C30.8289 77.7123 30.7453 77.6601 30.6566 77.6184C15.2331 69.5673 20.3499 56.4986 20.3499 56.4986C23.3155 44.5473 22.9605 40.339 22.9605 40.339C24.3755 22.9733 16.5802 12.4003 16.5802 12.4003L25.9784 2.5166H89.1549L98.6679 12.0714C98.6679 12.0714 90.7317 22.9211 92.1414 40.292C92.1414 40.292 91.7603 44.5473 94.7259 56.4777C94.7259 56.4777 99.8584 69.5307 84.4402 77.5975C84.3514 77.6392 84.2679 77.6915 84.1739 77.7437C77.6004 81.3829 63.0959 85.163 57.5457 92.1907Z" fill="#0F1693"/>
<path id="Vector_5" d="M105.764 59.2032L103.675 55.7572C103.675 55.7572 101.931 57.2139 102.767 58.6967C103.602 60.1796 105.67 59.2502 105.67 59.2502L105.764 59.2032Z" fill="white"/>
<path id="Vector_6" d="M109.622 71.071C109.329 70.3254 108.95 69.6159 108.494 68.9564L107.184 67.1133L104.777 63.918C103.767 62.5913 103.01 61.0907 102.542 59.4904C102.542 59.4904 103.586 60.9053 105.884 60.2266C108.181 59.5478 108.729 57.0939 108.729 57.0939L108.849 56.885C109.33 58.7229 110.416 61.8034 112.969 66.3615C114.613 69.3219 111.157 70.6585 109.523 71.1076" fill="white"/>
<path id="Vector_7" d="M9.51068 58.6498L11.5992 55.2351C11.5992 55.2351 13.3274 56.7075 12.4763 58.1851C11.6253 59.6627 9.56811 58.7072 9.56811 58.7072L9.51068 58.6498Z" fill="white"/>
<path id="Vector_8" d="M5.52167 70.4862C5.82346 69.7474 6.21087 69.0462 6.67556 68.3978L8.00697 66.5703L10.4505 63.4011C11.4759 62.0874 12.2497 60.5952 12.7322 58.9996C12.7322 58.9996 11.6879 60.3989 9.38536 59.694C7.08281 58.9891 6.57636 56.5195 6.57636 56.5195L6.45627 56.3107C5.93415 58.1433 4.81681 61.2082 2.23232 65.7402C0.55109 68.6849 3.99186 70.0581 5.62088 70.5228" fill="white"/>
<path id="Vector_9" d="M81.9183 28.0832C83.7979 31.2577 80.5869 34.8447 80.5869 34.8447C82.2942 36.6199 79.9029 40.5463 79.9029 40.5463C81.4432 42.9689 79.2555 46.4201 79.2555 46.4201C80.4146 48.1588 79.1511 50.8895 79.1511 50.8895C79.1546 50.8929 79.158 50.8964 79.1615 50.8999C81.1299 53.1241 79.4591 56.2516 79.4591 56.2516C79.48 56.2777 79.5061 56.3038 79.527 56.3299C81.9653 59.1912 77.1044 64.8562 77.1044 64.8562C77.9241 71.5498 69.5911 76.6195 63.7433 78.849C57.8956 81.0837 54.4287 78.7863 54.4287 78.7863C59.1434 79.2458 62.485 77.1521 64.8659 74.2804C63.6598 74.86 62.391 75.3665 61.0701 75.7841C61.1014 75.8834 61.1327 75.9773 61.164 76.0765C61.0596 76.1601 60.95 76.2436 60.8247 76.3376C60.762 76.2802 60.6993 76.2488 60.6732 76.1966C60.6315 76.1131 60.5897 76.0348 60.5479 75.9512C60.2033 76.0556 59.8587 76.1496 59.5089 76.2436C56.3919 77.0581 53.2905 77.3453 50.3353 77.1625H50.33C46.1009 76.8963 42.1693 75.6797 38.9269 73.6748C34.9849 71.2521 32.0558 67.6756 30.8341 63.2741C30.808 63.1958 30.7871 63.1123 30.7662 63.034C29.628 58.6952 30.3224 54.2258 32.4109 50.2264C34.113 46.9736 36.734 44.0288 40.0547 41.7054C42.7384 39.8205 45.8764 38.3429 49.3485 37.4344C49.5208 37.3874 50.4313 37.1718 51.0245 37.0481C52.9824 36.6512 54.9195 36.4633 56.8148 36.4633C57.2377 35.7271 57.7076 35.1058 58.1827 34.6306C61.0805 31.7329 82.1219 10.8324 82.1219 10.8324C83.1662 12.4092 83.0095 14.1635 82.3934 15.7508C85.2964 12.8634 87.3431 10.8324 87.3431 10.8324C90.173 15.1086 84.1739 20.7057 84.1739 20.7057C86.2206 23.9846 81.9183 28.0832 81.9183 28.0832Z" stroke="white" stroke-width="4" stroke-miterlimit="10"/>
<path id="Vector_10" d="M78.9527 20.7057C79.9499 22.3034 79.4382 24.0943 78.6551 25.5144C77.8301 27.0077 76.6971 28.0833 76.6971 28.0833C77.8249 29.989 77.12 32.0461 76.3734 33.3828C75.8774 34.2756 75.3657 34.8447 75.3657 34.8447C76.765 36.3014 75.4075 39.2044 74.8801 40.2017C74.76 40.421 74.6817 40.5463 74.6817 40.5463C75.4492 41.7576 75.2926 43.2247 74.9324 44.3891C74.8018 44.8276 74.64 45.2192 74.4938 45.5429C74.2484 46.0807 74.0343 46.4201 74.0343 46.4201C75.1934 48.1588 73.9299 50.8895 73.9299 50.8895C74.0239 50.9991 74.1126 51.1088 74.1909 51.2184C74.3371 51.4168 74.452 51.6204 74.546 51.8293C75.3239 53.5366 74.6139 55.4319 74.3371 56.048C74.3371 56.0532 74.3319 56.0532 74.3319 56.0532C74.2745 56.1785 74.2379 56.2516 74.2379 56.2516C75.6999 57.8493 74.7653 60.3816 73.6688 62.2821C73.3138 62.9087 72.9379 63.4673 72.6246 63.9007C72.1964 64.4907 71.8832 64.8562 71.8832 64.8562C72.2591 67.9315 70.1811 69.6597 68.0143 70.1139C67.8367 70.1505 67.6644 70.1766 67.4869 70.1975C65.1113 70.4638 62.8609 69.2002 63.853 66.4904C64.0461 65.9631 64.2184 65.3835 64.3646 64.7726C65.0956 61.7235 65.1374 57.7867 63.3674 54.7532C63.1585 54.3877 62.9184 54.0431 62.6573 53.7089C62.1613 53.0824 61.5713 52.5185 60.8717 52.0225C58.5012 50.3569 57.0236 48.4877 56.183 46.5976C55.4312 44.9112 55.191 43.2143 55.2797 41.6218C55.3581 40.327 55.6505 39.1104 56.0734 38.0296C56.2874 37.4657 56.5433 36.9384 56.8148 36.4633C57.2377 35.7271 57.7076 35.1058 58.1827 34.6306C61.0805 31.7329 82.1219 10.8324 82.1219 10.8324C83.1662 12.4092 83.0095 14.1635 82.3934 15.7508C81.344 18.4762 78.9527 20.7057 78.9527 20.7057Z" fill="#FFD000" stroke="#0F1693" stroke-width="2" stroke-miterlimit="10"/>
<g id="Clip path group">
<mask id="mask0_527_11017" style="mask-type:luminance" maskUnits="userSpaceOnUse" x="30" y="36" width="49" height="42">
<g id="b">
<path id="Vector_11" d="M78.4613 58.0629C78.0833 60.0835 77.3591 62.0519 76.3248 63.9205C75.7056 65.0436 74.9704 66.1354 74.1361 67.1697C73.8369 67.5425 73.5273 67.9043 73.202 68.2615C71.7218 69.8884 69.9842 71.3634 68.021 72.6285C67.0394 73.2686 66.0056 73.8461 64.9191 74.3713C63.7067 74.954 62.4312 75.4631 61.1029 75.8828C60.9296 75.946 60.7568 75.9982 60.5782 76.051C60.232 76.1559 59.8853 76.2504 59.5334 76.3449C56.3997 77.1636 53.2821 77.4523 50.3112 77.2686H50.306C46.0544 77.0007 42.1019 75.7779 38.8423 73.762C34.8794 71.3263 31.9347 67.731 30.7067 63.306C30.6806 63.2272 30.6592 63.1431 30.6383 63.0648C29.4938 58.703 30.1924 54.2096 32.2918 50.1893C34.0028 46.9193 36.6379 43.9588 39.9764 41.6229C42.6742 39.7281 45.8288 38.2427 49.3197 37.329C49.4931 37.2815 49.6664 37.2397 49.8392 37.2031C50.2277 37.1034 50.6161 37.0141 51.0046 36.9405C52.973 36.5416 54.9205 36.3526 56.8257 36.3526C57.7546 36.3526 58.6683 36.3996 59.571 36.4941C60.3323 36.5677 61.0826 36.6727 61.8229 36.8142C63.8018 37.1765 65.6809 37.7644 67.4237 38.5408C68.2528 38.9136 69.0506 39.3282 69.8119 39.785C70.0427 39.9265 70.2688 40.0685 70.4943 40.2152C71.2342 40.6982 71.938 41.2229 72.599 41.79C72.7405 41.9106 72.8773 42.0364 73.0135 42.1628C73.7539 42.8295 74.4306 43.5485 75.0399 44.3202C75.1762 44.4831 75.3025 44.6454 75.4283 44.8136C76.2314 45.9001 76.9138 47.0811 77.4385 48.341C77.7533 49.0704 78.0107 49.8264 78.2154 50.6086C78.2363 50.6874 78.2572 50.7715 78.2734 50.8498H78.2786C78.3627 51.2017 78.4363 51.5583 78.4989 51.9102C78.8665 53.9679 78.8399 56.0412 78.4624 58.0618L78.4613 58.0629Z" fill="white"/>
</g>
</mask>
<g mask="url(#mask0_527_11017)">
<g id="Group">
<path id="Vector_12" d="M78.4613 58.0629C78.0833 60.0835 77.3591 62.0519 76.3248 63.9205C75.7056 65.0436 74.9704 66.1354 74.1361 67.1697C73.8369 67.5425 73.5273 67.9043 73.202 68.2615C71.7218 69.8884 69.9842 71.3634 68.021 72.6285C67.0394 73.2686 66.0056 73.8461 64.9191 74.3713C63.7067 74.954 62.4312 75.4631 61.1029 75.8828C60.9296 75.946 60.7568 75.9982 60.5782 76.051C60.232 76.1559 59.8853 76.2504 59.5334 76.3449C56.3997 77.1636 53.2821 77.4523 50.3112 77.2686H50.306C46.0544 77.0007 42.1019 75.7779 38.8423 73.762C34.8794 71.3263 31.9347 67.731 30.7067 63.306C30.6806 63.2272 30.6592 63.1431 30.6383 63.0648C29.4938 58.703 30.1924 54.2096 32.2918 50.1893C34.0028 46.9193 36.6379 43.9588 39.9764 41.6229C42.6742 39.7281 45.8288 38.2427 49.3197 37.329C49.4931 37.2815 49.6664 37.2397 49.8392 37.2031C50.2277 37.1034 50.6161 37.0141 51.0046 36.9405C52.973 36.5416 54.9205 36.3526 56.8257 36.3526C57.7546 36.3526 58.6683 36.3996 59.571 36.4941C60.3323 36.5677 61.0826 36.6727 61.8229 36.8142C63.8018 37.1765 65.6809 37.7644 67.4237 38.5408C68.2528 38.9136 69.0506 39.3282 69.8119 39.785C70.0427 39.9265 70.2688 40.0685 70.4943 40.2152C71.2342 40.6982 71.938 41.2229 72.599 41.79C72.7405 41.9106 72.8773 42.0364 73.0135 42.1628C73.7539 42.8295 74.4306 43.5485 75.0399 44.3202C75.1762 44.4831 75.3025 44.6454 75.4283 44.8136C76.2314 45.9001 76.9138 47.0811 77.4385 48.341C77.7533 49.0704 78.0107 49.8264 78.2154 50.6086C78.2363 50.6874 78.2572 50.7715 78.2734 50.8498H78.2786C78.3627 51.2017 78.4363 51.5583 78.4989 51.9102C78.8665 53.9679 78.8399 56.0412 78.4624 58.0618L78.4613 58.0629Z" fill="#0F1693"/>
<path id="Vector_13" d="M29.9391 63.5149L79.0435 50.6587" stroke="white" stroke-width="2" stroke-miterlimit="10"/>
<path id="Vector_14" d="M42.7499 40.7546C37.3193 45.7476 34.7813 53.6426 36.8249 61.4483C38.9551 69.584 45.4754 75.3685 53.055 76.7788" stroke="white" stroke-width="2" stroke-miterlimit="10"/>
<path id="Vector_15" d="M48.1319 39.726C44.9992 44.2335 43.9931 51.5191 45.9656 59.0549C48.0348 66.9582 52.8221 73.0117 58.0506 75.1618" stroke="white" stroke-width="2" stroke-miterlimit="10"/>
<path id="Vector_16" d="M39.5101 41.1337C42.7347 40.8507 46.2324 40.2476 49.8371 39.3036C53.4419 38.3602 56.786 37.1718 59.736 35.8383" stroke="white" stroke-width="2" stroke-miterlimit="10"/>
<path id="Vector_17" d="M68.469 73.1365H68.458C67.7861 73.2122 67.0984 73.2936 66.4045 73.3965C64.5573 73.6565 62.639 74.0194 60.6832 74.4856C60.3746 74.5561 60.0655 74.6318 59.7569 74.7133C59.5564 74.7566 59.3507 74.8109 59.1445 74.8652C58.7759 74.9628 58.413 75.0605 58.0501 75.1633H58.0449C56.3114 75.651 54.6428 76.193 53.055 76.7777C52.0635 77.1406 51.0991 77.5254 50.1781 77.9264" stroke="white" stroke-width="2" stroke-miterlimit="10"/>
<path id="Vector_18" d="M57.0638 37.0068C64.244 38.698 70.3257 44.3369 72.3692 52.1426C74.4995 60.2783 71.6498 68.5157 65.7336 73.4597" stroke="white" stroke-width="2" stroke-miterlimit="10"/>
<path id="Vector_19" d="M51.8682 38.7481C56.808 41.1426 61.2554 47.0002 63.228 54.536C65.2971 62.4393 64.0905 70.0623 60.5866 74.4987" stroke="white" stroke-width="2" stroke-miterlimit="10"/>
<path id="Vector_20" d="M31.5802 49.9753C37.2822 50.2301 44.4546 49.4103 52.028 47.4278C59.5522 45.4579 66.1717 42.6786 71.0112 39.6843" stroke="white" stroke-width="2" stroke-miterlimit="10"/>
<path id="Vector_21" d="M38.3364 74.3112C43.155 71.3743 49.6768 68.653 57.0779 66.7154C64.4335 64.7898 71.4111 63.9607 77.0318 64.1487" stroke="white" stroke-width="2" stroke-miterlimit="10"/>
</g>
</g>
</g>
<path id="Vector_22" d="M81.9183 28.0832C83.7979 31.2577 80.5869 34.8447 80.5869 34.8447C82.2942 36.6199 79.9029 40.5463 79.9029 40.5463C81.4432 42.9689 79.2555 46.4201 79.2555 46.4201C80.4146 48.1588 79.1511 50.8895 79.1511 50.8895C79.1546 50.8929 79.158 50.8964 79.1615 50.8999C81.1299 53.1241 79.4591 56.2516 79.4591 56.2516C79.48 56.2777 79.5061 56.3038 79.527 56.3299C81.9653 59.1912 77.1044 64.8562 77.1044 64.8562C77.9241 71.5498 69.591 76.6195 63.7433 78.849C57.8956 81.0837 54.4287 78.7863 54.4287 78.7863C59.1434 79.2458 62.485 77.1521 64.8659 74.2804C65.2575 73.8053 65.6282 73.3093 65.9728 72.7976C66.2547 72.3799 66.521 71.9518 66.7716 71.5184C67.0274 71.0798 67.2624 70.6413 67.4869 70.1975C68.1291 68.9235 68.6512 67.6547 69.0742 66.4904C69.3352 65.7751 69.5649 64.9606 69.7372 64.0887C70.3951 60.7366 70.1915 56.5336 67.7897 53.5993C67.3146 53.0197 66.7507 52.4871 66.0928 52.0225C63.0437 49.8765 61.4669 47.3965 60.8351 44.9686C60.2921 42.9062 60.4278 40.8804 60.9291 39.1261C61.1484 38.3272 61.446 37.5858 61.7854 36.9227C62.2709 35.9829 62.8348 35.1997 63.4039 34.6306C65.3984 32.6361 75.987 22.1154 82.3934 15.7508C85.2964 12.8634 87.3431 10.8324 87.3431 10.8324C90.173 15.1086 84.1739 20.7057 84.1739 20.7057C86.2206 23.9846 81.9183 28.0832 81.9183 28.0832Z" fill="#FFD000" stroke="#0F1693" stroke-width="2" stroke-miterlimit="10"/>
<path id="Vector_23" d="M76.6475 23.9993C76.6475 23.9993 80.3138 26.4741 67.4357 36.4649" stroke="#0F1693" stroke-width="2" stroke-miterlimit="10"/>
<path id="Vector_24" d="M72.4429 32.2127C75.2268 36.2356 67.8942 41.4146 67.8942 41.4146" stroke="#0F1693" stroke-width="2" stroke-miterlimit="10"/>
<path id="Vector_25" d="M72.2716 36.8137C74.4932 39.5814 72.2935 43.5229 68.9024 45.6766" stroke="#0F1693" stroke-width="2" stroke-miterlimit="10"/>
<path id="Vector_26" d="M72.5886 41.6992C74.8603 45.0355 72.3405 47.6477 70.4839 48.977" stroke="#0F1693" stroke-width="2" stroke-miterlimit="10"/>
<path id="Vector_27" d="M70.6896 53.7428C70.6896 53.7428 75.7322 51.1302 73.0736 46.1121" stroke="#0F1693" stroke-width="2" stroke-miterlimit="10"/>
<path id="Vector_28" d="M72.364 57.4896C72.364 57.4896 75.6309 55.5452 73.2172 51.2826" stroke="#0F1693" stroke-width="2" stroke-miterlimit="10"/>
<path id="Vector_29" d="M72.7102 63.1107C72.7102 63.1107 75.8622 59.8271 73.5602 56.2261" stroke="#0F1693" stroke-width="2" stroke-miterlimit="10"/>
<path id="Vector_30" d="M64.5009 76.4786C64.5009 76.4786 76.422 70.1234 73.556 61.9329" stroke="#0F1693" stroke-width="2" stroke-miterlimit="10"/>
<path id="Vector_31" d="M66.8901 39.4143C66.8901 39.4143 68.9943 36.8272 66.2349 35.3444" stroke="#0F1693" stroke-width="2" stroke-miterlimit="10"/>
<path id="Vector_32" d="M67.2352 44.3463C67.2352 44.3463 68.753 41.9665 67.2352 40.5176" stroke="#0F1693" stroke-width="2" stroke-miterlimit="10"/>
<path id="Vector_33" d="M68.339 46.7611C68.339 46.7611 68.9771 45.5195 67.6577 44.5536" stroke="#0F1693" stroke-width="2" stroke-miterlimit="10"/>
<path id="Vector_34" d="M70.4839 51.2832C70.4839 51.2832 71.5814 49.1759 69.4083 48.2444" stroke="#0F1693" stroke-width="2" stroke-miterlimit="10"/>
<path id="Vector_35" d="M84.1733 20.7052L76.4089 27.4714" stroke="#0F1693" stroke-width="2" stroke-miterlimit="10"/>
<path id="Vector_36" d="M81.9193 28.0812L72.4815 37.0982" stroke="#0F1693" stroke-width="1.5" stroke-miterlimit="10"/>
<path id="Vector_37" d="M80.5879 34.8421L72.8433 42.1058" stroke="#0F1693" stroke-width="1.5" stroke-miterlimit="10"/>
<path id="Vector_38" d="M79.905 40.5452C76.918 43.8638 73.3676 46.4039 73.3676 46.4039" stroke="#0F1693" stroke-width="1.5" stroke-miterlimit="10"/>
<path id="Vector_39" d="M79.256 46.4186C76.7206 49.1655 73.4892 51.8032 73.4892 51.8032" stroke="#0F1693" stroke-width="1.5" stroke-miterlimit="10"/>
<path id="Vector_40" d="M79.161 50.9005C76.7206 54.3188 73.8474 56.4391 73.8474 56.4391" stroke="#0F1693" stroke-width="1.5" stroke-miterlimit="10"/>
<path id="Vector_41" d="M79.5259 56.3279C77.0412 60.3346 73.7784 62.6795 73.7784 62.6795" stroke="#0F1693" stroke-width="1.5" stroke-miterlimit="10"/>
<path id="Vector_42" d="M77.1049 64.8583C75.2211 66.6079 73.4401 67.4334 73.4401 67.4334" stroke="#0F1693" stroke-width="1.5" stroke-miterlimit="10"/>
<path id="Vector_43" d="M60.6482 76.5303L60.6012 76.4922C60.5516 76.4536 60.4832 76.4008 60.4393 76.3136L60.314 76.0682C60.1699 75.7972 60.0258 75.5169 59.8822 75.237L59.4604 74.4251L58.0924 71.8317C57.9159 72.0818 57.693 72.3424 57.4314 72.5032C56.9307 72.9439 56.3188 73.2827 55.6468 73.4863C55.1863 73.6367 54.6709 73.7255 54.1201 73.7479C54.0261 73.7521 53.9321 73.7537 53.8376 73.7537C53.4648 73.7537 53.0884 73.726 52.725 73.6994C52.5569 73.6868 52.3882 73.6743 52.2196 73.6644C52.1005 73.6482 52.0379 73.595 51.9919 73.5563C51.9794 73.5453 51.9638 73.5323 51.9455 73.5192L51.7147 73.3595L51.8907 73.1407C52.3214 72.605 52.8623 72.179 53.5437 71.8385C53.6324 71.7968 53.7149 71.7586 53.7974 71.7258C54.1379 71.5707 54.4992 71.4454 54.884 71.3498C54.7607 71.3493 54.6375 71.3477 54.5154 71.3467L54.4511 71.0851V71.3462C54.0157 71.3462 53.6685 71.4255 53.3573 71.5963C53.1693 71.695 53.0054 71.8166 52.8524 71.9696C52.1183 72.699 51.143 73.0812 49.7823 73.1736C49.6403 73.1825 49.4983 73.1866 49.3573 73.1866C48.7647 73.1866 48.1528 73.1125 47.4323 72.9538L46.9864 72.8556L47.2976 72.521C47.7408 72.0448 48.228 71.6506 48.7715 71.3289C48.1732 71.4736 47.6103 71.543 47.0563 71.543C46.9853 71.543 46.9148 71.542 46.8433 71.5394C45.9667 71.5086 45.2404 71.2793 44.6222 70.8382L44.558 70.7891C44.5173 70.753 44.4765 70.7128 44.4384 70.6721L44.3403 70.6256L44.3262 70.3792C44.2792 70.3813 44.2317 70.3823 44.1847 70.3823C43.6897 70.3823 43.1812 70.269 42.6731 70.0451C42.2356 69.8529 41.8163 69.6482 41.3919 69.4201C41.1433 69.2958 40.8932 69.158 40.6437 69.0144L40.1664 68.7403L40.6807 68.5445C40.7935 68.5011 40.9016 68.4636 41.0144 68.426C41.3407 68.3147 41.6477 68.2213 41.9401 68.1456C41.6968 68.1665 41.4503 68.1821 41.2044 68.1821C40.9371 68.1821 40.6954 68.1639 40.4661 68.1273C40.3836 68.1163 40.2891 68.0986 40.1999 68.0751C39.8636 67.9989 39.5791 67.9038 39.3378 67.7858C38.7974 67.5237 38.2779 67.246 37.7955 66.9614C37.3841 66.7238 37.0337 66.4001 36.6609 65.9135L36.4067 65.5814L36.935 65.4734C37.0363 65.4509 37.124 65.4311 37.2238 65.4311C37.2238 65.4311 38.1192 65.4222 38.3724 65.4217C38.2205 65.4102 38.0696 65.3961 37.9208 65.3768C37.0139 65.2421 36.3257 64.8223 35.872 64.1279C35.6705 63.8229 35.4595 63.5253 35.2475 63.2277C35.0998 63.0194 34.9515 62.81 34.8053 62.5975C34.75 62.5239 34.7119 62.4398 34.6638 62.3333L34.6095 62.2169L34.4001 61.7976L34.8669 61.8405C34.9865 61.8514 35.1003 61.8624 35.2141 61.8786C35.4104 61.9031 35.6036 61.936 35.7942 61.9767C35.5483 61.8499 35.3024 61.7183 35.0591 61.581C33.6102 60.7706 32.5612 59.4549 31.7603 57.44L31.6366 57.1278L31.9697 57.0845C32.0047 57.0803 32.0355 57.0735 32.0631 57.0683C32.1268 57.0557 32.1817 57.0469 32.2318 57.0469H32.26L32.3299 57.0573C33.2614 57.2839 34.325 57.6228 35.2037 58.4305C35.565 58.7662 35.8548 59.1771 36.0887 59.6888C36.1597 59.8402 36.2333 59.9875 36.3106 60.131C36.2521 59.966 36.2009 59.7979 36.1576 59.6272C36.0568 59.2309 36.0245 58.5182 36.1628 57.9789L36.2673 57.57L36.5863 57.8462C36.638 57.8906 36.6886 57.9324 36.7382 57.9731C36.8458 58.0613 36.9471 58.1454 37.0369 58.2383C37.0609 58.266 37.0734 58.2775 37.087 58.29C37.087 58.29 37.253 58.455 37.323 58.5239C37.6775 58.8706 38.162 59.3452 38.6935 60.2684C38.7531 60.3733 38.8168 60.4746 38.881 60.5754C38.976 60.7262 39.0705 60.8771 39.153 61.0353L39.1854 61.1006C39.342 61.4097 39.4835 61.7251 39.625 62.0404C39.7065 62.2226 39.7884 62.4043 39.8735 62.585C39.9002 62.6388 39.9409 62.6931 39.9811 62.7479C39.8918 62.3542 39.8344 61.9647 39.7806 61.6008C39.7404 61.3512 39.7284 61.0171 39.7258 60.885C39.7258 60.7221 39.7336 60.5889 39.7461 60.5226L39.8145 60.1561L40.1356 60.3461C40.1785 60.3712 40.2228 60.3952 40.2672 60.4192C40.3215 60.448 40.3753 60.4772 40.4275 60.508H40.5006L40.5606 60.6046C41.6775 61.4102 42.5311 62.6033 43.1394 64.2229L43.1681 64.3017C43.271 64.5842 43.377 64.8761 43.4386 65.1825C43.4772 65.3804 43.5383 65.5668 43.6161 65.7428C43.3169 64.8171 43.3357 63.8433 43.3973 62.939L43.4193 62.62L43.7273 62.7051C44.0416 62.7918 45.0984 63.5645 45.6487 65.1512C45.6612 64.9841 45.692 64.8202 45.7416 64.6531L45.8429 64.3096L46.2397 64.5779C46.3196 64.6296 46.3891 64.6761 46.4507 64.7293L46.9869 65.2113C47.4735 65.6457 47.9763 66.0947 48.4514 66.562C48.5533 66.6617 48.6483 66.7703 48.7376 66.882C48.6243 66.6507 48.5178 66.4064 48.417 66.149L48.2489 65.7188L48.7042 65.7966C48.7866 65.8107 48.8618 65.8206 48.9308 65.83C49.0477 65.8456 49.1495 65.8603 49.2461 65.8843L49.3537 65.9161C50.5253 66.2889 51.4281 67.0533 52.0833 67.6772C52.1084 67.6976 52.1402 67.7289 52.1721 67.7608C52.5438 68.1184 52.9072 68.4949 53.2706 68.8708C53.4335 69.0395 53.5959 69.2081 53.7604 69.3752C54.3055 69.9354 54.8981 70.2779 55.5565 70.4116C55.4881 70.386 55.4202 70.3588 55.3534 70.3291C54.8688 70.1155 54.4355 69.8519 54.0648 69.5449C53.7202 69.2619 53.386 68.899 53.0148 68.404C52.8493 68.1753 52.7083 67.932 52.5783 67.7023L52.4775 67.5222C52.3961 67.376 52.3125 67.2261 52.2201 67.0679L51.9585 66.6168L52.476 66.6774C52.8952 66.7259 53.2409 66.8784 53.5463 67.0131L53.7076 67.0831L53.798 67.1191C53.8549 67.1421 53.9128 67.1661 53.9697 67.1849C54.5112 67.3708 54.9873 67.5561 55.4291 67.7524C55.6635 67.8589 55.8917 67.9759 56.1193 68.096C55.9867 67.8125 55.7909 67.4026 55.5006 66.8116C54.4751 64.7257 52.7334 61.3032 52.2274 60.4673L51.8061 59.7713L52.5537 60.0919C52.6321 60.1253 52.7005 60.1514 52.7621 60.1744C52.8874 60.2219 52.9881 60.2616 53.0795 60.319C53.4111 60.5325 53.7353 60.7497 54.0595 60.9669L54.6511 61.3612C54.6918 61.3873 54.7341 61.4134 54.7769 61.4389L54.7681 61.4113C54.4856 60.4041 54.1984 59.399 53.9113 58.3945L53.5176 57.0197C52.9041 54.8889 52.2901 52.7587 51.6865 50.6232C51.6228 50.3956 51.5706 50.1648 51.5152 49.9163L51.4286 49.5367L51.3033 49.0073L51.7946 49.2407C52.0677 49.3707 52.2922 49.5372 52.5094 49.698C52.596 49.7622 52.6801 49.8249 52.7662 49.8844C52.5898 49.1649 52.4133 48.4528 52.2285 47.7411C52.123 47.3099 52.0139 46.8775 51.9042 46.4504C51.816 46.1043 51.722 45.7597 51.6291 45.4156C51.5346 45.0684 51.4406 44.7212 51.3513 44.3724C51.3513 44.3724 49.728 37.8339 49.6126 37.3755L49.0206 35.0035C48.6039 33.317 47.8207 30.0057 47.6834 29.3792L47.1503 26.9487L48.1758 29.2158C48.2536 29.387 48.334 29.5578 48.4139 29.7285C48.5616 30.0439 48.7099 30.3597 48.8425 30.6803C49.0409 31.1534 49.2257 31.6358 49.4111 32.1182L50.3864 34.6594C50.6783 35.4254 50.9702 36.1913 51.2672 36.9567L51.3534 37.1828L51.4589 37.4376C51.4698 37.4512 51.4923 37.4997 51.5142 37.5483L51.5445 37.612L51.6583 37.9352C51.6782 37.9905 52.1721 39.3151 52.1721 39.3151C52.866 41.1624 54.0977 44.4413 55.0328 46.9376L56.2493 50.1742L57.9572 54.69C57.9895 54.7788 58.0115 54.8728 58.0324 54.9657L58.0882 55.1928L58.0261 55.2889C58 55.3296 57.9681 55.3609 57.9525 55.3761L57.8089 55.5165C57.8089 55.5165 56.7526 54.8816 56.313 54.6159L56.3616 54.795C56.5135 55.35 56.6654 55.9081 56.821 56.4663L57.8339 60.1331C58.2934 61.7909 58.7529 63.4481 59.2076 65.1032C59.2332 65.194 59.2499 65.2891 59.2719 65.4196L59.4139 66.1908C59.4139 66.1908 58.2464 65.5334 57.9514 65.3653C58.023 65.5893 58.0981 65.8159 58.1744 66.0383C58.3681 66.6476 58.5665 67.2517 58.7696 67.8506C58.9487 68.3711 59.3434 69.4128 59.5053 69.8305C60.5223 69.7067 61.4 69.3997 62.1816 68.8948L62.3868 68.7627L62.5325 68.958C62.8087 69.3271 62.7257 69.6921 62.6651 69.9589L62.6422 70.0644C62.5816 70.3223 62.2688 70.4481 62.1534 70.4753C61.8282 70.552 61.5029 70.6157 61.1781 70.6784C61.0152 70.7102 60.8518 70.7416 60.6889 70.775L59.8133 70.964C59.8133 70.964 60.4952 73.1068 60.6811 73.6868L60.4503 73.8242L60.6967 73.7385L61.4663 76.1716L61.3269 76.2833C61.2209 76.3685 61.1092 76.4536 60.9813 76.5496L60.8085 76.6796L60.6482 76.5334V76.5303ZM47.3383 69.4504C47.5529 69.4504 47.7591 69.4629 47.958 69.4885L47.9424 69.4806C47.8025 69.4164 47.6396 69.382 47.4657 69.382C47.3101 69.382 47.1441 69.4091 46.9712 69.4624C47.0887 69.4545 47.214 69.4504 47.3383 69.4504ZM46.4888 67.6177C46.8313 68.2819 47.2976 68.6771 47.9053 68.817C47.461 68.6442 47.0856 68.3628 46.7645 67.9649C46.6658 67.8422 46.565 67.7127 46.4674 67.5759C46.4747 67.59 46.4815 67.6036 46.4888 67.6177Z" fill="#FFD000"/>
<path id="Vector_44" d="M47.9387 29.3207C48.158 29.8063 48.3982 30.2866 48.6018 30.7774C48.8733 31.4248 49.1187 32.0879 49.3746 32.7458C49.6043 33.341 49.834 33.9415 50.0638 34.5419C50.3823 35.3773 50.7008 36.2127 51.0245 37.0481C51.0506 37.1212 51.0819 37.1943 51.108 37.2674C51.1446 37.3561 51.1811 37.4449 51.2176 37.5336C51.2542 37.5963 51.2803 37.6642 51.3116 37.7268C51.343 37.8208 51.3795 37.92 51.4108 38.014C51.4578 38.1445 51.651 38.6562 51.9277 39.4028C52.6222 41.2511 53.8544 44.5301 54.789 47.0258C55.3894 48.6235 55.8697 49.9027 56.0055 50.2629C56.5746 51.7666 57.1437 53.2756 57.7128 54.7793C57.7546 54.8941 57.7755 55.0247 57.8068 55.1448C57.7964 55.1604 57.7807 55.1761 57.7703 55.1865C57.316 54.915 56.867 54.6435 56.418 54.372C56.3031 54.2989 56.1778 54.2415 55.9794 54.1318C55.9951 54.3198 55.9898 54.4242 56.0159 54.5182C56.1987 55.1865 56.3814 55.8601 56.5694 56.5336C56.6634 56.8834 56.7626 57.228 56.8566 57.5778C57.5562 60.1101 58.2611 62.6424 58.9555 65.1695C58.992 65.3 59.0077 65.4357 59.0547 65.6864C58.5534 65.4044 58.1566 65.1799 57.765 64.9554C57.5196 65.065 57.6397 65.2321 57.6815 65.3731C57.7598 65.6237 57.8434 65.8743 57.9269 66.1197C58.1201 66.7254 58.3185 67.331 58.5221 67.9315C58.7414 68.5685 59.2896 70.0043 59.3366 70.1087C60.4122 70.0043 61.4094 69.7015 62.3231 69.1115C62.5581 69.4247 62.4432 69.7276 62.3858 70.0095C62.3649 70.0983 62.2031 70.1923 62.0934 70.2184C61.6078 70.3332 61.1223 70.4168 60.6367 70.516C60.266 70.5943 59.8953 70.6778 59.4776 70.7666C59.8013 71.7795 60.1146 72.7715 60.4331 73.7636C60.4383 73.7897 60.4487 73.8158 60.4592 73.8471C60.6628 74.4893 60.8664 75.1367 61.0701 75.7842C61.1014 75.8834 61.1327 75.9773 61.164 76.0766C61.0596 76.1601 60.95 76.2436 60.8247 76.3376C60.762 76.2802 60.6994 76.2488 60.6732 76.1966C60.6315 76.1131 60.5897 76.0348 60.5479 75.9512C60.2973 75.4813 60.0571 75.001 59.8117 74.5311C59.7282 74.3744 59.6499 74.223 59.5664 74.0664C59.1487 73.2728 58.7257 72.4739 58.308 71.6803C58.2558 71.5863 58.1827 71.5028 58.0835 71.367C57.9634 71.5654 57.6606 72.0562 57.2951 72.2807C56.773 72.735 56.1935 73.0483 55.5721 73.2362C55.1074 73.3876 54.6167 73.4659 54.1102 73.4868C54.0193 73.4905 53.9285 73.4926 53.8371 73.4926C53.3056 73.4926 52.7704 73.4346 52.2358 73.4033C52.1992 73.3981 52.1627 73.3511 52.0948 73.3041C52.5282 72.7663 53.0555 72.3747 53.6612 72.0719C53.7395 72.0353 53.8178 71.9988 53.8961 71.9675C54.7315 71.5863 55.6243 71.4245 56.5433 71.3879C56.8148 71.3775 57.055 71.3409 57.1542 70.9911C56.8148 71.0224 56.5015 71.0746 56.183 71.0851C55.9444 71.0893 55.7058 71.0913 55.4677 71.0913C55.143 71.0913 54.8187 71.0882 54.4966 71.0851C54.4819 71.0851 54.4678 71.0851 54.4532 71.0851C54.0058 71.0851 53.6022 71.165 53.233 71.367C53.0346 71.4715 52.8467 71.6072 52.6691 71.7847C51.8755 72.5731 50.8469 72.8394 49.7662 72.9125C49.6304 72.9214 49.4941 72.9256 49.3579 72.9256C48.7559 72.9256 48.1455 72.8431 47.4897 72.6984C48.1946 71.9414 48.983 71.4297 49.8862 71.0799C50.5577 70.8136 51.2511 70.7212 51.9852 70.7212C52.1872 70.7212 52.3924 70.728 52.6013 70.7405C52.6483 70.7457 52.6952 70.7457 52.7422 70.7509C52.6222 70.5786 52.4812 70.5003 52.3402 70.4638C52.2514 70.4429 52.1627 70.4324 52.0791 70.422C51.8907 70.3969 51.7027 70.3844 51.5163 70.3844C51.0015 70.3844 50.4956 70.4794 50.0011 70.6674C49.0514 71.0297 48.0792 71.2819 47.0579 71.2819C46.9895 71.2819 46.9216 71.2809 46.8527 71.2783C46.1009 71.2522 45.396 71.0694 44.7747 70.6256C44.759 70.6152 44.7486 70.6047 44.7329 70.5943C44.6859 70.5525 44.6389 70.5055 44.5972 70.4585C44.5867 70.4533 44.5919 70.4324 44.5867 70.375C45.2603 70.02 45.986 69.8059 46.7535 69.738C46.7849 69.738 46.8162 69.7328 46.8475 69.7328C47.012 69.7192 47.1759 69.7114 47.3378 69.7114C47.9774 69.7114 48.595 69.8283 49.1866 70.1453C49.3495 70.2314 49.5281 70.2805 49.7213 70.2805C49.8434 70.2805 49.9719 70.2607 50.1055 70.2184C49.9541 69.9782 49.7244 69.9416 49.5208 69.8842C49.077 69.7537 48.6436 69.6127 48.2416 69.3516C48.1841 69.3099 48.1215 69.2785 48.0588 69.2472C47.8683 69.1595 47.6678 69.1209 47.4652 69.1209C47.2454 69.1209 47.0229 69.1658 46.8057 69.242C46.4559 69.3569 46.1113 69.5031 45.7876 69.6806C45.2582 69.9777 44.724 70.1212 44.1857 70.1212C43.7205 70.1212 43.2522 70.0142 42.7802 69.8059C42.3521 69.6179 41.9344 69.4143 41.5167 69.1898C41.266 69.0645 41.0206 68.9287 40.7752 68.7878C40.8849 68.746 40.9893 68.7094 41.099 68.6729C41.9798 68.3716 42.8596 68.1523 43.7435 68.1523C44.4833 68.1523 45.2263 68.3058 45.9756 68.6938C45.6153 68.1769 45.1036 67.9419 44.5345 67.8271C44.2578 67.7722 43.98 67.7524 43.7002 67.7524C43.4203 67.7524 43.1405 67.7722 42.8585 67.7957C42.3108 67.8396 41.7584 67.92 41.206 67.92C40.9737 67.92 40.7413 67.9059 40.509 67.8688C40.4306 67.8584 40.3471 67.8427 40.2688 67.8218C39.9921 67.7592 39.7101 67.6756 39.4543 67.5503C38.9374 67.2997 38.4257 67.0282 37.9297 66.7358C37.5224 66.5009 37.1935 66.1772 36.8698 65.7542C37.0264 65.7229 37.1256 65.6916 37.2248 65.6916C37.6571 65.6879 38.0895 65.6817 38.5218 65.6817C38.716 65.6817 38.9102 65.6827 39.1045 65.6864H39.1776C39.9085 65.6968 40.6186 65.8064 41.3026 66.0832C41.7151 66.2503 42.0649 66.4956 42.3625 66.8141C42.4513 66.9029 42.4982 67.0282 42.6183 67.0909C42.6862 66.835 42.5505 66.7045 42.4147 66.5896C41.8299 66.0884 41.1982 65.6603 40.462 65.4305C40.1069 65.3157 39.7206 65.2791 39.3446 65.2373C39.2037 65.2217 39.0679 65.206 38.9269 65.1956C38.6032 65.1747 38.2743 65.159 37.9558 65.1172C37.1831 65.0024 36.5356 64.663 36.0918 63.9842C35.7472 63.4621 35.3765 62.9661 35.0215 62.4492C34.9745 62.3866 34.9432 62.3135 34.8962 62.209C34.8805 62.1777 34.8648 62.1412 34.844 62.0994C34.9588 62.1098 35.0685 62.1203 35.1781 62.1359C36.3111 62.2769 37.2666 62.6998 38.1124 63.3055C38.7129 63.7336 39.2611 64.261 39.778 64.851C39.7937 64.4594 39.5483 64.2296 39.3342 63.9999C38.9113 63.5509 38.4466 63.1593 37.9349 62.8304C37.7104 62.6789 37.4807 62.5484 37.2405 62.4231C36.8855 62.2404 36.5252 62.0628 36.1701 61.8749C35.8412 61.7078 35.5123 61.5355 35.1886 61.3528C33.5909 60.4599 32.6719 59.0241 32.0036 57.3429C32.1007 57.3303 32.1707 57.3074 32.2323 57.3074C32.2469 57.3074 32.261 57.3084 32.2751 57.3116C33.2828 57.5569 34.2435 57.9015 35.0267 58.6221C35.387 58.9562 35.648 59.353 35.8517 59.7968C36.1649 60.4652 36.5461 61.0917 37.016 61.6556C37.1831 61.854 37.3606 62.0472 37.5538 62.2299C37.6269 62.2978 37.7156 62.3605 37.8044 62.4283L37.8148 62.4388C37.9767 62.2143 37.8044 62.1203 37.7104 62.0106C37.6895 61.9845 37.6634 61.9532 37.6477 61.9271C37.5433 61.807 37.4493 61.6869 37.3658 61.5616C36.9272 60.956 36.5983 60.2981 36.4103 59.5619C36.3111 59.1703 36.2955 58.5124 36.4155 58.0425C36.5722 58.1783 36.7236 58.2879 36.8489 58.4184C36.875 58.4498 36.9063 58.4759 36.9377 58.5072C37.3188 58.8988 37.8514 59.3269 38.4675 60.3973C38.6137 60.6531 38.786 60.8933 38.9217 61.1544C38.9322 61.1752 38.9426 61.1961 38.953 61.217C39.1984 61.7026 39.4073 62.2038 39.637 62.6946C39.6892 62.799 39.7676 62.893 39.8354 62.9922L39.825 62.987C39.9399 63.3316 39.9921 63.7075 40.1748 64.0156C40.6813 64.8718 41.4018 65.5297 42.2842 66.0101C42.3406 66.0393 42.3865 66.0555 42.4283 66.0555C42.4993 66.0555 42.5583 66.009 42.634 65.901C42.5035 65.807 42.3834 65.6817 42.232 65.6138C41.407 65.2326 40.9371 64.5382 40.5768 63.7446C40.2636 63.0502 40.1487 62.3035 40.0391 61.5621C40.0077 61.3689 39.9921 61.0974 39.9868 60.8782C39.9868 60.7424 39.9921 60.6275 40.0025 60.5701C40.1174 60.638 40.2427 60.6954 40.3523 60.7685C40.3576 60.7685 40.3576 60.7737 40.3628 60.7789C41.6002 61.6718 42.3677 62.9092 42.8951 64.3137C43.0047 64.6165 43.1196 64.9194 43.1822 65.2326C43.3336 66.0054 43.7879 66.6006 44.2839 67.1749C44.5084 67.436 44.7956 67.6031 45.2603 67.6187C43.6574 66.3656 43.5373 64.7105 43.6574 62.9562C43.8662 63.0136 45.2916 63.9743 45.6466 66.2247C45.8085 66.7416 46.0069 67.2585 46.2575 67.7388C46.6804 68.5585 47.3226 69.0859 48.299 69.1329C48.3147 69.1329 48.3251 69.1329 48.3408 69.1381C48.7063 69.159 49.0717 69.2477 49.4372 69.3052C49.4393 69.3052 49.4419 69.3052 49.4445 69.3052C49.48 69.3052 49.5286 69.2702 49.6409 69.2263C49.4894 69.1167 49.3955 69.0175 49.2754 68.9705C49.1918 68.9392 49.1135 68.9078 49.03 68.8765C48.842 68.8034 48.6488 68.7408 48.4556 68.7042C47.8395 68.5841 47.3592 68.2865 46.9676 67.8009C46.4977 67.2162 46.1009 66.6053 45.9599 65.8534C45.8868 65.4932 45.8711 65.1329 45.9912 64.7257C46.1061 64.804 46.2001 64.8562 46.2784 64.9241C46.9415 65.5245 47.6255 66.1145 48.2677 66.7463C48.5705 67.0439 48.8107 67.4198 49.0404 67.7853C49.2336 68.0986 49.4529 68.3805 49.6878 68.6311C50.2726 69.2524 50.9931 69.6754 51.839 69.9051C51.9904 69.9469 52.1522 69.9834 52.3141 70.0147C52.3768 70.0262 52.4483 70.0481 52.5167 70.0481C52.6023 70.0481 52.6843 70.0142 52.7417 69.8842C52.2614 69.7798 51.8228 69.6231 51.4312 69.4195C50.9404 69.1689 50.5123 68.8504 50.1416 68.4693C49.515 67.827 49.0347 67.0125 48.6587 66.0518C48.8728 66.0884 49.0347 66.0988 49.1809 66.1354C49.2122 66.1458 49.2383 66.151 49.2696 66.1615C50.3034 66.4904 51.1336 67.1326 51.9011 67.8636C51.9324 67.8897 51.9585 67.9158 51.9846 67.9419C52.5277 68.464 53.0445 69.0175 53.5719 69.5553C54.3086 70.3113 55.1743 70.7353 56.2175 70.7353C56.2838 70.7353 56.3501 70.7337 56.4174 70.73C56.4248 70.73 56.4321 70.73 56.4394 70.73C56.4733 70.73 56.5083 70.7321 56.5443 70.7321C56.6587 70.7321 56.7756 70.7092 56.8513 70.516C56.3814 70.375 55.8958 70.281 55.4573 70.0878C55.0187 69.8946 54.5958 69.644 54.2303 69.3412C53.8491 69.0279 53.5202 68.6416 53.2226 68.2448C53.0712 68.0359 52.9406 67.8114 52.8049 67.5712C52.69 67.3676 52.5752 67.1587 52.4446 66.9342C52.8937 66.9864 53.2487 67.1692 53.6037 67.3206C53.6977 67.3571 53.7917 67.3989 53.8857 67.4302C54.3713 67.5973 54.8516 67.7801 55.3215 67.9889C55.7705 68.1925 56.1987 68.4379 56.6477 68.6677C56.6216 68.5371 56.2509 67.7487 55.734 66.6941C54.6532 64.4959 52.9459 61.1491 52.4499 60.3294C52.6691 60.4234 52.8153 60.4599 52.9406 60.5382C53.468 60.8776 53.9849 61.2327 54.507 61.5773C54.6532 61.6713 54.8046 61.7548 54.9508 61.8488C55.1597 61.6713 55.0657 61.499 55.0187 61.3371C54.7106 60.2406 54.3974 59.1442 54.0841 58.0477C54.0058 57.7815 53.9327 57.51 53.8544 57.2437C53.2122 55.0142 52.5699 52.7848 51.9382 50.5501C51.8442 50.2159 51.7763 49.8713 51.6823 49.4745C52.1992 49.7199 52.5438 50.122 53.0764 50.3621C53.0764 50.1951 53.0921 50.1063 53.0712 50.028C52.878 49.2396 52.6848 48.4564 52.4812 47.6732C52.3768 47.2451 52.2671 46.8117 52.1575 46.3836C51.9799 45.6892 51.7815 45 51.604 44.3055C51.2333 42.8071 50.8574 41.3086 50.4867 39.8101C50.2778 38.9747 50.0742 38.1393 49.8654 37.3091C49.667 36.5103 49.4685 35.7167 49.2701 34.923C48.8472 33.2105 48.0693 29.9159 47.9387 29.3207ZM46.3588 24.5532L47.4286 29.4324C47.5659 30.0574 48.3491 33.3723 48.7632 35.0478L48.7705 35.0771C48.9663 35.8613 49.1626 36.645 49.3584 37.4344C49.4743 37.8949 49.5881 38.3555 49.7019 38.8165C49.7944 39.1893 49.8862 39.5626 49.9797 39.9359C50.1651 40.6841 50.3515 41.4339 50.5384 42.1831C50.7248 42.9318 50.9117 43.6811 51.097 44.4298C51.1874 44.7833 51.2819 45.1315 51.3764 45.4798C51.4698 45.8233 51.5633 46.1669 51.6515 46.512C51.7607 46.9386 51.8698 47.3699 51.9737 47.7959C52.1006 48.2841 52.2227 48.7691 52.3428 49.2542C52.2097 49.1644 52.0666 49.0782 51.9058 49.0015L50.9232 48.5352L51.1738 49.5936C51.2046 49.7246 51.2328 49.8499 51.2605 49.9711C51.3163 50.2196 51.3691 50.4545 51.4354 50.69C52.0666 52.9237 52.7083 55.151 53.35 57.3784C53.3918 57.5209 53.4294 57.6541 53.4664 57.7867C53.5045 57.923 53.5432 58.0587 53.5829 58.1934C53.834 59.0716 54.0857 59.9524 54.3347 60.8338C54.2903 60.804 54.2459 60.7743 54.2021 60.745C53.8773 60.5273 53.5526 60.3096 53.2231 60.0976C53.0952 60.0177 52.9772 59.9733 52.8529 59.9263C52.795 59.9044 52.7297 59.8799 52.6556 59.848L51.1618 59.2079L52.0029 60.5983C52.4686 61.3679 54.1092 64.5722 55.2651 66.9233C55.3753 67.1483 55.4719 67.3467 55.5559 67.5211C55.5497 67.518 55.5429 67.5153 55.5366 67.5122C55.086 67.3117 54.6026 67.1238 54.0548 66.9353C53.9979 66.9165 53.9463 66.8945 53.894 66.8737L53.7922 66.8329L53.6486 66.7698C53.327 66.6283 52.9621 66.4674 52.5042 66.4142L51.4683 66.2936L51.9925 67.1953C52.0087 67.223 52.0243 67.2506 52.04 67.2778C51.3868 66.68 50.5243 66.0116 49.4273 65.6623C49.409 65.6561 49.3855 65.6493 49.362 65.643L49.3427 65.6368L49.3067 65.6274C49.1913 65.5986 49.0806 65.5835 48.9637 65.5678C48.8973 65.559 48.8253 65.549 48.7459 65.5355L47.8354 65.3799L47.9821 65.7553C47.709 65.5036 47.4338 65.2577 47.1634 65.0165C46.9843 64.8562 46.8052 64.6964 46.6277 64.5356C46.5389 64.4583 46.458 64.4061 46.3797 64.3555C46.3499 64.3362 46.3181 64.3158 46.2841 64.2923L45.6921 63.8887L45.5699 64.3038C44.9663 63.1374 44.1288 62.5421 43.7952 62.4503L43.1796 62.2811L43.1358 62.9181C43.1232 63.0982 43.1138 63.2789 43.1076 63.4595C42.5181 62.1537 41.7433 61.1533 40.7512 60.4145L40.6489 60.2485L40.5006 60.2459C40.4641 60.225 40.4265 60.2051 40.3889 60.1848C40.3476 60.1628 40.3069 60.1409 40.2672 60.1174L39.6219 59.7363L39.4877 60.4735C39.482 60.5064 39.4637 60.6061 39.4637 60.875C39.4652 60.933 39.4673 61.005 39.471 61.0849C39.4538 61.0494 39.436 61.0139 39.4183 60.9789L39.4047 60.9518L39.3875 60.9178C39.295 60.7403 39.1969 60.5842 39.1013 60.4328C39.0392 60.3346 38.9771 60.2365 38.9196 60.1357C38.3693 59.1792 37.8691 58.6899 37.5036 58.3323C37.4352 58.2655 37.371 58.2023 37.3105 58.1402L37.2629 58.0942L37.2436 58.0754L37.2316 58.0613L37.2243 58.054C37.1199 57.9454 37.0097 57.8551 36.9027 57.7674C36.8552 57.7282 36.8061 57.688 36.7565 57.6452L36.1179 57.0917L35.9086 57.9104C35.8449 58.159 35.8146 58.4362 35.8088 58.7067C35.6778 58.5359 35.5358 58.3798 35.3807 58.2362C34.4576 57.3867 33.3549 57.0343 32.3978 56.8014C32.3347 56.7879 32.2835 56.7821 32.2318 56.7821C32.1446 56.7821 32.071 56.7967 32.0115 56.8088C31.989 56.8134 31.9639 56.8187 31.9358 56.8223L31.2701 56.909L31.5181 57.5329C32.261 59.4016 33.2155 60.6886 34.4994 61.5407L33.9579 61.4916L34.3767 62.3302L34.4002 62.3792L34.4289 62.4398C34.479 62.5521 34.5255 62.6554 34.6038 62.7599C34.7369 62.9546 34.8852 63.1629 35.0335 63.3718C35.2413 63.6642 35.4564 63.967 35.6564 64.2693C35.931 64.6891 36.2834 65.0175 36.71 65.2514L35.9467 65.4039L36.4557 66.0691C36.8453 66.5776 37.2306 66.9327 37.6692 67.1854C38.1547 67.4715 38.6805 67.7524 39.2272 68.0176C39.4846 68.144 39.7884 68.2458 40.1539 68.3288C40.2161 68.3455 40.2986 68.3627 40.3842 68.3758L39.5608 68.6896L40.5158 69.2383C40.8118 69.4086 41.0556 69.5406 41.2838 69.6545C41.702 69.8795 42.1275 70.0868 42.5708 70.2815C43.0851 70.5087 43.6031 70.6287 44.1095 70.6402C44.1356 70.7076 44.1706 70.7608 44.2077 70.8026C44.263 70.8647 44.3246 70.9269 44.3868 70.9822L44.4139 71.0062L44.4442 71.0266C44.4463 71.0297 44.4645 71.0433 44.486 71.0579C45.1334 71.5205 45.9061 71.7659 46.8355 71.7978C46.9107 71.8004 46.9848 71.8014 47.0584 71.8014C47.2715 71.8014 47.485 71.7915 47.7012 71.7717C47.4949 71.9471 47.2976 72.1366 47.108 72.3403L46.4857 73.0091L47.378 73.2059C48.1074 73.3667 48.7548 73.4451 49.3584 73.4451C49.5061 73.4451 49.6529 73.4404 49.8001 73.431C50.494 73.384 51.0939 73.2639 51.616 73.0639L51.3362 73.4111L51.7982 73.7307C51.8092 73.738 51.8176 73.7463 51.8254 73.7526C51.8834 73.8017 51.992 73.893 52.1622 73.9171L52.1841 73.9202L52.206 73.9212C52.3726 73.9312 52.5386 73.9432 52.7052 73.9557C53.0738 73.9829 53.4549 74.011 53.8382 74.011C53.9363 74.011 54.035 74.009 54.1332 74.0053C54.7065 73.9818 55.2458 73.8889 55.735 73.7296C56.4185 73.5229 57.0523 73.1751 57.6084 72.6979C57.7718 72.5909 57.9196 72.4536 58.0501 72.3063L58.4783 73.1177L59.1053 74.3066L59.227 74.5373L59.3518 74.7739C59.4473 74.9571 59.5444 75.1456 59.6415 75.3351C59.7888 75.6223 59.9365 75.91 60.0879 76.194L60.147 76.3099L60.207 76.4274C60.2775 76.5684 60.3809 76.6483 60.4425 76.6958C60.4519 76.7031 60.4623 76.7104 60.4722 76.7198L60.7918 77.0127L61.1385 76.7527C61.2685 76.6551 61.3823 76.5684 61.4909 76.4817L61.7702 76.2582L61.6627 75.9168L61.6141 75.7664L61.5687 75.6244C61.3651 74.977 61.1614 74.3295 60.9578 73.6868L60.9557 73.68L60.9453 73.6497L60.9395 73.621L60.9312 73.6017C60.7469 73.0284 60.5646 72.4551 60.3809 71.8777L60.1501 71.1535C60.1595 71.1514 60.1684 71.1493 60.1778 71.1472C60.3709 71.1049 60.5584 71.0642 60.7453 71.0245C60.9019 70.9927 61.0622 70.9613 61.222 70.9305C61.5457 70.8679 61.8799 70.8031 62.214 70.7243C62.4271 70.6736 62.8087 70.4909 62.8943 70.127L62.9194 70.0126C62.9836 69.7323 63.0907 69.2624 62.7408 68.7966L62.449 68.4071L62.0402 68.6713C61.3437 69.1209 60.5667 69.407 59.675 69.5401C59.4891 69.0556 59.1695 68.2056 59.016 67.7602C58.814 67.165 58.6166 66.5625 58.4245 65.9599C58.4203 65.9474 58.4161 65.9349 58.4114 65.9224C58.5341 65.9918 58.6626 66.0639 58.7988 66.1406L59.7742 66.6894L59.5679 65.5892C59.5523 65.5052 59.5402 65.4342 59.5293 65.3726C59.5068 65.242 59.4891 65.1392 59.4583 65.028C59.0192 63.4292 58.5748 61.8263 58.1305 60.2224L57.3599 57.4384C57.3134 57.2656 57.2648 57.0902 57.2158 56.9147C57.1677 56.743 57.1202 56.5707 57.0738 56.3978C56.9594 55.9875 56.8477 55.5797 56.7365 55.174C56.9918 55.328 57.2466 55.481 57.5024 55.6345L57.8517 55.8433L58.1394 55.5557C58.1697 55.5259 58.212 55.4784 58.2417 55.4335L58.3712 55.2387L58.3122 55.0127C58.3028 54.9771 58.295 54.9406 58.2866 54.9035C58.2663 54.8116 58.2428 54.7072 58.2036 54.6002L57.3536 52.3519L56.4937 50.0776L55.9167 48.5431L55.2777 46.8415C54.4062 44.5139 53.2753 41.5049 52.5637 39.6106L52.4164 39.2185C52.2697 38.8233 52.1465 38.4923 52.0557 38.2495C51.9768 38.0391 51.9236 37.8965 51.9022 37.8359L51.8541 37.696L51.8071 37.5603L51.7956 37.5253L51.7789 37.4919L51.7533 37.4376C51.733 37.3932 51.7121 37.3483 51.6886 37.3049L51.5904 37.0669C51.5842 37.0481 51.568 37.0068 51.5518 36.965C51.5393 36.9337 51.5267 36.9019 51.5158 36.8705C51.1874 36.0231 50.8694 35.1883 50.5514 34.3539C50.3212 33.7524 50.0914 33.1515 49.8617 32.5557C49.7902 32.3714 49.7197 32.1882 49.6497 32.0049C49.4691 31.534 49.2822 31.0473 49.0837 30.5733C48.9496 30.2501 48.7997 29.93 48.6546 29.6204C48.5736 29.4481 48.4932 29.2763 48.4154 29.1035L46.3593 24.5506L46.3588 24.5532Z" fill="white"/>
<path id="Vector_45" d="M82.6023 94.6385C82.5015 94.4751 82.4347 94.367 82.3428 94.2187C82.5997 94.0772 82.8565 93.9357 83.0936 93.8052C83.1709 93.4434 83.0915 93.151 82.95 92.8482C82.2525 91.3554 81.5732 89.8543 80.8866 88.3564C80.8333 88.2399 80.7843 88.1198 80.7185 88.0102C80.5879 87.7925 80.3843 87.7314 80.1206 87.8243C79.9551 87.8828 79.7917 87.9486 79.6011 88.0212C79.516 87.8979 79.4299 87.7726 79.3192 87.6123C79.4508 87.5476 79.5573 87.4922 79.6664 87.4421C80.6845 86.9753 81.698 86.4971 82.7239 86.0486C83.2398 85.823 83.7729 85.7337 84.3509 85.8846C85.5502 86.1979 86.113 87.5455 85.4322 88.5772C85.2933 88.7881 85.0959 88.9625 84.9153 89.1432C84.8171 89.2419 84.6965 89.3181 84.5018 89.4706C85.4165 89.3432 85.9371 89.8115 86.3882 90.4041C86.5631 90.6344 86.7333 90.8683 86.9092 91.0975C86.997 91.2118 87.0878 91.3256 87.1881 91.429C87.3144 91.559 87.4831 91.7 87.6423 91.5512C87.7316 91.4677 87.7452 91.2588 87.7258 91.1152C87.6997 90.9147 87.611 90.7226 87.5327 90.4736C87.6867 90.4563 87.813 90.4417 88.0073 90.4198C88.0819 90.8265 88.1853 91.1977 88.2098 91.5742C88.2375 91.9929 88.0224 92.3072 87.6413 92.5015C87.2397 92.7056 86.8492 92.6738 86.5187 92.385C86.2931 92.1882 86.1067 91.9376 85.9381 91.6875C85.7235 91.3685 85.5439 91.026 85.3497 90.6928C84.9268 89.9661 84.1404 89.7301 83.4215 90.1143C83.2957 90.1817 83.163 90.236 83.0278 90.2992C83.0278 90.3911 83.0017 90.4819 83.032 90.5456C83.3933 91.3126 83.7598 92.077 84.1321 92.8388C84.2976 93.1771 84.3206 93.1797 84.6824 93.0674C84.7727 93.0392 84.8641 93.0147 84.9544 92.9881C85.2907 92.8899 85.3032 92.8978 85.4447 93.3322C84.5117 93.7608 83.5734 94.1921 82.6023 94.6385ZM82.714 89.7499C82.8085 89.7499 82.902 89.7781 82.9631 89.7452C83.4272 89.4972 83.9018 89.2622 84.3394 88.973C84.6401 88.774 84.7278 88.4336 84.6834 88.0739C84.6187 87.5455 84.3984 87.0923 84.0146 86.7221C83.7483 86.4652 83.421 86.3859 83.0795 86.5034C82.6905 86.637 82.3099 86.8025 81.9397 86.9832C81.6217 87.1382 81.5753 87.2531 81.7079 87.5539C82.0306 88.2864 82.3736 89.01 82.7135 89.7494L82.714 89.7499Z" fill="#0F1693"/>
<path id="Vector_46" d="M65.1353 100.803C65.1849 101.501 65.1394 102.149 64.8178 102.745C64.7066 102.952 64.5474 103.153 64.3646 103.298C63.6744 103.846 63.252 103.512 63.0645 102.773C62.9398 102.281 62.8672 101.776 62.7622 101.279C62.6327 100.667 62.3612 100.518 61.6512 100.731C61.3844 100.811 61.1536 101.01 60.9024 101.157C60.9453 101.902 60.9426 102.616 61.0606 103.324C61.105 103.592 61.0993 103.868 61.1233 104.139C61.1437 104.37 61.2658 104.459 61.4736 104.37C61.6752 104.284 61.8621 104.163 62.0903 104.038C62.1608 104.284 62.26 104.481 61.9937 104.648C61.1358 105.184 60.2832 105.728 59.4269 106.267C59.4034 106.281 59.3669 106.274 59.3361 106.278C59.2061 105.856 59.1894 105.824 59.5376 105.642C60.1443 105.323 60.2038 104.802 60.1307 104.221C60.0717 103.752 59.9971 103.289 59.9736 102.812C59.9214 101.747 59.7997 100.685 59.7084 99.6221C59.6875 99.3819 59.6833 99.1407 59.6561 98.9016C59.6347 98.7152 59.5898 98.5319 59.5408 98.2688C59.2029 98.4332 58.9252 98.5679 58.6458 98.7042C58.5367 98.3878 58.6025 98.1899 58.8938 98.0124C59.8812 97.4109 60.8476 96.7755 61.825 96.1578C62.1942 95.925 62.5826 95.7349 63.0332 95.7229C63.6514 95.7062 63.9652 96.0263 64.0237 96.6371C64.0722 97.1394 64.0467 97.6266 63.8978 98.1022C63.6707 98.8285 63.2003 99.3861 62.6176 99.8576C62.5863 99.8832 62.5534 99.9067 62.5074 99.9411C62.5602 99.9615 62.5863 99.9792 62.6124 99.9798C63.2609 99.9912 63.5433 100.209 63.7245 100.814C63.843 101.209 63.9809 101.598 64.1114 101.989C64.1265 102.035 64.1385 102.091 64.1714 102.119C64.2498 102.185 64.3448 102.287 64.4241 102.28C64.5087 102.272 64.6351 102.167 64.6534 102.084C64.7139 101.806 64.7573 101.52 64.7625 101.236C64.7667 101.011 64.8236 100.867 65.1342 100.803H65.1353ZM60.8586 100.608C61.5212 100.217 62.143 99.8602 62.6014 99.2869C62.8317 98.9992 62.8896 98.6468 62.9794 98.2933C63.0661 97.9513 62.9638 97.6464 62.9633 97.3284C62.9622 96.6492 62.6562 96.4262 61.9592 96.6972C61.6204 96.8288 61.3248 97.0695 61.0037 97.2512C60.6842 97.4318 60.586 97.6976 60.6106 98.0557C60.667 98.8786 60.7051 99.703 60.8586 100.608Z" fill="#0F1693"/>
<path id="Vector_47" d="M91.5525 81.88C91.4324 81.7724 91.3285 81.6789 91.1791 81.5448C92.6928 80.3131 94.1923 79.0929 95.7101 77.8575C95.8046 77.94 95.8939 78.0037 95.9659 78.0831C96.4301 78.5943 96.8943 79.1054 97.3506 79.6239C97.572 79.875 97.56 79.9032 97.2399 80.1272C96.9788 79.9241 96.7147 79.7168 96.4489 79.5116C95.8547 79.0532 95.2412 79.0266 94.6267 79.4584C94.2466 79.7257 93.8754 80.0082 93.5188 80.3063C93.2713 80.513 93.2598 80.6337 93.4556 80.8817C93.972 81.5359 94.5035 82.1786 95.0256 82.8219C95.9414 82.342 96.0302 81.8726 95.401 80.6817C95.471 80.6091 95.5556 80.5204 95.6438 80.4279C95.7597 80.5089 95.8213 80.535 95.8589 80.5804C96.4896 81.3505 97.1198 82.1217 97.7448 82.8965C97.9531 83.155 97.9443 83.1717 97.6399 83.4333C97.2493 83.1278 96.9334 82.6647 96.3466 82.7138C95.9665 82.7456 95.719 83.0088 95.4255 83.2636C95.9733 84.1272 96.6384 84.8879 97.2812 85.6486C97.6012 85.6178 97.8388 85.4831 98.0518 85.2837C98.3317 85.021 98.6496 84.795 98.906 84.512C99.5701 83.7789 99.4615 83.415 99.1514 82.6287C99.0308 82.3222 98.8715 82.0309 98.7337 81.7411C98.8512 81.4899 99.0078 81.5108 99.1457 81.6779C99.3268 81.8977 99.4819 82.1395 99.6479 82.3718C99.969 82.8219 100.29 83.2725 100.642 83.7648C100.36 84.0113 100.098 84.253 99.8228 84.478C99.1644 85.0174 98.4993 85.5479 97.8383 86.0835C97.313 86.5086 96.7867 86.933 96.2662 87.3638C96.1268 87.4792 96.0067 87.4802 95.8955 87.3445C95.7754 87.1983 95.837 87.0777 95.9717 86.9795C96.0328 86.9351 96.1069 86.9054 96.1591 86.8526C96.4855 86.5226 96.5089 86.402 96.2202 86.0402C95.1624 84.714 94.0926 83.3978 93.0274 82.0773C92.9168 81.94 92.8092 81.799 92.6933 81.6659C92.4724 81.4132 92.2552 81.3803 91.9806 81.562C91.836 81.6575 91.7007 81.7682 91.5514 81.8789L91.5525 81.88Z" fill="#0F1693"/>
<path id="Vector_48" d="M80.6365 93.4632C80.6558 93.8083 80.495 94.4213 80.2178 95.004C79.6643 96.1688 78.3762 96.7902 77.1064 96.5594C76.1207 96.3803 75.3777 95.8274 74.7893 95.0739C73.7356 93.7253 73.4965 92.1971 74.0583 90.5926C74.3606 89.7301 74.9751 89.1406 75.9144 88.8701C77.4114 88.4394 78.5344 89.0153 79.4852 90.0783C80.259 90.944 80.6151 91.9924 80.637 93.4627L80.6365 93.4632ZM79.6742 94.0496C79.6445 93.8277 79.6382 93.5995 79.5797 93.3849C79.4555 92.9296 79.3067 92.4811 79.1631 92.0316C78.9208 91.275 78.5412 90.5957 78.0301 89.9859C77.5048 89.3599 76.5551 88.9672 75.5563 89.4935C75.1313 89.7175 74.8363 90.0981 74.7804 90.555C74.7068 91.157 74.6942 91.7804 74.8895 92.373C75.0482 92.8549 75.2482 93.3233 75.4189 93.8015C75.715 94.6312 76.2314 95.2896 76.9456 95.7976C77.3994 96.1203 77.8875 96.1072 78.4003 95.9642C79.2007 95.7412 79.6633 95.1032 79.6742 94.0485V94.0496Z" fill="#0F1693"/>
<path id="Vector_49" d="M98.9817 74.3943C98.8627 74.1557 98.7577 73.9448 98.6282 73.6842C98.7019 73.6305 98.7911 73.5652 98.8888 73.4937C98.9023 73.4947 98.9378 73.4879 98.9603 73.502C99.6281 73.9176 100.297 74.3317 100.959 74.7556C101.23 74.929 101.224 74.9488 100.986 75.2887C100.387 75.0517 99.7665 74.9222 99.1117 74.9791C98.4189 75.0397 97.9615 75.4521 97.6216 75.9967C97.3574 76.4201 97.4921 77.0587 97.8492 77.4268C98.2398 77.8299 98.7582 77.9437 99.2579 77.7087C99.4589 77.6142 99.6453 77.4816 99.8218 77.3448C100.253 77.0101 100.687 76.677 101.098 76.3178C101.555 75.9179 102.076 75.7946 102.663 75.8542C103.96 75.9863 105.002 77.2002 104.821 78.459C104.675 79.4683 104.069 80.1731 103.136 80.5882C102.967 80.6639 102.79 80.7235 102.588 80.8012C102.677 80.9986 102.747 81.173 102.834 81.338C102.902 81.4675 102.926 81.609 102.8 81.6784C102.714 81.7259 102.55 81.716 102.463 81.6628C102.051 81.4132 101.654 81.1401 101.252 80.8738C100.906 80.6441 100.561 80.4117 100.192 80.1658C100.261 80.0421 100.319 79.9371 100.377 79.8317C101.036 80.0363 101.661 80.2776 102.352 80.2233C103.307 80.1476 104.144 79.4166 104.271 78.4872C104.35 77.9139 104.11 77.4639 103.635 77.1464C103.154 76.8248 102.649 76.7527 102.155 77.1088C101.817 77.3527 101.51 77.6382 101.177 77.8894C100.757 78.2058 100.392 78.5969 99.8724 78.7775C99.5451 78.8913 99.2292 78.9357 98.8903 78.8715C97.9798 78.6992 97.1371 77.8753 96.9919 77.0368C96.8066 75.9643 97.6226 74.9405 98.3818 74.6214C98.5692 74.5426 98.7624 74.4779 98.9838 74.3948L98.9817 74.3943Z" fill="#0F1693"/>
<path id="Vector_50" d="M31.8297 85.799C33.5893 86.5592 35.294 87.2959 37.0483 88.0545C36.7319 88.916 36.4275 89.7462 36.109 90.6129C35.9973 90.5758 35.8856 90.5393 35.7467 90.4933C35.7832 90.1378 35.7968 89.7942 35.8569 89.4585C36.001 88.6476 35.8449 88.2179 35.1541 87.8342C34.7531 87.6112 34.3135 87.4572 33.8864 87.2833C33.6613 87.1914 33.4875 87.2473 33.3862 87.4932C33.2494 87.8258 33.0922 88.1506 32.9502 88.4811C32.768 88.9056 32.5915 89.3327 32.3926 89.8062C32.5957 90.0511 32.9486 90.038 33.2588 90.0944C33.5225 90.1419 33.7663 90.0208 33.9485 89.8219C34.078 89.6809 34.1981 89.5258 34.2942 89.3608C34.4257 89.1342 34.5761 89.1369 34.7625 89.269C34.7416 89.648 33.6587 92.2007 33.3549 92.5719C33.2614 92.4962 33.1674 92.4205 33.0802 92.3505C33.44 91.1173 33.2875 90.7048 32.1989 90.3247C32.1378 90.4443 32.0694 90.567 32.0109 90.6938C31.7238 91.3183 31.4429 91.9453 31.1526 92.5682C30.9139 93.0804 30.9761 93.2726 31.4804 93.5237C31.6094 93.5879 31.7384 93.6516 31.8872 93.7253C31.8872 93.8208 31.8992 93.9169 31.8846 94.0093C31.8543 94.2035 31.7091 94.2401 31.5609 94.1774C30.6362 93.7848 29.7157 93.3827 28.7957 92.9802C28.7581 92.9635 28.7372 92.9092 28.6965 92.8575C28.7806 92.7285 28.8646 92.599 28.9539 92.4628C29.1179 92.5301 29.2677 92.5865 29.4129 92.6528C29.6979 92.7828 29.924 92.7238 30.0754 92.4471C30.183 92.2508 30.2634 92.0393 30.3521 91.8331C30.8539 90.6688 31.3572 89.5055 31.8543 88.3391C32.0208 87.948 32.179 87.5528 32.3226 87.1528C32.4646 86.757 32.3989 86.6458 32.0083 86.4746C31.8663 86.4124 31.7394 86.3174 31.5838 86.224C31.6642 86.0861 31.7415 85.9535 31.8308 85.8L31.8297 85.799Z" fill="#0F1693"/>
<path id="Vector_51" d="M72.5441 96.3625C72.3938 96.4257 72.2815 96.4732 72.1745 96.5181C71.3365 95.3115 71.1574 95.2405 70.1163 95.7047C70.0239 96.0179 70.2703 96.2544 70.3638 96.5181C70.5601 97.0705 70.8311 97.5952 71.0483 98.1409C71.1887 98.4938 71.2785 98.5789 71.6362 98.5288C71.7589 98.5116 71.8774 98.462 71.9964 98.4233C72.2443 98.3429 72.4493 98.4439 72.6115 98.7262C71.5693 99.1621 70.5345 99.595 69.4861 100.034C69.4193 99.8435 69.3733 99.713 69.3185 99.5584C69.4501 99.5026 69.5795 99.4514 69.7059 99.3924C70.1126 99.2029 70.2249 98.97 70.0599 98.5445C69.861 98.0312 69.6265 97.5321 69.4088 97.0256C69.154 96.433 68.8971 95.8409 68.6486 95.2457C68.3588 94.5508 68.0774 93.8522 67.7798 93.1233C67.5433 93.1405 67.3193 93.1332 67.1063 93.1781C66.7544 93.2522 66.7575 93.2669 66.5298 92.9082C67.1815 92.5135 71.4764 90.7602 71.8779 90.7351C72.2533 91.5099 72.6334 92.2952 73.0125 93.0784C72.7751 93.2159 72.592 93.1946 72.4632 93.0147C72.3322 92.8319 72.1938 92.6539 72.0722 92.4649C71.7897 92.0253 71.3501 91.8504 70.8692 91.7945C70.6457 91.7684 70.3993 91.841 70.1789 91.9141C69.8166 92.0347 69.4605 92.1798 69.1128 92.3391C68.8126 92.4764 68.729 92.668 68.8538 92.9619C69.1629 93.6882 69.4934 94.4056 69.814 95.1225C70.2609 95.1428 70.6938 94.8839 70.865 94.5116C71.0587 94.0897 70.8603 93.7018 70.7512 93.2841C70.8843 93.2235 71.0065 93.1682 71.1825 93.0878C71.6414 94.1915 72.0883 95.2655 72.5441 96.3615V96.3625Z" fill="#0F1693"/>
<path id="Vector_52" d="M13.6093 78.0543C13.0794 78.6156 12.5651 79.1451 12.0701 79.6917C11.8357 79.9507 11.8446 80.1235 12.0377 80.4316C12.0973 80.5266 12.1693 80.6138 12.2341 80.7057C12.2983 80.7965 12.3604 80.8889 12.445 81.0122C12.3547 81.1161 12.2675 81.2158 12.1395 81.3625C11.4201 80.3825 10.7309 79.4427 10.0297 78.4872C10.1304 78.3713 10.2114 78.2773 10.297 78.1781C10.3508 78.2089 10.3998 78.223 10.427 78.2559C10.5393 78.3922 10.6374 78.5404 10.7538 78.6731C10.9768 78.9258 11.1172 78.9409 11.3595 78.7159C11.595 78.4971 11.8117 78.259 12.0341 78.0267C12.9327 77.0848 13.8041 76.1141 14.7381 75.2088C15.3214 74.6433 15.1397 74.1933 14.7366 73.7709C14.7052 73.738 14.664 73.7134 14.5993 73.6628C14.665 73.5892 14.7209 73.5197 14.7841 73.4576C14.8384 73.4038 14.9005 73.3574 14.9721 73.2963C15.0451 73.3835 15.1099 73.4529 15.1663 73.5296C15.8607 74.4752 16.5415 75.4307 17.2516 76.3648C17.7456 77.0148 17.9842 77.7536 18.0954 78.5415C18.1852 79.1785 17.6855 80.0739 17.0522 80.372C16.4126 80.6733 15.773 80.5934 15.2644 80.1C14.829 79.6781 14.4625 79.1842 14.0761 78.7133C13.9142 78.5159 13.779 78.2961 13.6093 78.0543ZM13.9184 77.7218C14.2364 78.1379 14.5392 78.5692 14.8812 78.9665C15.0436 79.1555 15.2764 79.2855 15.4848 79.4317C15.6184 79.5257 15.7458 79.5105 15.9202 79.4688C16.5671 79.3142 16.918 78.86 17.1811 78.318C17.3143 78.0444 17.307 77.7452 17.213 77.4304C17.0537 76.8973 16.7426 76.4619 16.4251 76.0264C16.1045 75.5863 15.9787 75.5805 15.608 75.9638C15.053 76.5371 14.5016 77.1145 13.9184 77.7218Z" fill="#0F1693"/>
<path id="Vector_53" d="M53.6429 103.844C53.5708 103.998 53.5197 104.108 53.4607 104.235C52.4901 103.735 51.5252 103.238 50.5363 102.73V102.306C50.9253 102.302 51.1978 102.755 51.6463 102.531C51.6943 101.914 51.345 101.337 51.3664 100.705C50.4705 100.247 49.6006 99.8022 48.6874 99.3349C48.4791 99.6377 48.2833 99.927 48.0828 100.213C47.9554 100.395 47.9586 100.581 48.098 100.739C48.2551 100.917 48.4196 101.105 48.6196 101.223C48.8577 101.365 48.9182 101.53 48.8378 101.809C48.7673 101.79 48.6932 101.783 48.6316 101.751C47.9152 101.389 47.2036 101.017 46.4836 100.663C46.2726 100.559 46.1865 100.438 46.2888 100.217C46.3202 100.204 46.3551 100.174 46.3755 100.182C46.9195 100.4 47.2777 100.134 47.59 99.7281C48.4619 98.5945 49.337 97.4636 50.2115 96.3317C50.4277 96.0518 50.6339 95.7636 50.8668 95.4984C50.9362 95.419 51.0808 95.3663 51.1889 95.3694C51.3372 95.3741 51.4437 95.4707 51.4724 95.6435C51.6333 96.6053 51.7977 97.566 51.9695 98.5256C52.0196 98.8039 52.111 99.0749 52.1622 99.3532C52.3882 100.576 52.5997 101.801 52.832 103.023C52.8843 103.298 53.0727 103.501 53.3176 103.644C53.4132 103.7 53.5066 103.76 53.6434 103.844L53.6429 103.844ZM48.9851 98.9224C49.6873 99.2811 50.4057 99.6482 51.2223 100.065C51.0192 98.9318 50.837 97.9158 50.6344 96.7838C50.0403 97.5545 49.5239 98.2243 48.9851 98.9224Z" fill="#0F1693"/>
<path id="Vector_54" d="M16.4079 85.7634C16.5421 85.4872 16.6674 85.4162 16.8887 85.5703C17.0882 85.7091 17.3106 85.8146 17.5821 85.9681C17.8338 85.2956 18.0635 84.6806 18.2969 84.0566C17.639 83.5126 16.9895 82.9758 16.2867 82.3947C15.891 82.6798 15.4743 82.9435 15.1015 83.2594C14.8248 83.4938 14.8436 83.6718 15.0577 83.9512C15.1532 84.0759 15.2425 84.2049 15.3474 84.3501C15.2796 84.455 15.2143 84.5563 15.159 84.6419C15.113 84.6456 15.0911 84.6539 15.0817 84.6466C14.4489 84.1396 13.8166 83.6311 13.1587 83.1022C13.2574 82.9863 13.3566 82.8693 13.4772 82.7278C14.026 83.0949 14.51 82.8772 14.9966 82.5832C16.7556 81.5191 18.5193 80.4629 20.2815 79.404C20.4444 79.3064 20.6094 79.2113 20.7519 79.1278C21.038 79.2348 21.0704 79.4129 20.9905 79.6353C20.789 80.1982 20.5854 80.76 20.3854 81.3233C19.8706 82.7733 19.3584 84.2248 18.8415 85.6742C18.7684 85.8788 18.6384 86.0689 18.5997 86.2777C18.5355 86.6265 18.5167 86.9868 18.9417 87.2436C18.8112 87.3716 18.7083 87.4718 18.5956 87.582C17.8468 86.9591 17.1368 86.3696 16.4079 85.7634ZM18.487 83.4724C18.8514 82.4736 19.2049 81.5035 19.5589 80.5328C19.5328 80.5151 19.5067 80.4973 19.4806 80.4796C18.6076 81.009 17.7341 81.5384 16.8261 82.0893C17.3874 82.5571 17.9158 82.9972 18.487 83.4729V83.4724Z" fill="#0F1693"/>
<path id="Vector_55" d="M45.9223 92.2064C46.1828 92.1061 46.3431 91.7704 46.7112 91.9109C46.8475 92.2518 46.5937 92.5369 46.5066 92.8355C46.3186 93.4777 46.0544 94.0975 45.8189 94.7256C45.8033 94.7679 45.7651 94.8018 45.7244 94.8577C45.621 94.8201 45.5192 94.7836 45.3725 94.7303C45.3981 94.5006 45.4221 94.2667 45.4508 94.0333C45.515 93.5195 45.5093 93.0089 45.3683 92.5066C45.0415 91.3433 43.6187 90.9319 42.7395 91.6133C42.2325 92.0059 41.8774 92.5139 41.5746 93.0679C41.1548 93.8354 40.8593 94.6536 40.6014 95.4843C40.3455 96.3087 40.7538 97.3801 41.4514 97.8087C42.2925 98.3251 43.2005 98.2452 43.9268 97.5565C44.215 97.2835 44.4525 96.9566 44.7277 96.6371C44.924 96.7018 45.09 96.7984 44.9705 97.0741C44.559 98.0212 43.2595 98.7637 42.2356 98.607C41.337 98.4692 40.6149 98.0317 40.0975 97.2678C39.624 96.5687 39.5112 95.785 39.5979 94.9794C39.778 93.3034 40.5356 91.9636 42.0476 91.1397C42.4262 90.9335 42.8731 90.7533 43.2934 90.7408C44.3732 90.7089 45.3067 91.0488 45.8194 92.1124C45.8382 92.1521 45.8878 92.1771 45.9213 92.2074L45.9223 92.2064Z" fill="#0F1693"/>
<path id="Vector_56" d="M90.1913 82.6809C90.3302 82.3974 90.1036 82.0643 90.4398 81.809C90.5458 81.9113 90.6779 81.999 90.7573 82.1207C91.1969 82.7926 91.6183 83.4771 92.0589 84.1486C92.19 84.3486 92.0652 84.4347 91.9044 84.5741C91.6318 84.3459 91.3671 84.0922 91.07 83.8833C90.7468 83.6562 90.4117 83.4301 90.0503 83.2761C89.5021 83.0422 88.9173 83.1153 88.4589 83.4573C88.1785 83.6667 87.9519 84.0541 87.8695 84.4013C87.7076 85.0811 87.8371 85.7698 88.1618 86.3916C88.5179 87.073 88.8787 87.759 89.3147 88.3898C89.5909 88.7897 89.9783 89.1317 90.3688 89.4303C91.435 90.2449 93.1319 89.2774 93.2562 88.0624C93.3105 87.5309 93.2562 87.1435 92.9418 86.2955C93.086 86.2506 93.2269 86.2063 93.3893 86.1551C93.6895 86.8991 93.9067 87.6243 93.6874 88.3892C93.4081 89.3646 92.7111 89.9446 91.7655 90.2281C90.9134 90.484 90.1026 90.3399 89.3251 89.9149C87.8642 89.116 86.5981 86.8892 87.0461 84.8362C87.3839 83.2897 88.7774 82.4047 90.1913 82.6804V82.6809Z" fill="#0F1693"/>
<path id="Vector_57" d="M26.6409 83.8922C26.89 83.7601 27.0826 83.6583 27.2716 83.5581C27.3573 83.6098 27.4366 83.6578 27.5176 83.7069C27.5123 83.733 27.5129 83.7622 27.5008 83.7857C27.1239 84.5276 26.7474 85.2696 26.3663 86.0094C26.2744 86.188 26.1992 86.4188 25.9298 86.3545C25.7664 86.3159 25.757 86.1018 25.8865 85.7593C26.1407 85.0837 26.2023 84.3846 25.9736 83.7048C25.806 83.2067 25.439 82.8621 24.8949 82.7065C24.4151 82.5692 23.9744 82.5916 23.5374 82.8172C23.0472 83.0699 22.6624 83.4369 22.3694 83.9021C22.1047 84.3225 21.8202 84.7318 21.579 85.1652C21.2469 85.7619 20.9383 86.3676 20.8464 87.0667C20.7493 87.8039 20.9712 88.3872 21.5544 88.8331C22.1408 89.281 22.795 89.4481 23.481 89.126C23.8491 88.9531 24.1661 88.6691 24.4997 88.4263C24.589 88.3616 24.6402 88.2284 24.7341 88.1914C24.8307 88.1527 24.9795 88.159 25.0652 88.2112C25.1148 88.2415 25.1304 88.4373 25.0834 88.4989C24.3154 89.4993 22.9584 90.1477 21.6766 89.5066C20.3609 88.8482 19.6999 87.5309 19.9708 85.9186C20.141 84.9083 20.6412 84.0536 21.3169 83.3179C21.8291 82.7603 22.4702 82.3379 23.2252 82.1614C24.2987 81.9108 25.2808 82.0909 26.064 82.92C26.2504 83.1169 26.3506 83.3952 26.4905 83.6359C26.5365 83.7147 26.583 83.7935 26.6409 83.8922Z" fill="#0F1693"/>
<path id="Vector_58" d="M28.2224 84.6185C28.4292 84.2029 28.461 84.1825 28.8103 84.3465C29.5366 84.6869 30.2545 85.0445 30.9824 85.3813C31.198 85.481 31.2826 85.6053 31.1776 85.8491C30.928 85.9953 30.6821 85.8376 30.4681 85.7536C30.206 85.6507 30.0702 85.7311 29.96 85.9337C29.8295 86.1728 29.7173 86.4219 29.5993 86.6673C28.8839 88.1564 28.1692 89.646 27.4554 91.1361C27.2852 91.4912 27.3145 91.5904 27.6476 91.8029C27.7285 91.8545 27.8152 91.8974 27.9003 91.9423C27.9702 91.9793 28.0412 92.0143 28.1086 92.0488C28.0104 92.5093 27.9671 92.5417 27.598 92.3683C26.773 91.9799 25.9522 91.582 25.1362 91.1909C25.2281 90.7873 25.3048 90.7492 25.6473 90.8693C25.7664 90.9111 25.8389 91.016 26.028 90.9701C26.3172 90.8996 26.453 90.7555 26.5694 90.509C27.3165 88.9286 28.0752 87.3533 28.8296 85.776C29.1246 85.1599 29.0985 85.0811 28.5023 84.7699C28.4187 84.726 28.3357 84.6806 28.2219 84.619L28.2224 84.6185Z" fill="#0F1693"/>
<path id="Vector_59" d="M57.9091 100.543C57.5201 100.42 57.292 99.9724 56.8075 99.9892C56.7918 100.112 56.7678 100.219 56.7662 100.327C56.7422 101.948 56.7323 103.57 56.6905 105.191C56.6806 105.571 56.8095 105.841 57.0889 106.064C57.2768 106.214 57.4612 106.371 57.6596 106.506C57.8658 106.647 57.9055 106.815 57.7911 107.082C56.6258 106.231 55.4771 105.393 54.2903 104.526V104.134C54.7258 104.252 54.9774 104.696 55.4677 104.716C55.4875 104.584 55.5163 104.479 55.5178 104.373C55.535 103.137 55.5465 101.901 55.5627 100.664C55.5674 100.295 55.5706 99.926 55.5967 99.5579C55.6275 99.1303 55.4599 98.8123 55.1205 98.5685C54.9638 98.4562 54.8197 98.3257 54.6568 98.2239C54.4459 98.0928 54.3838 97.9242 54.4788 97.6683C54.5331 97.6882 54.5942 97.6965 54.638 97.7284C55.663 98.4755 56.6821 99.2305 57.7118 99.9709C57.9253 100.124 58.0125 100.285 57.9086 100.542L57.9091 100.543Z" fill="#0F1693"/>
<path id="Vector_60" d="M38.3787 89.1499C38.0785 89.0241 37.8462 88.9259 37.5867 88.8168C37.6216 88.6957 37.6592 88.5646 37.6926 88.4471C38.0498 88.2889 38.2858 88.5704 38.5578 88.6591C39.0721 88.8267 39.5618 89.0706 40.0594 89.2867C40.1879 89.3426 40.3179 89.4016 40.4312 89.4815C40.5455 89.5624 40.6844 89.6626 40.5643 89.8318C40.4677 89.9676 40.3194 90.0104 40.1894 89.8986C40.0093 89.7441 39.8067 89.7337 39.6005 89.7733C39.5049 89.7916 39.3754 89.8621 39.3426 89.942C39.0361 90.6881 38.7484 91.4426 38.4534 92.1934C38.1991 92.8397 37.9443 93.4856 37.6859 94.1299C37.5083 94.5721 37.3272 95.0133 37.1408 95.4519C37.0541 95.6555 37.1314 95.8012 37.2953 95.9035C37.4702 96.0132 37.6603 96.0988 37.8869 96.2179C37.865 96.3505 37.8409 96.4967 37.8075 96.7034C36.7659 96.3385 35.8088 95.9286 34.8346 95.4848C34.8936 95.3334 34.9442 95.2039 35.0063 95.0436C35.2058 95.1141 35.3797 95.1882 35.5608 95.2368C35.8778 95.3224 35.9911 95.2713 36.1378 94.9381C36.4359 94.2615 36.7215 93.5796 37.0055 92.8967C37.2551 92.2967 37.4932 91.6916 37.7423 91.0912C37.9219 90.6578 38.1265 90.2344 38.2894 89.7953C38.3584 89.6099 38.3479 89.3953 38.3792 89.1484L38.3787 89.1499Z" fill="#0F1693"/>
<path id="Vector_61" d="M41.312 51.7067L42.918 52.9827L44.6274 51.8497L43.9106 53.7711L45.5161 55.0472L43.4673 54.959L42.7499 56.8804L42.2006 54.9041L40.1513 54.8159L41.8613 53.6829L41.312 51.7067Z" fill="#FFD000"/>
<path id="Vector_62" d="M40.6358 44.8976L42.2419 46.1737L43.9518 45.0407L43.2344 46.9621L44.8405 48.2382L42.7911 48.1499L42.0737 50.0713L41.5245 48.0951L39.4752 48.0069L41.1851 46.8739L40.6358 44.8976Z" fill="#FFD000"/>
<path id="Vector_63" d="M46.872 46.0317L48.4781 47.3072L50.188 46.1742L49.4706 48.0961L51.0767 49.3717L49.0273 49.284L48.31 51.2054L47.7607 49.2291L45.7114 49.1409L47.4213 48.0079L46.872 46.0317Z" fill="#FFD000"/>
<path id="Vector_64" d="M47.1336 51.5918L48.7396 52.8679L50.4496 51.7349L49.7322 53.6563L51.3382 54.9323L49.2889 54.8441L48.5715 56.7655L48.0223 54.7893L45.9734 54.701L47.6829 53.568L47.1336 51.5918Z" fill="#FFD000"/>
<path id="Vector_65" d="M56.8205 35.936C56.8205 35.936 58.3299 36.0289 59.477 36.2258C60.963 36.4805 61.7853 36.9233 61.7853 36.9233" stroke="#0F1693" stroke-width="2" stroke-miterlimit="10"/>
</g>
<defs>
<clipPath id="clip0_527_11017">
<rect width="113.899" height="112" fill="white" transform="translate(0.650299)"/>
</clipPath>
</defs>
</svg>
