<svg width="35" height="32" viewBox="0 0 35 32" fill="none" xmlns="http://www.w3.org/2000/svg">
<g id="Microsoft_Office_PowerPoint_(2019&#226;&#128;&#147;present) 1" clip-path="url(#clip0_190_963)">
<path id="Vector" d="M20.7309 17.6L18.3389 0H18.1603C9.46225 0.0254782 2.41742 7.09379 2.39203 15.8208V16L20.7309 17.6Z" fill="#ED6C47"/>
<path id="Vector_2" d="M18.5175 0H18.3389V16L26.3123 19.2L34.2857 16V15.8208C34.2603 7.09379 27.2155 0.0254782 18.5175 0Z" fill="#FF8F6B"/>
<path id="Vector_3" d="M34.2857 16V16.176C34.2608 24.905 27.2142 31.975 18.5143 32H18.1635C9.4635 31.975 2.41699 24.905 2.39203 16.176V16H34.2857Z" fill="#D35230"/>
<path id="Vector_4" opacity="0.1" d="M19.1363 7.8644V24.9364C19.1323 25.5296 18.774 26.0625 18.2273 26.2884C18.0532 26.3623 17.8662 26.4004 17.6771 26.4004H6.15556C5.93231 26.1444 5.71703 25.8724 5.51769 25.6004C3.4863 22.8815 2.38947 19.5744 2.39211 16.1764V15.8244C2.38745 12.7595 3.28022 9.76064 4.95955 7.20039C5.13497 6.92839 5.31834 6.65639 5.51769 6.40039H17.6771C18.4805 6.4065 19.1302 7.0584 19.1363 7.8644Z" fill="black"/>
<path id="Vector_5" opacity="0.2" d="M18.3389 8.66402V25.736C18.3388 25.9257 18.3009 26.1134 18.2272 26.288C18.0021 26.8365 17.471 27.196 16.8797 27.2H6.88105C6.62877 26.943 6.38671 26.6762 6.15546 26.4C5.9322 26.144 5.71693 25.872 5.51758 25.6C3.48619 22.8811 2.38936 19.574 2.392 16.176V15.824C2.38734 12.7591 3.28011 9.76026 4.95944 7.20001H16.8797C17.6831 7.2061 18.3328 7.858 18.3389 8.66402Z" fill="black"/>
<path id="Vector_6" opacity="0.2" d="M18.3389 8.664V24.136C18.3328 24.942 17.6831 25.5939 16.8798 25.6H5.51761C3.48622 22.8811 2.38939 19.574 2.39203 16.176V15.824C2.38737 12.7591 3.28014 9.76026 4.95947 7.20001H16.8797C17.6831 7.20609 18.3328 7.85798 18.3389 8.664Z" fill="black"/>
<path id="Vector_7" opacity="0.2" d="M17.5415 8.664V24.136C17.5355 24.942 16.8857 25.5939 16.0824 25.6H5.51761C3.48622 22.8811 2.38939 19.574 2.39203 16.176V15.824C2.38737 12.7591 3.28014 9.76026 4.95947 7.20001H16.0824C16.8857 7.20609 17.5355 7.85798 17.5415 8.664Z" fill="black"/>
<path id="Vector_8" d="M1.46152 7.20001H16.08C16.8872 7.20001 17.5415 7.85655 17.5415 8.6664V23.3336C17.5415 24.1435 16.8872 24.8 16.08 24.8H1.46152C0.654356 24.8 0 24.1435 0 23.3336V8.6664C0 7.85655 0.654356 7.20001 1.46152 7.20001Z" fill="url(#paint0_linear_190_963)"/>
<path id="Vector_9" d="M8.93025 11.1107C9.88187 11.0463 10.8253 11.3236 11.5918 11.8931C12.2311 12.4658 12.5727 13.3014 12.5183 14.1595C12.5287 14.756 12.3703 15.3433 12.0614 15.8531C11.7487 16.3541 11.2982 16.7537 10.7641 17.0035C10.1536 17.2884 9.48618 17.4291 8.81304 17.4147H6.964V20.8627H5.07031V11.1107H8.93025ZM6.96242 15.9251H8.59219C9.10886 15.9632 9.62152 15.8098 10.033 15.4939C10.3733 15.1664 10.5517 14.7044 10.5202 14.2323C10.5202 13.1577 9.89771 12.6203 8.6528 12.6203H6.96243V15.9251H6.96242Z" fill="white"/>
</g>
<defs>
<linearGradient id="paint0_linear_190_963" x1="3.04732" y1="6.0542" x2="14.5514" y2="25.9127" gradientUnits="userSpaceOnUse">
<stop stop-color="#CA4C28"/>
<stop offset="0.5" stop-color="#C5401E"/>
<stop offset="1" stop-color="#B62F14"/>
</linearGradient>
<clipPath id="clip0_190_963">
<rect width="34.2857" height="32" fill="white"/>
</clipPath>
</defs>
</svg>
