<svg width="40" height="40" viewBox="0 0 40 40" fill="none" xmlns="http://www.w3.org/2000/svg">
<g id="shield-zap">
<path id="Icon" d="M21.6667 12.5L16.6667 17.5L23.3333 20.8333L18.3333 25.8333M33.3333 20C33.3333 28.1807 24.4101 34.1307 21.1633 36.0248C20.7943 36.2401 20.6098 36.3477 20.3495 36.4035C20.1474 36.4469 19.8526 36.4469 19.6505 36.4035C19.3902 36.3477 19.2057 36.2401 18.8367 36.0248C15.5899 34.1307 6.66667 28.1807 6.66667 20V12.0293C6.66667 10.6968 6.66667 10.0306 6.8846 9.45784C7.07713 8.9519 7.38997 8.50047 7.7961 8.14255C8.25583 7.7374 8.87967 7.50346 10.1273 7.03558L19.0637 3.68446C19.4102 3.55453 19.5834 3.48956 19.7616 3.4638C19.9197 3.44096 20.0803 3.44096 20.2384 3.4638C20.4166 3.48956 20.5898 3.55453 20.9363 3.68446L29.8727 7.03558C31.1203 7.50346 31.7442 7.7374 32.2039 8.14255C32.61 8.50047 32.9229 8.9519 33.1154 9.45784C33.3333 10.0306 33.3333 10.6968 33.3333 12.0293V20Z" stroke="#101828" stroke-width="2" stroke-linecap="round" stroke-linejoin="round"/>
</g>
</svg>
