<svg width="20" height="20" viewBox="0 0 20 20" fill="none" xmlns="http://www.w3.org/2000/svg">
<g id="vuesax/bold/sun">
<g id="sun">
<path id="Vector" d="M15.3333 10.0001C15.3333 12.9456 12.9455 15.3334 10 15.3334C7.05449 15.3334 4.66667 12.9456 4.66667 10.0001C4.66667 7.05456 7.05449 4.66675 10 4.66675C12.9455 4.66675 15.3333 7.05456 15.3333 10.0001Z" fill="#F8B917" stroke="#F8B917"/>
<path id="Vector_2" d="M3.82472 4.29303L3.81843 4.28624L3.81188 4.2797C3.68214 4.14996 3.68214 3.94154 3.81188 3.81181C3.94162 3.68207 4.15004 3.68207 4.27977 3.81181L4.38811 3.92014C4.51785 4.04988 4.51785 4.25829 4.38811 4.38803L4.38799 4.38792L4.37916 4.39721C4.32052 4.45894 4.23748 4.49158 4.15833 4.49158C4.07752 4.49158 3.99491 4.46294 3.92043 4.3961L3.82472 4.29303ZM16.0714 4.39636L16.425 4.74992L16.0714 4.39637C16.0085 4.45933 15.928 4.49158 15.8417 4.49158C15.7592 4.49158 15.6749 4.46176 15.5992 4.39197C15.4738 4.26196 15.4753 4.05676 15.6035 3.92847L15.7119 3.82014L15.3583 3.46659L15.7119 3.82014C15.8416 3.6904 16.05 3.6904 16.1798 3.82014C16.3095 3.94988 16.3095 4.15829 16.1798 4.28803L16.0714 4.39636ZM9.99999 18.6333C9.79069 18.6333 9.66666 18.4891 9.66666 18.3333V18.2666C9.66666 18.0844 9.8178 17.9333 9.99999 17.9333C10.1822 17.9333 10.3333 18.0844 10.3333 18.2666C10.3333 18.4744 10.1572 18.6333 9.99999 18.6333ZM15.95 16.2833C15.8672 16.2833 15.7825 16.2532 15.7065 16.1827L15.6035 16.0797C15.4738 15.95 15.4738 15.7415 15.6035 15.6118C15.7333 15.4821 15.9417 15.4821 16.0714 15.6118L16.1798 15.7201C16.3095 15.8499 16.3095 16.0583 16.1798 16.188C16.1168 16.251 16.0363 16.2833 15.95 16.2833ZM4.04999 16.2833C3.96755 16.2833 3.88322 16.2534 3.80757 16.1836C3.68216 16.0536 3.6836 15.8484 3.81188 15.7201L3.45833 15.3666L3.81188 15.7201L3.92022 15.6118C4.04995 15.4821 4.25837 15.4821 4.38811 15.6118C4.51785 15.7415 4.51785 15.95 4.38811 16.0797L4.27977 16.188C4.21866 16.2491 4.13068 16.2833 4.04999 16.2833ZM18.3333 10.3333H18.2667C18.0845 10.3333 17.9333 10.1821 17.9333 9.99992C17.9333 9.81773 18.0845 9.66658 18.2667 9.66658C18.4745 9.66658 18.6333 9.84269 18.6333 9.99992C18.6333 10.2092 18.4892 10.3333 18.3333 10.3333ZM1.73333 10.3333H1.66666C1.48447 10.3333 1.33333 10.1821 1.33333 9.99992C1.33333 9.81773 1.48447 9.66658 1.66666 9.66658C1.87449 9.66658 2.03333 9.84269 2.03333 9.99992C2.03333 10.2092 1.88916 10.3333 1.73333 10.3333ZM9.99999 2.03325C9.79069 2.03325 9.66666 1.88909 9.66666 1.73325V1.66659C9.66666 1.48439 9.8178 1.33325 9.99999 1.33325C10.1822 1.33325 10.3333 1.48439 10.3333 1.66659C10.3333 1.87442 10.1572 2.03325 9.99999 2.03325Z" fill="#F8B917" stroke="#F8B917"/>
</g>
</g>
</svg>
