<svg width="40" height="40" viewBox="0 0 40 40" fill="none" xmlns="http://www.w3.org/2000/svg">
<g id="users-03">
<path id="Icon" d="M30 26.3948C32.4265 27.6138 34.5069 29.5699 36.0254 32.016C36.3261 32.5005 36.4765 32.7427 36.5285 33.078C36.6341 33.7596 36.168 34.5976 35.5332 34.8673C35.2209 35 34.8695 35 34.1667 35M26.6667 19.2204C29.1362 17.9931 30.8333 15.4448 30.8333 12.5C30.8333 9.55523 29.1362 7.00685 26.6667 5.7796M23.3333 12.5C23.3333 16.6421 19.9755 20 15.8333 20C11.6912 20 8.33333 16.6421 8.33333 12.5C8.33333 8.35786 11.6912 5 15.8333 5C19.9755 5 23.3333 8.35786 23.3333 12.5ZM4.26538 31.5639C6.92256 27.5743 11.1156 25 15.8333 25C20.551 25 24.7441 27.5743 27.4013 31.5639C27.9834 32.4379 28.2745 32.8749 28.2409 33.4332C28.2149 33.8679 27.9299 34.4 27.5826 34.6627C27.1365 35 26.523 35 25.2961 35H6.37059C5.14362 35 4.53013 35 4.08406 34.6627C3.73675 34.4 3.45181 33.8679 3.42572 33.4332C3.39221 32.8749 3.68327 32.4379 4.26538 31.5639Z" stroke="#101828" stroke-width="2" stroke-linecap="round" stroke-linejoin="round"/>
</g>
</svg>
